<svg width="520" height="137" viewBox="0 0 520 137" version="1.1" xmlns="http://www.w3.org/2000/svg" xmlns:xlink="http://www.w3.org/1999/xlink" xmlns:figma="http://www.figma.com/figma/ns">
<title>Cleanit-logo-700x203</title>
<desc>Created using Figma</desc>
<g id="Canvas" transform="translate(-3120 439)" figma:type="canvas">
<g id="Cleanit-logo-700x203" style="mix-blend-mode:normal;" figma:type="frame">
<g id="Canvas" style="mix-blend-mode:normal;" figma:type="frame">
<g id="7" style="mix-blend-mode:normal;isolation:isolate;" figma:type="frame">
<g id="Cleanit" style="mix-blend-mode:normal;isolation:isolate;" figma:type="frame">
<g id="C" style="mix-blend-mode:normal;isolation:isolate;" figma:type="frame">
<g id="Subtract" style="mix-blend-mode:normal;isolation:isolate;" figma:type="frame">
<g id="Vector" style="mix-blend-mode:normal;isolation:isolate;" figma:type="vector">
<use xlink:href="#path0_fill" transform="translate(3120.48 -438.804)" fill="#007AFF" style="mix-blend-mode:normal;"/>
</g>
</g>
</g>
<g id="leanit" style="mix-blend-mode:normal;isolation:isolate;" figma:type="frame">
<g id="Vector" style="mix-blend-mode:normal;isolation:isolate;" figma:type="vector">
<use xlink:href="#path1_fill" transform="translate(3256.3 -427.047)" fill="#007AFF" style="mix-blend-mode:normal;"/>
</g>
</g>
<g id="House" style="mix-blend-mode:normal;isolation:isolate;" figma:type="frame">
<mask id="mask0_alpha" mask-type="alpha">
<g id="mask0 alpha" style="mix-blend-mode:normal;isolation:isolate;" figma:type="frame">
<g id="Vector" style="mix-blend-mode:normal;isolation:isolate;" figma:type="frame">
<g id="Vector" style="mix-blend-mode:normal;isolation:isolate;" figma:type="vector">
<use xlink:href="#path2_fill" transform="translate(3161.37 -386.225)" fill="#2F80ED" style="mix-blend-mode:normal;"/>
</g>
</g>
</g>
</mask>
<g id="Cleaner 2" style="mix-blend-mode:normal;isolation:isolate;" mask="url(#mask0_alpha)" figma:type="frame">
<g id="Vector" style="mix-blend-mode:normal;isolation:isolate;" figma:type="frame">
<g id="Vector" style="mix-blend-mode:normal;isolation:isolate;" figma:type="vector">
<use xlink:href="#path3_fill" transform="matrix(0.855516 0.517776 0.506819 -0.862052 3149.04 -349.988)" fill="#7DCEEA" style="mix-blend-mode:normal;"/>
</g>
</g>
<g id="Vector" style="mix-blend-mode:normal;isolation:isolate;" figma:type="frame">
<g id="Vector" style="mix-blend-mode:normal;isolation:isolate;" figma:type="vector">
<use xlink:href="#path4_fill" transform="matrix(0.855516 0.517776 0.506819 -0.862052 3168 -382.293)" fill="#61BBE2" style="mix-blend-mode:normal;"/>
</g>
</g>
<g id="Group" style="mix-blend-mode:normal;isolation:isolate;" figma:type="frame">
<g id="Vector" style="mix-blend-mode:normal;isolation:isolate;" figma:type="frame">
<g id="Vector" style="mix-blend-mode:normal;isolation:isolate;" figma:type="vector">
<use xlink:href="#path5_fill" transform="matrix(0.855516 0.517776 0.506819 -0.862052 3188.66 -353.759)" fill="#FDFFFF" style="mix-blend-mode:normal;"/>
</g>
</g>
<g id="Vector" style="mix-blend-mode:normal;isolation:isolate;" figma:type="frame">
<g id="Vector" style="mix-blend-mode:normal;isolation:isolate;" figma:type="vector">
<use xlink:href="#path6_fill" transform="matrix(0.855516 0.517776 0.506819 -0.862052 3189.51 -350.35)" fill="#FDFFFF" style="mix-blend-mode:normal;"/>
</g>
</g>
<g id="Vector" style="mix-blend-mode:normal;isolation:isolate;" figma:type="frame">
<g id="Vector" style="mix-blend-mode:normal;isolation:isolate;" figma:type="vector">
<use xlink:href="#path7_fill" transform="matrix(0.244651 0.969607 0.967858 -0.251477 3187.11 -364.79)" fill="#FDFFFF" style="mix-blend-mode:normal;"/>
</g>
</g>
<g id="Vector" style="mix-blend-mode:normal;isolation:isolate;" figma:type="frame">
<g id="Vector" style="mix-blend-mode:normal;isolation:isolate;" figma:type="vector">
<use xlink:href="#path8_fill" transform="matrix(0.96825 -0.24995 -0.243161 -0.969978 3185.89 -361.706)" fill="#FDFFFF" style="mix-blend-mode:normal;"/>
</g>
</g>
<g id="Vector" style="mix-blend-mode:normal;isolation:isolate;" figma:type="frame">
<g id="Vector" style="mix-blend-mode:normal;isolation:isolate;" figma:type="vector">
<use xlink:href="#path9_fill" transform="matrix(0.855516 0.517776 0.506819 -0.862052 3196.81 -372.167)" fill="#FDFFFF" style="mix-blend-mode:normal;"/>
</g>
</g>
<g id="Vector" style="mix-blend-mode:normal;isolation:isolate;" figma:type="frame">
<g id="Vector" style="mix-blend-mode:normal;isolation:isolate;" figma:type="vector">
<use xlink:href="#path10_fill" transform="matrix(0.855516 0.517776 0.506819 -0.862052 3174.69 -368.784)" fill="#FDFFFF" style="mix-blend-mode:normal;"/>
</g>
</g>
<g id="Vector" style="mix-blend-mode:normal;isolation:isolate;" figma:type="frame">
<g id="Vector" style="mix-blend-mode:normal;isolation:isolate;" figma:type="vector">
<use xlink:href="#path11_fill" transform="matrix(0.855516 0.517776 0.506819 -0.862052 3206.28 -363.723)" fill="#FDFFFF" style="mix-blend-mode:normal;"/>
</g>
</g>
<g id="Vector" style="mix-blend-mode:normal;isolation:isolate;" figma:type="frame">
<g id="Vector" style="mix-blend-mode:normal;isolation:isolate;" figma:type="vector">
<use xlink:href="#path12_fill" transform="matrix(0.855516 0.517776 0.506819 -0.862052 3201.16 -353.706)" fill="#FDFFFF" style="mix-blend-mode:normal;"/>
</g>
</g>
<g id="Vector" style="mix-blend-mode:normal;isolation:isolate;" figma:type="frame">
<g id="Vector" style="mix-blend-mode:normal;isolation:isolate;" figma:type="vector">
<use xlink:href="#path13_fill" transform="matrix(0.855516 0.517776 0.506819 -0.862052 3196.75 -382.426)" fill="#FDFFFF" style="mix-blend-mode:normal;"/>
</g>
</g>
<g id="Vector" style="mix-blend-mode:normal;isolation:isolate;" figma:type="frame">
<g id="Vector" style="mix-blend-mode:normal;isolation:isolate;" figma:type="vector">
<use xlink:href="#path14_fill" transform="matrix(0.855516 0.517776 0.506819 -0.862052 3203.57 -374.629)" fill="#FDFFFF" style="mix-blend-mode:normal;"/>
</g>
</g>
</g>
<mask id="mask1_alpha" mask-type="alpha">
<g id="mask1 alpha" style="mix-blend-mode:normal;isolation:isolate;" figma:type="frame">
<g id="Vector" style="mix-blend-mode:normal;isolation:isolate;" figma:type="vector">
<use xlink:href="#path15_fill" transform="translate(3147.87 -365.785)" fill="#FFFFFF" style="mix-blend-mode:normal;"/>
</g>
</g>
</mask>
<mask id="mask2_alpha" mask-type="alpha">
<path d="M 3394.46 -349.908L 3400.78 -349.908L 3400.78 -343.486L 3394.46 -343.486L 3394.46 -349.908Z" fill="#FFFFFF"/>
</mask>
<g id="Group" style="mix-blend-mode:normal;isolation:isolate;" mask="url(#mask2_alpha)" figma:type="frame">
</g>
<mask id="mask3_alpha" mask-type="alpha">
<g id="mask2 alpha" style="mix-blend-mode:normal;isolation:isolate;" figma:type="frame">
<g id="Vector" style="mix-blend-mode:normal;isolation:isolate;" figma:type="vector">
<use xlink:href="#path15_fill" transform="translate(3147.87 -365.785)" fill="#FFFFFF" style="mix-blend-mode:normal;"/>
</g>
</g>
</mask>
<mask id="mask4_alpha" mask-type="alpha">
<path d="M 3394.46 -349.908L 3400.78 -349.908L 3400.78 -343.486L 3394.46 -343.486L 3394.46 -349.908Z" fill="#FFFFFF"/>
</mask>
<g id="Group" style="mix-blend-mode:normal;isolation:isolate;" mask="url(#mask4_alpha)" figma:type="frame">
</g>
<mask id="mask5_alpha" mask-type="alpha">
<g id="mask3 alpha" style="mix-blend-mode:normal;isolation:isolate;" figma:type="frame">
<g id="Vector" style="mix-blend-mode:normal;isolation:isolate;" figma:type="vector">
<use xlink:href="#path15_fill" transform="translate(3147.87 -365.785)" fill="#FFFFFF" style="mix-blend-mode:normal;"/>
</g>
</g>
</mask>
<mask id="mask6_alpha" mask-type="alpha">
<path d="M 3394.46 -349.908L 3400.78 -349.908L 3400.78 -343.486L 3394.46 -343.486L 3394.46 -349.908Z" fill="#FFFFFF"/>
</mask>
<g id="Group" style="mix-blend-mode:normal;isolation:isolate;" mask="url(#mask6_alpha)" figma:type="frame">
</g>
<mask id="mask7_alpha" mask-type="alpha">
<g id="mask4 alpha" style="mix-blend-mode:normal;isolation:isolate;" figma:type="frame">
<g id="Vector" style="mix-blend-mode:normal;isolation:isolate;" figma:type="vector">
<use xlink:href="#path15_fill" transform="translate(3147.87 -365.785)" fill="#FFFFFF" style="mix-blend-mode:normal;"/>
</g>
</g>
</mask>
<mask id="mask8_alpha" mask-type="alpha">
<path d="M 3394.46 -349.908L 3400.78 -349.908L 3400.78 -343.486L 3394.46 -343.486L 3394.46 -349.908Z" fill="#FFFFFF"/>
</mask>
<g id="Group" style="mix-blend-mode:normal;isolation:isolate;" mask="url(#mask8_alpha)" figma:type="frame">
</g>
<mask id="mask9_alpha" mask-type="alpha">
<g id="mask5 alpha" style="mix-blend-mode:normal;isolation:isolate;" figma:type="frame">
<g id="Vector" style="mix-blend-mode:normal;isolation:isolate;" figma:type="vector">
<use xlink:href="#path15_fill" transform="translate(3147.87 -365.785)" fill="#FFFFFF" style="mix-blend-mode:normal;"/>
</g>
</g>
</mask>
<mask id="mask10_alpha" mask-type="alpha">
<path d="M 3394.46 -349.908L 3400.78 -349.908L 3400.78 -343.486L 3394.46 -343.486L 3394.46 -349.908Z" fill="#FFFFFF"/>
</mask>
<g id="Group" style="mix-blend-mode:normal;isolation:isolate;" mask="url(#mask10_alpha)" figma:type="frame">
</g>
<mask id="mask11_alpha" mask-type="alpha">
<g id="mask6 alpha" style="mix-blend-mode:normal;isolation:isolate;" figma:type="frame">
<g id="Vector" style="mix-blend-mode:normal;isolation:isolate;" figma:type="vector">
<use xlink:href="#path15_fill" transform="translate(3147.87 -365.785)" fill="#FFFFFF" style="mix-blend-mode:normal;"/>
</g>
</g>
</mask>
<mask id="mask12_alpha" mask-type="alpha">
<path d="M 3394.46 -349.908L 3400.78 -349.908L 3400.78 -343.486L 3394.46 -343.486L 3394.46 -349.908Z" fill="#FFFFFF"/>
</mask>
<g id="Group" style="mix-blend-mode:normal;isolation:isolate;" mask="url(#mask12_alpha)" figma:type="frame">
</g>
<mask id="mask13_alpha" mask-type="alpha">
<g id="mask7 alpha" style="mix-blend-mode:normal;isolation:isolate;" figma:type="frame">
<g id="Vector" style="mix-blend-mode:normal;isolation:isolate;" figma:type="vector">
<use xlink:href="#path15_fill" transform="translate(3147.87 -365.785)" fill="#FFFFFF" style="mix-blend-mode:normal;"/>
</g>
</g>
</mask>
<mask id="mask14_alpha" mask-type="alpha">
<path d="M 3394.46 -349.908L 3400.78 -349.908L 3400.78 -343.486L 3394.46 -343.486L 3394.46 -349.908Z" fill="#FFFFFF"/>
</mask>
<g id="Group" style="mix-blend-mode:normal;isolation:isolate;" mask="url(#mask14_alpha)" figma:type="frame">
</g>
<mask id="mask15_alpha" mask-type="alpha">
<g id="mask8 alpha" style="mix-blend-mode:normal;isolation:isolate;" figma:type="frame">
<g id="Vector" style="mix-blend-mode:normal;isolation:isolate;" figma:type="vector">
<use xlink:href="#path15_fill" transform="translate(3147.87 -365.785)" fill="#FFFFFF" style="mix-blend-mode:normal;"/>
</g>
</g>
</mask>
<mask id="mask16_alpha" mask-type="alpha">
<path d="M 3394.46 -349.908L 3400.78 -349.908L 3400.78 -343.486L 3394.46 -343.486L 3394.46 -349.908Z" fill="#FFFFFF"/>
</mask>
<g id="Group" style="mix-blend-mode:normal;isolation:isolate;" mask="url(#mask16_alpha)" figma:type="frame">
</g>
<mask id="mask17_alpha" mask-type="alpha">
<g id="mask9 alpha" style="mix-blend-mode:normal;isolation:isolate;" figma:type="frame">
<g id="Vector" style="mix-blend-mode:normal;isolation:isolate;" figma:type="vector">
<use xlink:href="#path15_fill" transform="translate(3147.87 -365.785)" fill="#FFFFFF" style="mix-blend-mode:normal;"/>
</g>
</g>
</mask>
<mask id="mask18_alpha" mask-type="alpha">
<path d="M 3394.46 -349.908L 3400.78 -349.908L 3400.78 -343.486L 3394.46 -343.486L 3394.46 -349.908Z" fill="#FFFFFF"/>
</mask>
<g id="Group" style="mix-blend-mode:normal;isolation:isolate;" mask="url(#mask18_alpha)" figma:type="frame">
</g>
<mask id="mask19_alpha" mask-type="alpha">
<g id="mask10 alpha" style="mix-blend-mode:normal;isolation:isolate;" figma:type="frame">
<g id="Vector" style="mix-blend-mode:normal;isolation:isolate;" figma:type="vector">
<use xlink:href="#path15_fill" transform="translate(3147.87 -365.785)" fill="#FFFFFF" style="mix-blend-mode:normal;"/>
</g>
</g>
</mask>
<mask id="mask20_alpha" mask-type="alpha">
<path d="M 3394.46 -349.908L 3400.78 -349.908L 3400.78 -343.486L 3394.46 -343.486L 3394.46 -349.908Z" fill="#FFFFFF"/>
</mask>
<g id="Group" style="mix-blend-mode:normal;isolation:isolate;" mask="url(#mask20_alpha)" figma:type="frame">
</g>
<mask id="mask21_alpha" mask-type="alpha">
<g id="mask11 alpha" style="mix-blend-mode:normal;isolation:isolate;" figma:type="frame">
<g id="Vector" style="mix-blend-mode:normal;isolation:isolate;" figma:type="vector">
<use xlink:href="#path15_fill" transform="translate(3147.87 -365.785)" fill="#FFFFFF" style="mix-blend-mode:normal;"/>
</g>
</g>
</mask>
<mask id="mask22_alpha" mask-type="alpha">
<path d="M 3394.46 -349.908L 3400.78 -349.908L 3400.78 -343.486L 3394.46 -343.486L 3394.46 -349.908Z" fill="#FFFFFF"/>
</mask>
<g id="Group" style="mix-blend-mode:normal;isolation:isolate;" mask="url(#mask22_alpha)" figma:type="frame">
</g>
<mask id="mask23_alpha" mask-type="alpha">
<g id="mask12 alpha" style="mix-blend-mode:normal;isolation:isolate;" figma:type="frame">
<g id="Vector" style="mix-blend-mode:normal;isolation:isolate;" figma:type="vector">
<use xlink:href="#path15_fill" transform="translate(3147.87 -365.785)" fill="#FFFFFF" style="mix-blend-mode:normal;"/>
</g>
</g>
</mask>
<mask id="mask24_alpha" mask-type="alpha">
<path d="M 3394.46 -349.908L 3400.78 -349.908L 3400.78 -343.486L 3394.46 -343.486L 3394.46 -349.908Z" fill="#FFFFFF"/>
</mask>
<g id="Group" style="mix-blend-mode:normal;isolation:isolate;" mask="url(#mask24_alpha)" figma:type="frame">
</g>
<mask id="mask25_alpha" mask-type="alpha">
<g id="mask13 alpha" style="mix-blend-mode:normal;isolation:isolate;" figma:type="frame">
<g id="Vector" style="mix-blend-mode:normal;isolation:isolate;" figma:type="vector">
<use xlink:href="#path15_fill" transform="translate(3147.87 -365.785)" fill="#FFFFFF" style="mix-blend-mode:normal;"/>
</g>
</g>
</mask>
<mask id="mask26_alpha" mask-type="alpha">
<path d="M 3394.46 -349.908L 3400.78 -349.908L 3400.78 -343.486L 3394.46 -343.486L 3394.46 -349.908Z" fill="#FFFFFF"/>
</mask>
<g id="Group" style="mix-blend-mode:normal;isolation:isolate;" mask="url(#mask26_alpha)" figma:type="frame">
</g>
<mask id="mask27_alpha" mask-type="alpha">
<g id="mask14 alpha" style="mix-blend-mode:normal;isolation:isolate;" figma:type="frame">
<g id="Vector" style="mix-blend-mode:normal;isolation:isolate;" figma:type="vector">
<use xlink:href="#path15_fill" transform="translate(3147.87 -365.785)" fill="#FFFFFF" style="mix-blend-mode:normal;"/>
</g>
</g>
</mask>
<mask id="mask28_alpha" mask-type="alpha">
<path d="M 3394.46 -349.908L 3400.78 -349.908L 3400.78 -343.486L 3394.46 -343.486L 3394.46 -349.908Z" fill="#FFFFFF"/>
</mask>
<g id="Group" style="mix-blend-mode:normal;isolation:isolate;" mask="url(#mask28_alpha)" figma:type="frame">
</g>
<mask id="mask29_alpha" mask-type="alpha">
<g id="mask15 alpha" style="mix-blend-mode:normal;isolation:isolate;" figma:type="frame">
<g id="Vector" style="mix-blend-mode:normal;isolation:isolate;" figma:type="vector">
<use xlink:href="#path15_fill" transform="translate(3147.87 -365.785)" fill="#FFFFFF" style="mix-blend-mode:normal;"/>
</g>
</g>
</mask>
<mask id="mask30_alpha" mask-type="alpha">
<path d="M 3394.46 -349.908L 3400.78 -349.908L 3400.78 -343.486L 3394.46 -343.486L 3394.46 -349.908Z" fill="#FFFFFF"/>
</mask>
<g id="Group" style="mix-blend-mode:normal;isolation:isolate;" mask="url(#mask30_alpha)" figma:type="frame">
</g>
</g>
</g>
<g id="Vector" style="mix-blend-mode:normal;isolation:isolate;" figma:type="frame">
<g id="Vector" style="mix-blend-mode:normal;isolation:isolate;" figma:type="vector">
<use xlink:href="#path16_fill" transform="translate(3170.45 -371.348)" fill="#007AFF" style="mix-blend-mode:normal;"/>
</g>
</g>
<g id="Rectangle 4" style="mix-blend-mode:normal;isolation:isolate;" figma:type="frame">
<g id="Vector" style="mix-blend-mode:normal;isolation:isolate;" figma:type="vector">
<use xlink:href="#path17_fill" transform="translate(3185.2 -343.69)" fill="#007AFF" style="mix-blend-mode:normal;"/>
</g>
</g>
<g id="Vector" style="mix-blend-mode:normal;isolation:isolate;" figma:type="frame">
<g id="Vector" style="mix-blend-mode:normal;isolation:isolate;" figma:type="vector">
<use xlink:href="#path18_fill" transform="matrix(0.0273586 -0.999626 -0.999602 -0.0282434 3188.24 -373.586)" fill="#FFFFFF" style="mix-blend-mode:normal;"/>
</g>
</g>
<g id="Vector" style="mix-blend-mode:normal;isolation:isolate;" figma:type="frame">
<g id="Vector" style="mix-blend-mode:normal;isolation:isolate;" figma:type="vector">
<use xlink:href="#path19_fill" transform="matrix(0.0273586 -0.999626 -0.999602 -0.0282434 3215.11 -369.629)" fill="#FFFFFF" style="mix-blend-mode:normal;"/>
</g>
</g>
<g id="Vector" style="mix-blend-mode:normal;isolation:isolate;" figma:type="frame">
<g id="Vector" style="mix-blend-mode:normal;isolation:isolate;" figma:type="vector">
<use xlink:href="#path20_fill" transform="matrix(0.0273586 -0.999626 -0.999602 -0.0282434 3181.72 -368.099)" fill="#FFFFFF" style="mix-blend-mode:normal;"/>
</g>
</g>
<g id="Vector" style="mix-blend-mode:normal;isolation:isolate;" figma:type="frame">
<g id="Vector" style="mix-blend-mode:normal;isolation:isolate;" figma:type="vector">
<use xlink:href="#path21_fill" transform="matrix(0.0273586 -0.999626 -0.999602 -0.0282434 3207.64 -370.452)" fill="#FFFFFF" style="mix-blend-mode:normal;"/>
</g>
</g>
<g id="Vector" style="mix-blend-mode:normal;isolation:isolate;" figma:type="frame">
<g id="Vector" style="mix-blend-mode:normal;isolation:isolate;" figma:type="vector">
<use xlink:href="#path14_fill" transform="matrix(0.855516 0.517776 0.506819 -0.862052 3169.28 -364.552)" fill="#FDFFFF" style="mix-blend-mode:normal;"/>
</g>
</g>
</g>
</g>
</g>
</g>
</g>
<defs>
<path id="path0_fill" fill-rule="evenodd" d="M 124.347 103.287C 112.607 122.983 91.3154 136.147 66.9978 136.147C 29.9959 136.147 0 105.669 0 68.0734C 0 30.4775 29.9959 0 66.9978 0C 90.531 0 111.231 12.3283 123.182 30.9754L 103.723 42.3906C 95.889 30.234 82.3661 22.2034 66.9978 22.2034C 42.7721 22.2034 23.1332 42.1575 23.1332 66.7723C 23.1332 91.3866 42.7721 111.341 66.9978 111.341C 82.356 111.341 95.8706 103.321 103.707 91.1785L 124.347 103.287Z"/>
<path id="path1_fill" d="M 22.3749 120.413L 3.62629e-07 120.413L 3.62629e-07 -9.40725e-08L 22.3749 -9.40725e-08L 22.3749 120.413ZM 79.2382 121.981C 66.9965 121.981 57.0177 118.165 49.3021 110.535C 41.638 102.905 37.8059 92.74 37.8059 80.0398L 37.8059 77.8447C 37.8059 69.3259 39.4262 61.7223 42.6667 55.0325C 45.9072 48.2906 50.4851 43.1164 56.4001 39.5104C 62.3667 35.8518 69.1569 34.0229 76.7694 34.0229C 88.1881 34.0229 97.1639 37.6815 103.696 44.9981C 110.28 52.3147 113.572 62.6888 113.572 76.1204L 113.572 85.3707L 60.4124 85.3707C 61.1323 90.9103 63.2927 95.3531 66.8935 98.6977C 70.5455 102.042 75.1488 103.715 80.7039 103.715C 89.2941 103.715 96.0066 100.553 100.842 94.2292L 111.798 106.694C 108.454 111.502 103.928 115.265 98.2181 117.982C 92.5088 120.648 86.1819 121.981 79.2382 121.981ZM 76.6922 52.3673C 72.2685 52.3673 68.6677 53.8829 65.8904 56.9141C 63.1644 59.9453 61.4155 64.2827 60.6438 69.927L 91.6599 69.927L 91.6599 68.1244C 91.5575 63.1069 90.2201 59.2395 87.6483 56.5217C 85.0765 53.7519 81.4244 52.3673 76.6922 52.3673ZM 174.679 120.413C 173.65 118.375 172.904 115.84 172.441 112.809C 167.041 118.923 160.02 121.981 151.378 121.981C 143.2 121.981 136.41 119.577 131.009 114.769C 125.66 109.961 122.985 103.898 122.985 96.581C 122.985 87.5921 126.252 80.6936 132.784 75.8854C 139.368 71.0772 148.858 68.6465 161.254 68.5945L 171.516 68.5945L 171.516 63.7343C 171.516 59.8143 170.512 56.6784 168.506 54.3267C 166.552 51.9749 163.44 50.7991 159.171 50.7991C 155.416 50.7991 152.458 51.7136 150.298 53.5432C 148.189 55.3722 147.135 57.8806 147.135 61.0685L 124.837 61.0685C 124.837 56.1563 126.329 51.6095 129.312 47.4281C 132.295 43.2474 136.513 39.9805 141.965 37.6288C 147.418 35.225 153.539 34.0229 160.328 34.0229C 170.615 34.0229 178.768 36.6623 184.786 41.9405C 190.856 47.1668 193.891 54.536 193.891 64.0477L 193.891 100.814C 193.942 108.863 195.048 114.951 197.209 119.08L 197.209 120.413L 174.679 120.413ZM 156.239 104.655C 159.531 104.655 162.566 103.924 165.344 102.46C 168.121 100.945 170.178 98.9327 171.516 96.4243L 171.516 81.8431L 163.183 81.8431C 152.021 81.8431 146.08 85.7631 145.36 93.6025L 145.283 94.935C 145.283 97.7569 146.26 100.083 148.215 101.912C 150.169 103.741 152.844 104.655 156.239 104.655ZM 231.542 35.5908L 232.236 45.3898C 238.204 37.8118 246.202 34.0229 256.232 34.0229C 265.079 34.0229 271.663 36.6623 275.983 41.9405C 280.304 47.2194 282.516 55.1108 282.619 65.6153L 282.619 120.413L 260.321 120.413L 260.321 66.1644C 260.321 61.3562 259.292 57.8806 257.235 55.7382C 255.177 53.5432 251.757 52.4457 246.973 52.4457C 240.698 52.4457 235.991 55.1628 232.854 60.5984L 232.854 120.413L 210.556 120.413L 210.556 35.5908L 231.542 35.5908ZM 323.125 120.413L 300.75 120.413L 300.75 35.5908L 323.125 35.5908L 323.125 120.413ZM 299.439 13.6405C 299.439 10.2434 300.544 7.44742 302.757 5.25238C 305.019 3.05733 308.08 1.95987 311.938 1.95987C 315.744 1.95987 318.779 3.05733 321.042 5.25238C 323.305 7.44742 324.437 10.2434 324.437 13.6405C 324.437 17.0898 323.279 19.912 320.965 22.107C 318.702 24.3021 315.693 25.3996 311.938 25.3996C 308.183 25.3996 305.148 24.3021 302.834 22.107C 300.57 19.912 299.439 17.0898 299.439 13.6405ZM 368.261 14.738L 368.261 35.5908L 382.534 35.5908L 382.534 52.21L 368.261 52.21L 368.261 94.5426C 368.261 97.6785 368.852 99.9262 370.036 101.284C 371.219 102.643 373.482 103.323 376.825 103.323C 379.294 103.323 381.48 103.14 383.383 102.774L 383.383 119.942C 379.011 121.301 374.51 121.981 369.881 121.981C 354.244 121.981 346.272 113.958 345.963 97.9136L 345.963 52.21L 333.773 52.21L 333.773 35.5908L 345.963 35.5908L 345.963 14.738L 368.261 14.738Z"/>
<path id="path2_fill" d="M 64.4436 28.0154L 54.5102 17.9256L 54.5102 6.27017C 54.5102 4.16271 52.8289 2.45478 50.751 2.45478C 48.678 2.45478 46.9966 4.16271 46.9966 6.27017L 46.9966 10.2939L 39.6003 2.78093C 35.9435 -0.931385 29.5856 -0.924803 25.9372 2.78765L 1.09966 28.0154C -0.366553 29.5076 -0.366553 31.9222 1.09966 33.4122C 2.56653 34.904 4.9483 34.904 6.41465 33.4122L 31.2498 8.18371C 32.0588 7.36625 33.4848 7.36625 34.2896 8.18127L 59.1289 33.4122C 59.8655 34.1581 60.8257 34.5292 61.7858 34.5292C 62.7477 34.5292 63.7098 34.1578 64.4436 33.4122C 65.9106 31.9223 65.9106 29.5078 64.4436 28.0154Z"/>
<path id="path3_fill" d="M 0 57.5952C 2.62036 57.1001 5.24072 56.7701 8.02487 56.7701C 23.0919 56.7701 36.03 65.8466 41.762 78.7189L 82.7051 37.4616C 65.5089 14.6876 38.4865 1.33992e-15 7.8611 1.33992e-15C 5.24072 1.33992e-15 2.62036 0.165029 0 0.330059L 0 57.5952Z"/>
<path id="path4_fill" d="M 0 20.1335C 2.62036 19.6385 5.24072 19.3084 8.02487 19.3084C 23.0919 19.3084 36.03 28.385 41.762 41.2573L 82.7051 0"/>
<path id="path5_fill" d="M 2.9479 0.990177C 4.57598 0.990177 5.89581 0.76852 5.89581 0.495088C 5.89581 0.221659 4.57598 6.50352e-15 2.9479 6.50352e-15C 1.31982 6.50352e-15 -1.70355e-14 0.221659 -1.70355e-14 0.495088C -1.70355e-14 0.76852 1.31982 0.990177 2.9479 0.990177Z"/>
<path id="path6_fill" d="M 0.491316 5.94106C 0.762662 5.94106 0.982635 4.6111 0.982635 2.97052C 0.982635 1.32995 0.762662 6.50352e-15 0.491316 6.50352e-15C 0.219969 6.50352e-15 -1.70355e-14 1.32995 -1.70355e-14 2.97052C -1.70355e-14 4.6111 0.219969 5.94106 0.491316 5.94106Z"/>
<path id="path7_fill" d="M 2.31784 0.653873C 3.59795 0.653873 4.63569 0.5075 4.63569 0.326938C 4.63569 0.146376 3.59795 -4.00643e-15 2.31784 -4.00643e-15C 1.03773 -4.00643e-15 1.08405e-14 0.146376 1.08405e-14 0.326938C 1.08405e-14 0.5075 1.03773 0.653873 2.31784 0.653873Z"/>
<path id="path8_fill" d="M 2.28547 0.662191C 3.5477 0.662191 4.57094 0.513954 4.57094 0.331094C 4.57094 0.148235 3.5477 -2.38025e-14 2.28547 -2.38025e-14C 1.02324 -2.38025e-14 2.14102e-15 0.148235 2.14102e-15 0.331094C 2.14102e-15 0.513954 1.02324 0.662191 2.28547 0.662191Z"/>
<path id="path9_fill" d="M 0.818864 1.65029C 1.27111 1.65029 1.63773 1.28086 1.63773 0.825147C 1.63773 0.369431 1.27111 -1.32911e-14 0.818864 -1.32911e-14C 0.366617 -1.32911e-14 1.70355e-14 0.369431 1.70355e-14 0.825147C 1.70355e-14 1.28086 0.366617 1.65029 0.818864 1.65029Z"/>
<path id="path10_fill" d="M 0.327888 0.660357C 0.508975 0.660357 0.655774 0.512531 0.655774 0.330178C 0.655774 0.147824 0.508975 2.54552e-14 0.327888 2.54552e-14C 0.1468 2.54552e-14 4.26332e-15 0.147824 4.26332e-15 0.330178C 4.26332e-15 0.512531 0.1468 0.660357 0.327888 0.660357Z"/>
<path id="path11_fill" d="M 0.327889 0.660358C 0.508976 0.660358 0.655774 0.512534 0.655774 0.330181C 0.655774 0.147828 0.508976 0 0.327889 0C 0.146801 0 8.24442e-15 0.147828 8.24442e-15 0.330181C 8.24442e-15 0.512534 0.146801 0.660358 0.327889 0.660358Z"/>
<path id="path12_fill" d="M 1.8015 3.63065C 2.79644 3.63065 3.603 2.81789 3.603 1.81532C 3.603 0.812744 2.79644 2.54459e-14 1.8015 2.54459e-14C 0.806557 2.54459e-14 1.70355e-14 0.812744 1.70355e-14 1.81532C 1.70355e-14 2.81789 0.806557 3.63065 1.8015 3.63065Z"/>
<path id="path13_fill" d="M 0.818862 1.65029C 1.27111 1.65029 1.63773 1.28086 1.63773 0.825145C 1.63773 0.369431 1.27111 2.54459e-14 0.818862 2.54459e-14C 0.366617 2.54459e-14 -8.23582e-15 0.369431 -8.23582e-15 0.825145C -8.23582e-15 1.28086 0.366617 1.65029 0.818862 1.65029Z"/>
<path id="path14_fill" d="M 1.1464 2.31041C 1.77955 2.31041 2.29281 1.79321 2.29281 1.15521C 2.29281 0.517204 1.77955 -2.54459e-14 1.1464 -2.54459e-14C 0.513262 -2.54459e-14 -8.23582e-15 0.517204 -8.23582e-15 1.15521C -8.23582e-15 1.79321 0.513262 2.31041 1.1464 2.31041Z"/>
<path id="path15_fill" d="M -6.1724e-07 17.7895L 17.5066 28.4003L 27.9507 10.6108L 10.4441 3.7629e-07L -6.1724e-07 17.7895Z"/>
<path id="path16_fill" d="M 24.9971 0.54941C 24.2754 -0.183137 23.1071 -0.183137 22.3876 0.54941L 0.540468 22.7337C 0.195547 23.0839 0 23.5621 0 24.0611L 0 40.2415C 9.64439e-07 50.1671 1.97243 48.3047 5.71033 48.3047L 17.5853 48.3047L 17.5853 30.1019L 29.7969 30.1019L 29.7969 47.1167L 40.6136 47.1167C 44.3514 47.1167 47.3823 44.0383 47.3823 40.2416L 47.3823 24.0611C 47.3823 23.5621 47.1884 23.0839 46.8418 22.7337L 24.9971 0.54941Z"/>
<path id="path17_fill" d="M 0 0L 17.8871 0L 17.8871 18.3028L 0 18.3028L 0 0Z"/>
<path id="path18_fill" d="M 2.94623 5.81646C 2.67093 5.22888 2.46191 4.71492 2.19122 4.2348C 2.06255 4.00654 1.84673 3.78876 1.6161 3.66057C 1.1279 3.38942 0.604006 3.18021 0 2.90191C 0.610803 2.61765 1.15169 2.38868 1.66733 2.11418C 1.86349 2.00982 2.05163 1.8273 2.15674 1.63478C 2.4301 1.13489 2.65515 0.609738 2.94453 0C 3.22735 0.591629 3.45386 1.1194 3.7311 1.62001C 3.84447 1.82445 4.03917 2.02221 4.24673 2.13253C 4.7529 2.40106 5.28821 2.6167 5.90969 2.89786C 5.31515 3.16616 4.7949 3.36583 4.3135 3.63293C 4.06854 3.76899 3.8367 3.99487 3.69856 4.23552C 3.42545 4.71207 3.22128 5.2265 2.94623 5.81646Z"/>
<path id="path19_fill" d="M 1.58653 3.13213C 1.43828 2.81573 1.32573 2.53897 1.17996 2.28042C 1.11067 2.15751 0.994457 2.04023 0.870263 1.9712C 0.607368 1.82519 0.325255 1.71253 0 1.56267C 0.328915 1.40959 0.62018 1.28629 0.897852 1.13848C 1.00348 1.08228 1.10479 0.983994 1.1614 0.880323C 1.3086 0.611133 1.42979 0.328341 1.58562 0C 1.73792 0.31859 1.85988 0.602793 2.00918 0.872366C 2.07023 0.982458 2.17507 1.08895 2.28685 1.14836C 2.55942 1.29297 2.84767 1.40908 3.18234 1.56049C 2.86219 1.70496 2.58203 1.81248 2.3228 1.95632C 2.19089 2.02958 2.06605 2.15122 1.99166 2.28081C 1.84459 2.53743 1.73465 2.81445 1.58653 3.13213Z"/>
<path id="path20_fill" d="M 1.21697 2.40255C 1.10326 2.15984 1.01691 1.94755 0.905108 1.74923C 0.85196 1.65495 0.762811 1.56499 0.667548 1.51204C 0.465891 1.40004 0.249491 1.31362 0 1.19867C 0.252299 1.08125 0.475717 0.986668 0.688708 0.873289C 0.769734 0.830182 0.847446 0.75479 0.890864 0.675264C 1.00378 0.468778 1.09674 0.251859 1.21627 0C 1.33309 0.244379 1.42665 0.462381 1.54117 0.669164C 1.588 0.753608 1.66842 0.835295 1.75416 0.880867C 1.96324 0.991788 2.18435 1.08086 2.44106 1.19699C 2.19548 1.30781 1.98058 1.39029 1.78174 1.50062C 1.68056 1.55682 1.58479 1.65012 1.52773 1.74953C 1.41492 1.94637 1.33059 2.15886 1.21697 2.40255Z"/>
<path id="path21_fill" d="M 0.78819 1.55605C 0.714544 1.39885 0.658621 1.26136 0.586207 1.13292C 0.551785 1.07185 0.494048 1.01359 0.432349 0.979298C 0.301741 0.906756 0.161587 0.850787 0 0.776337C 0.163406 0.700287 0.308106 0.639034 0.446053 0.565598C 0.498529 0.537679 0.548863 0.488851 0.576984 0.437346C 0.650112 0.303612 0.710318 0.16312 0.787734 0C 0.863398 0.158276 0.923995 0.299469 0.998162 0.433394C 1.02849 0.488086 1.08058 0.540993 1.13611 0.570507C 1.27152 0.642346 1.41473 0.700034 1.58099 0.77525C 1.42194 0.847027 1.28276 0.900442 1.15397 0.971903C 1.08844 1.0083 1.02641 1.06873 0.98946 1.13311C 0.916398 1.2606 0.861773 1.39822 0.78819 1.55605Z"/>
</defs>
</svg>
