<svg width="397" height="131" viewBox="0 0 397 131" version="1.1" xmlns="http://www.w3.org/2000/svg" xmlns:xlink="http://www.w3.org/1999/xlink" xmlns:figma="http://www.figma.com/figma/ns">
<title>Message-left-three</title>
<desc>Created using Figma</desc>
<g id="Canvas" transform="translate(-3456 -797)" figma:type="canvas">
<rect x="3456" y="797" width="397" height="131" fill="#E5E5E5"/>
<mask id="mask0_alpha" mask-type="alpha">
<path d="M 3025 -474L 4465 -474L 4465 2472L 3025 2472L 3025 -474Z" fill="#FFFFFF"/>
</mask>
<g id="Home 3" style="mix-blend-mode:normal;" mask="url(#mask0_alpha)" figma:type="frame">
<path d="M 3025 -474L 4465 -474L 4465 2472L 3025 2472L 3025 -474Z" fill="#FFFFFF"/>
<g id="Section 1" style="mix-blend-mode:normal;" figma:type="frame">
</g>
<g id="iMessage Thread" style="mix-blend-mode:normal;" figma:type="frame">
<g id="Message-left-three" style="mix-blend-mode:normal;" figma:type="frame">
<g id="Bubble" style="mix-blend-mode:normal;" figma:type="vector-operation">
<use xlink:href="#path0_fill" transform="matrix(-1 0 0 1 3852.58 797)" fill="#E5E5EA" style="mix-blend-mode:normal;"/>
</g>
<g id="Sure, that would be $80.00, would you like to move foward?" style="mix-blend-mode:normal;" figma:type="text">
<use xlink:href="#path1_fill" transform="translate(3507.58 811.5)" style="mix-blend-mode:normal;"/>
</g>
</g>
</g>
</g>
</g>
<defs>
<path id="path0_fill" fill-rule="evenodd" d="M 34 0C 15.2224 0 0 15.2223 0 34L 0 83C 0 101.778 15.2224 117 34 117L 346 117C 347.988 117 349.935 116.829 351.829 116.502C 362.845 125.488 377.251 130.914 393.253 130.914C 393.299 130.914 393.394 130.912 393.529 130.909C 394.091 130.897 395.342 130.869 396.582 130.914C 385.561 126.816 377.562 116.831 376.608 104.171L 376.608 97.8222C 378.781 93.3424 380 88.3135 380 83L 380 34C 380 15.2223 364.778 0 346 0L 34 0Z"/>
<path id="path1_fill" d="M 3.792 17.688C 3.792 18.344 3.904 18.904 4.128 19.368C 4.352 19.832 4.664 20.216 5.064 20.52C 5.464 20.808 5.92 21.024 6.432 21.168C 6.96 21.296 7.528 21.36 8.136 21.36C 8.792 21.36 9.352 21.288 9.816 21.144C 10.28 20.984 10.656 20.784 10.944 20.544C 11.232 20.304 11.44 20.032 11.568 19.728C 11.696 19.408 11.76 19.088 11.76 18.768C 11.76 18.112 11.608 17.632 11.304 17.328C 11.016 17.008 10.696 16.784 10.344 16.656C 9.736 16.432 9.024 16.224 8.208 16.032C 7.408 15.824 6.416 15.56 5.232 15.24C 4.496 15.048 3.88 14.8 3.384 14.496C 2.904 14.176 2.52 13.824 2.232 13.44C 1.944 13.056 1.736 12.648 1.608 12.216C 1.496 11.784 1.44 11.344 1.44 10.896C 1.44 10.032 1.616 9.288 1.968 8.664C 2.336 8.024 2.816 7.496 3.408 7.08C 4 6.664 4.672 6.36 5.424 6.168C 6.176 5.96 6.936 5.856 7.704 5.856C 8.6 5.856 9.44 5.976 10.224 6.216C 11.024 6.44 11.72 6.784 12.312 7.248C 12.92 7.712 13.4 8.288 13.752 8.976C 14.104 9.648 14.28 10.432 14.28 11.328L 11.28 11.328C 11.2 10.224 10.824 9.448 10.152 9C 9.48 8.536 8.624 8.304 7.584 8.304C 7.232 8.304 6.872 8.344 6.504 8.424C 6.136 8.488 5.8 8.608 5.496 8.784C 5.192 8.944 4.936 9.168 4.728 9.456C 4.536 9.744 4.44 10.104 4.44 10.536C 4.44 11.144 4.624 11.624 4.992 11.976C 5.376 12.312 5.872 12.568 6.48 12.744C 6.544 12.76 6.792 12.832 7.224 12.96C 7.672 13.072 8.168 13.2 8.712 13.344C 9.256 13.488 9.784 13.632 10.296 13.776C 10.824 13.904 11.2 14 11.424 14.064C 11.984 14.24 12.472 14.48 12.888 14.784C 13.304 15.088 13.648 15.44 13.92 15.84C 14.208 16.224 14.416 16.64 14.544 17.088C 14.688 17.536 14.76 17.984 14.76 18.432C 14.76 19.392 14.56 20.216 14.16 20.904C 13.776 21.576 13.264 22.128 12.624 22.56C 11.984 22.992 11.256 23.304 10.44 23.496C 9.624 23.704 8.792 23.808 7.944 23.808C 6.968 23.808 6.048 23.688 5.184 23.448C 4.32 23.208 3.568 22.84 2.928 22.344C 2.288 21.848 1.776 21.216 1.392 20.448C 1.008 19.664 0.808 18.744 0.792 17.688L 3.792 17.688ZM 27.8985 23.4L 25.2105 23.4L 25.2105 21.672L 25.1625 21.672C 24.8265 22.296 24.3225 22.8 23.6505 23.184C 22.9945 23.552 22.3225 23.736 21.6345 23.736C 20.0025 23.736 18.8185 23.336 18.0825 22.536C 17.3625 21.72 17.0025 20.496 17.0025 18.864L 17.0025 10.992L 19.7385 10.992L 19.7385 18.6C 19.7385 19.688 19.9465 20.456 20.3625 20.904C 20.7785 21.352 21.3625 21.576 22.1145 21.576C 22.6905 21.576 23.1705 21.488 23.5545 21.312C 23.9385 21.136 24.2505 20.904 24.4905 20.616C 24.7305 20.312 24.8985 19.952 24.9945 19.536C 25.1065 19.12 25.1625 18.672 25.1625 18.192L 25.1625 10.992L 27.8985 10.992L 27.8985 23.4ZM 30.7837 10.992L 33.3517 10.992L 33.3517 13.392L 33.3997 13.392C 33.4797 13.056 33.6317 12.728 33.8557 12.408C 34.0957 12.088 34.3758 11.8 34.6958 11.544C 35.0318 11.272 35.3998 11.056 35.7997 10.896C 36.1998 10.736 36.6077 10.656 37.0237 10.656C 37.3438 10.656 37.5598 10.664 37.6718 10.68C 37.7998 10.696 37.9278 10.712 38.0558 10.728L 38.0558 13.368C 37.8637 13.336 37.6637 13.312 37.4557 13.296C 37.2638 13.264 37.0717 13.248 36.8798 13.248C 36.4158 13.248 35.9757 13.344 35.5598 13.536C 35.1598 13.712 34.8077 13.984 34.5038 14.352C 34.1997 14.704 33.9598 15.144 33.7838 15.672C 33.6077 16.2 33.5197 16.808 33.5197 17.496L 33.5197 23.4L 30.7837 23.4L 30.7837 10.992ZM 47.5303 16.104C 47.4983 15.672 47.4023 15.256 47.2423 14.856C 47.0983 14.456 46.8903 14.112 46.6183 13.824C 46.3623 13.52 46.0423 13.28 45.6583 13.104C 45.2903 12.912 44.8743 12.816 44.4103 12.816C 43.9303 12.816 43.4903 12.904 43.0903 13.08C 42.7063 13.24 42.3703 13.472 42.0823 13.776C 41.8103 14.064 41.5863 14.408 41.4103 14.808C 41.2503 15.208 41.1623 15.64 41.1463 16.104L 47.5303 16.104ZM 41.1463 17.904C 41.1463 18.384 41.2103 18.848 41.3383 19.296C 41.4823 19.744 41.6903 20.136 41.9623 20.472C 42.2343 20.808 42.5783 21.08 42.9943 21.288C 43.4103 21.48 43.9063 21.576 44.4823 21.576C 45.2823 21.576 45.9223 21.408 46.4023 21.072C 46.8983 20.72 47.2663 20.2 47.5063 19.512L 50.0983 19.512C 49.9543 20.184 49.7063 20.784 49.3543 21.312C 49.0023 21.84 48.5783 22.288 48.0823 22.656C 47.5863 23.008 47.0263 23.272 46.4023 23.448C 45.7943 23.64 45.1543 23.736 44.4823 23.736C 43.5063 23.736 42.6423 23.576 41.8903 23.256C 41.1383 22.936 40.4983 22.488 39.9703 21.912C 39.4583 21.336 39.0663 20.648 38.7943 19.848C 38.5383 19.048 38.4103 18.168 38.4103 17.208C 38.4103 16.328 38.5463 15.496 38.8183 14.712C 39.1063 13.912 39.5063 13.216 40.0183 12.624C 40.5463 12.016 41.1783 11.536 41.9143 11.184C 42.6503 10.832 43.4823 10.656 44.4103 10.656C 45.3863 10.656 46.2583 10.864 47.0263 11.28C 47.8103 11.68 48.4583 12.216 48.9703 12.888C 49.4823 13.56 49.8503 14.336 50.0743 15.216C 50.3143 16.08 50.3783 16.976 50.2663 17.904L 41.1463 17.904ZM 52.3513 20.16L 55.6873 20.16L 55.6873 23.4C 55.6713 24.392 55.3673 25.224 54.7753 25.896C 54.1833 26.568 53.4073 27 52.4473 27.192L 52.4473 25.728C 52.9753 25.6 53.3673 25.304 53.6233 24.84C 53.8953 24.392 54.0233 23.912 54.0073 23.4L 52.3513 23.4L 52.3513 20.16ZM 64.2467 10.992L 66.3107 10.992L 66.3107 7.272L 69.0467 7.272L 69.0467 10.992L 71.5187 10.992L 71.5187 13.032L 69.0467 13.032L 69.0467 19.656C 69.0467 19.944 69.0547 20.192 69.0707 20.4C 69.1027 20.608 69.1587 20.784 69.2387 20.928C 69.3347 21.072 69.4707 21.184 69.6467 21.264C 69.8227 21.328 70.0627 21.36 70.3667 21.36C 70.5587 21.36 70.7507 21.36 70.9427 21.36C 71.1347 21.344 71.3267 21.312 71.5187 21.264L 71.5187 23.376C 71.2147 23.408 70.9187 23.44 70.6307 23.472C 70.3427 23.504 70.0467 23.52 69.7427 23.52C 69.0227 23.52 68.4387 23.456 67.9907 23.328C 67.5587 23.184 67.2147 22.984 66.9587 22.728C 66.7187 22.456 66.5507 22.12 66.4547 21.72C 66.3747 21.32 66.3267 20.864 66.3107 20.352L 66.3107 13.032L 64.2467 13.032L 64.2467 10.992ZM 73.4869 6.264L 76.2229 6.264L 76.2229 12.624L 76.2709 12.624C 76.6069 12.064 77.1029 11.6 77.7589 11.232C 78.4309 10.848 79.1749 10.656 79.9909 10.656C 81.3509 10.656 82.4229 11.008 83.2069 11.712C 83.9909 12.416 84.3829 13.472 84.3829 14.88L 84.3829 23.4L 81.6469 23.4L 81.6469 15.6C 81.6149 14.624 81.4069 13.92 81.0229 13.488C 80.6389 13.04 80.0389 12.816 79.2229 12.816C 78.7589 12.816 78.3429 12.904 77.9749 13.08C 77.6069 13.24 77.2949 13.472 77.0389 13.776C 76.7829 14.064 76.5829 14.408 76.4389 14.808C 76.2949 15.208 76.2229 15.632 76.2229 16.08L 76.2229 23.4L 73.4869 23.4L 73.4869 6.264ZM 97.6601 20.64C 97.6601 20.976 97.7001 21.216 97.7801 21.36C 97.8761 21.504 98.0521 21.576 98.3081 21.576C 98.3881 21.576 98.4841 21.576 98.5961 21.576C 98.7081 21.576 98.8361 21.56 98.9801 21.528L 98.9801 23.424C 98.8841 23.456 98.7561 23.488 98.5961 23.52C 98.4521 23.568 98.3001 23.608 98.1401 23.64C 97.9801 23.672 97.8201 23.696 97.6601 23.712C 97.5001 23.728 97.3641 23.736 97.2521 23.736C 96.6921 23.736 96.2281 23.624 95.8601 23.4C 95.4921 23.176 95.2521 22.784 95.1401 22.224C 94.5961 22.752 93.9241 23.136 93.1241 23.376C 92.3401 23.616 91.5801 23.736 90.8441 23.736C 90.2841 23.736 89.7481 23.656 89.2361 23.496C 88.7241 23.352 88.2681 23.136 87.8681 22.848C 87.4841 22.544 87.1721 22.168 86.9321 21.72C 86.7081 21.256 86.5961 20.72 86.5961 20.112C 86.5961 19.344 86.7321 18.72 87.0041 18.24C 87.2921 17.76 87.6601 17.384 88.1081 17.112C 88.5721 16.84 89.0841 16.648 89.6441 16.536C 90.2201 16.408 90.7961 16.312 91.3721 16.248C 91.8681 16.152 92.3401 16.088 92.7881 16.056C 93.2361 16.008 93.6281 15.936 93.9641 15.84C 94.3161 15.744 94.5881 15.6 94.7801 15.408C 94.9881 15.2 95.0921 14.896 95.0921 14.496C 95.0921 14.144 95.0041 13.856 94.8281 13.632C 94.6681 13.408 94.4601 13.24 94.2041 13.128C 93.9641 13 93.6921 12.92 93.3881 12.888C 93.0841 12.84 92.7961 12.816 92.5241 12.816C 91.7561 12.816 91.1241 12.976 90.6281 13.296C 90.1321 13.616 89.8521 14.112 89.7881 14.784L 87.0521 14.784C 87.1001 13.984 87.2921 13.32 87.6281 12.792C 87.9641 12.264 88.3881 11.84 88.9001 11.52C 89.4281 11.2 90.0201 10.976 90.6761 10.848C 91.3321 10.72 92.0041 10.656 92.6921 10.656C 93.3001 10.656 93.9001 10.72 94.4921 10.848C 95.0841 10.976 95.6121 11.184 96.0761 11.472C 96.5561 11.76 96.9401 12.136 97.2281 12.6C 97.5161 13.048 97.6601 13.6 97.6601 14.256L 97.6601 20.64ZM 94.9241 17.184C 94.5081 17.456 93.9961 17.624 93.3881 17.688C 92.7801 17.736 92.1721 17.816 91.5641 17.928C 91.2761 17.976 90.9961 18.048 90.7241 18.144C 90.4521 18.224 90.2121 18.344 90.0041 18.504C 89.7961 18.648 89.6281 18.848 89.5001 19.104C 89.3881 19.344 89.3321 19.64 89.3321 19.992C 89.3321 20.296 89.4201 20.552 89.5961 20.76C 89.7721 20.968 89.9801 21.136 90.2201 21.264C 90.4761 21.376 90.7481 21.456 91.0361 21.504C 91.3401 21.552 91.6121 21.576 91.8521 21.576C 92.1561 21.576 92.4841 21.536 92.8361 21.456C 93.1881 21.376 93.5161 21.24 93.8201 21.048C 94.1401 20.856 94.4041 20.616 94.6121 20.328C 94.8201 20.024 94.9241 19.656 94.9241 19.224L 94.9241 17.184ZM 99.3561 10.992L 101.42 10.992L 101.42 7.272L 104.156 7.272L 104.156 10.992L 106.628 10.992L 106.628 13.032L 104.156 13.032L 104.156 19.656C 104.156 19.944 104.164 20.192 104.18 20.4C 104.212 20.608 104.268 20.784 104.348 20.928C 104.444 21.072 104.58 21.184 104.756 21.264C 104.932 21.328 105.172 21.36 105.476 21.36C 105.668 21.36 105.86 21.36 106.052 21.36C 106.244 21.344 106.436 21.312 106.628 21.264L 106.628 23.376C 106.324 23.408 106.028 23.44 105.74 23.472C 105.452 23.504 105.156 23.52 104.852 23.52C 104.132 23.52 103.548 23.456 103.1 23.328C 102.668 23.184 102.324 22.984 102.068 22.728C 101.828 22.456 101.66 22.12 101.564 21.72C 101.484 21.32 101.436 20.864 101.42 20.352L 101.42 13.032L 99.3561 13.032L 99.3561 10.992ZM 114.148 10.992L 117.052 10.992L 119.476 20.256L 119.524 20.256L 121.852 10.992L 124.612 10.992L 126.844 20.256L 126.892 20.256L 129.412 10.992L 132.196 10.992L 128.308 23.4L 125.5 23.4L 123.196 14.184L 123.148 14.184L 120.868 23.4L 117.988 23.4L 114.148 10.992ZM 139.644 23.736C 138.652 23.736 137.764 23.576 136.98 23.256C 136.212 22.92 135.556 22.464 135.012 21.888C 134.484 21.312 134.076 20.624 133.788 19.824C 133.516 19.024 133.38 18.144 133.38 17.184C 133.38 16.24 133.516 15.368 133.788 14.568C 134.076 13.768 134.484 13.08 135.012 12.504C 135.556 11.928 136.212 11.48 136.98 11.16C 137.764 10.824 138.652 10.656 139.644 10.656C 140.636 10.656 141.516 10.824 142.284 11.16C 143.068 11.48 143.724 11.928 144.252 12.504C 144.796 13.08 145.204 13.768 145.476 14.568C 145.764 15.368 145.908 16.24 145.908 17.184C 145.908 18.144 145.764 19.024 145.476 19.824C 145.204 20.624 144.796 21.312 144.252 21.888C 143.724 22.464 143.068 22.92 142.284 23.256C 141.516 23.576 140.636 23.736 139.644 23.736ZM 139.644 21.576C 140.252 21.576 140.78 21.448 141.228 21.192C 141.676 20.936 142.044 20.6 142.332 20.184C 142.62 19.768 142.828 19.304 142.956 18.792C 143.1 18.264 143.172 17.728 143.172 17.184C 143.172 16.656 143.1 16.128 142.956 15.6C 142.828 15.072 142.62 14.608 142.332 14.208C 142.044 13.792 141.676 13.456 141.228 13.2C 140.78 12.944 140.252 12.816 139.644 12.816C 139.036 12.816 138.508 12.944 138.06 13.2C 137.612 13.456 137.244 13.792 136.956 14.208C 136.668 14.608 136.452 15.072 136.308 15.6C 136.18 16.128 136.116 16.656 136.116 17.184C 136.116 17.728 136.18 18.264 136.308 18.792C 136.452 19.304 136.668 19.768 136.956 20.184C 137.244 20.6 137.612 20.936 138.06 21.192C 138.508 21.448 139.036 21.576 139.644 21.576ZM 159.078 23.4L 156.39 23.4L 156.39 21.672L 156.342 21.672C 156.006 22.296 155.502 22.8 154.83 23.184C 154.174 23.552 153.502 23.736 152.814 23.736C 151.182 23.736 149.998 23.336 149.262 22.536C 148.542 21.72 148.182 20.496 148.182 18.864L 148.182 10.992L 150.918 10.992L 150.918 18.6C 150.918 19.688 151.126 20.456 151.542 20.904C 151.958 21.352 152.542 21.576 153.294 21.576C 153.87 21.576 154.35 21.488 154.734 21.312C 155.118 21.136 155.43 20.904 155.67 20.616C 155.91 20.312 156.078 19.952 156.174 19.536C 156.286 19.12 156.342 18.672 156.342 18.192L 156.342 10.992L 159.078 10.992L 159.078 23.4ZM 162.035 6.264L 164.771 6.264L 164.771 23.4L 162.035 23.4L 162.035 6.264ZM 179.44 23.4L 176.849 23.4L 176.849 21.72L 176.801 21.72C 176.432 22.44 175.896 22.96 175.193 23.28C 174.489 23.584 173.744 23.736 172.961 23.736C 171.985 23.736 171.128 23.568 170.393 23.232C 169.673 22.88 169.073 22.408 168.592 21.816C 168.113 21.224 167.752 20.528 167.513 19.728C 167.272 18.912 167.153 18.04 167.153 17.112C 167.153 15.992 167.304 15.024 167.609 14.208C 167.913 13.392 168.313 12.72 168.809 12.192C 169.321 11.664 169.896 11.28 170.536 11.04C 171.192 10.784 171.857 10.656 172.529 10.656C 172.913 10.656 173.305 10.696 173.704 10.776C 174.105 10.84 174.489 10.952 174.857 11.112C 175.224 11.272 175.56 11.48 175.865 11.736C 176.184 11.976 176.448 12.264 176.656 12.6L 176.704 12.6L 176.704 6.264L 179.44 6.264L 179.44 23.4ZM 169.889 17.328C 169.889 17.856 169.953 18.376 170.081 18.888C 170.225 19.4 170.433 19.856 170.704 20.256C 170.992 20.656 171.352 20.976 171.785 21.216C 172.217 21.456 172.728 21.576 173.32 21.576C 173.929 21.576 174.448 21.448 174.88 21.192C 175.329 20.936 175.688 20.6 175.961 20.184C 176.249 19.768 176.457 19.304 176.585 18.792C 176.728 18.264 176.801 17.728 176.801 17.184C 176.801 15.808 176.488 14.736 175.865 13.968C 175.256 13.2 174.424 12.816 173.368 12.816C 172.728 12.816 172.184 12.952 171.736 13.224C 171.305 13.48 170.945 13.824 170.656 14.256C 170.384 14.672 170.185 15.152 170.057 15.696C 169.944 16.224 169.889 16.768 169.889 17.328ZM 189.176 6.264L 191.912 6.264L 191.912 12.6L 191.96 12.6C 192.152 12.296 192.384 12.024 192.656 11.784C 192.928 11.544 193.224 11.344 193.544 11.184C 193.88 11.008 194.224 10.88 194.576 10.8C 194.944 10.704 195.304 10.656 195.656 10.656C 196.632 10.656 197.48 10.832 198.2 11.184C 198.936 11.52 199.544 11.992 200.024 12.6C 200.504 13.192 200.864 13.888 201.104 14.688C 201.344 15.488 201.464 16.344 201.464 17.256C 201.464 18.088 201.352 18.896 201.128 19.68C 200.92 20.464 200.592 21.16 200.144 21.768C 199.712 22.36 199.16 22.84 198.488 23.208C 197.816 23.56 197.024 23.736 196.112 23.736C 195.696 23.736 195.272 23.704 194.84 23.64C 194.424 23.592 194.024 23.488 193.64 23.328C 193.256 23.168 192.904 22.96 192.584 22.704C 192.28 22.448 192.024 22.112 191.816 21.696L 191.768 21.696L 191.768 23.4L 189.176 23.4L 189.176 6.264ZM 198.728 17.208C 198.728 16.648 198.656 16.104 198.512 15.576C 198.368 15.048 198.152 14.584 197.864 14.184C 197.576 13.768 197.216 13.44 196.784 13.2C 196.352 12.944 195.856 12.816 195.296 12.816C 194.144 12.816 193.272 13.216 192.68 14.016C 192.104 14.816 191.816 15.88 191.816 17.208C 191.816 17.832 191.888 18.416 192.032 18.96C 192.192 19.488 192.424 19.944 192.728 20.328C 193.032 20.712 193.392 21.016 193.808 21.24C 194.24 21.464 194.736 21.576 195.296 21.576C 195.92 21.576 196.448 21.448 196.88 21.192C 197.312 20.936 197.664 20.608 197.936 20.208C 198.224 19.792 198.424 19.328 198.536 18.816C 198.664 18.288 198.728 17.752 198.728 17.208ZM 212.296 16.104C 212.264 15.672 212.168 15.256 212.008 14.856C 211.864 14.456 211.656 14.112 211.384 13.824C 211.128 13.52 210.808 13.28 210.424 13.104C 210.056 12.912 209.64 12.816 209.176 12.816C 208.696 12.816 208.256 12.904 207.856 13.08C 207.472 13.24 207.136 13.472 206.848 13.776C 206.576 14.064 206.352 14.408 206.176 14.808C 206.016 15.208 205.928 15.64 205.912 16.104L 212.296 16.104ZM 205.912 17.904C 205.912 18.384 205.976 18.848 206.104 19.296C 206.248 19.744 206.456 20.136 206.728 20.472C 207 20.808 207.344 21.08 207.76 21.288C 208.176 21.48 208.672 21.576 209.248 21.576C 210.048 21.576 210.688 21.408 211.168 21.072C 211.664 20.72 212.032 20.2 212.272 19.512L 214.864 19.512C 214.72 20.184 214.472 20.784 214.12 21.312C 213.768 21.84 213.344 22.288 212.848 22.656C 212.352 23.008 211.792 23.272 211.168 23.448C 210.56 23.64 209.92 23.736 209.248 23.736C 208.272 23.736 207.408 23.576 206.656 23.256C 205.904 22.936 205.264 22.488 204.736 21.912C 204.224 21.336 203.832 20.648 203.56 19.848C 203.304 19.048 203.176 18.168 203.176 17.208C 203.176 16.328 203.312 15.496 203.584 14.712C 203.872 13.912 204.272 13.216 204.784 12.624C 205.312 12.016 205.944 11.536 206.68 11.184C 207.416 10.832 208.248 10.656 209.176 10.656C 210.152 10.656 211.024 10.864 211.792 11.28C 212.576 11.68 213.224 12.216 213.736 12.888C 214.248 13.56 214.616 14.336 214.84 15.216C 215.08 16.08 215.144 16.976 215.032 17.904L 205.912 17.904ZM 228.568 8.016C 227.704 8.016 227.032 8.2 226.552 8.568C 226.088 8.92 225.856 9.52 225.856 10.368C 225.856 10.752 225.936 11.08 226.096 11.352C 226.256 11.624 226.456 11.856 226.696 12.048C 226.952 12.24 227.24 12.4 227.56 12.528C 227.896 12.64 228.232 12.736 228.568 12.816L 228.568 8.016ZM 225.496 18.192C 225.48 19.248 225.712 20.08 226.192 20.688C 226.672 21.296 227.464 21.616 228.568 21.648L 228.568 15.84C 227.912 15.664 227.256 15.456 226.6 15.216C 225.96 14.96 225.376 14.64 224.848 14.256C 224.336 13.856 223.92 13.36 223.6 12.768C 223.28 12.176 223.12 11.44 223.12 10.56C 223.12 9.792 223.264 9.12 223.552 8.544C 223.856 7.952 224.256 7.464 224.752 7.08C 225.264 6.68 225.848 6.376 226.504 6.168C 227.16 5.96 227.848 5.856 228.568 5.856L 228.568 3.984L 229.6 3.984L 229.6 5.856C 230.32 5.856 231 5.952 231.64 6.144C 232.28 6.336 232.832 6.624 233.296 7.008C 233.776 7.392 234.152 7.88 234.424 8.472C 234.712 9.064 234.856 9.752 234.856 10.536L 232.12 10.536C 232.088 9.72 231.872 9.096 231.472 8.664C 231.088 8.232 230.464 8.016 229.6 8.016L 229.6 13.08C 230.32 13.272 231.024 13.496 231.712 13.752C 232.4 14.008 233.008 14.336 233.536 14.736C 234.064 15.136 234.488 15.632 234.808 16.224C 235.128 16.816 235.288 17.544 235.288 18.408C 235.288 19.304 235.136 20.088 234.832 20.76C 234.544 21.416 234.144 21.968 233.632 22.416C 233.12 22.848 232.52 23.176 231.832 23.4C 231.144 23.64 230.4 23.776 229.6 23.808L 229.6 25.68L 228.568 25.68L 228.568 23.808C 227.704 23.792 226.912 23.656 226.192 23.4C 225.472 23.144 224.856 22.784 224.344 22.32C 223.832 21.84 223.432 21.256 223.144 20.568C 222.872 19.88 222.744 19.088 222.76 18.192L 225.496 18.192ZM 229.6 21.648C 230.464 21.584 231.168 21.336 231.712 20.904C 232.272 20.456 232.552 19.752 232.552 18.792C 232.552 18.344 232.464 17.968 232.288 17.664C 232.128 17.36 231.904 17.104 231.616 16.896C 231.344 16.688 231.032 16.52 230.68 16.392C 230.328 16.264 229.968 16.152 229.6 16.056L 229.6 21.648ZM 242.359 8.424C 241.623 8.424 241 8.648 240.488 9.096C 239.975 9.528 239.719 10.16 239.719 10.992C 239.719 11.792 239.967 12.408 240.464 12.84C 240.959 13.256 241.592 13.464 242.359 13.464C 243.128 13.464 243.76 13.256 244.255 12.84C 244.751 12.408 245 11.792 245 10.992C 245 10.16 244.744 9.528 244.232 9.096C 243.72 8.648 243.096 8.424 242.359 8.424ZM 242.359 23.736C 241.511 23.736 240.72 23.616 239.984 23.376C 239.264 23.136 238.64 22.792 238.112 22.344C 237.584 21.88 237.168 21.32 236.863 20.664C 236.576 20.008 236.431 19.272 236.431 18.456C 236.431 17.4 236.704 16.512 237.247 15.792C 237.807 15.072 238.559 14.592 239.503 14.352L 239.503 14.304C 238.736 14.016 238.143 13.576 237.728 12.984C 237.328 12.376 237.127 11.664 237.127 10.848C 237.127 9.408 237.575 8.288 238.471 7.488C 239.383 6.672 240.68 6.264 242.359 6.264C 244.039 6.264 245.328 6.672 246.224 7.488C 247.135 8.288 247.591 9.408 247.591 10.848C 247.591 11.664 247.383 12.376 246.967 12.984C 246.568 13.576 245.983 14.016 245.216 14.304L 245.216 14.352C 246.159 14.592 246.904 15.072 247.448 15.792C 248.007 16.512 248.287 17.4 248.287 18.456C 248.287 19.272 248.136 20.008 247.831 20.664C 247.543 21.32 247.135 21.88 246.608 22.344C 246.079 22.792 245.447 23.136 244.711 23.376C 243.991 23.616 243.207 23.736 242.359 23.736ZM 242.359 21.576C 243.272 21.576 244.032 21.304 244.639 20.76C 245.248 20.216 245.552 19.448 245.552 18.456C 245.552 17.528 245.248 16.808 244.639 16.296C 244.032 15.768 243.272 15.504 242.359 15.504C 241.447 15.504 240.687 15.768 240.079 16.296C 239.472 16.808 239.167 17.528 239.167 18.456C 239.167 19.448 239.472 20.216 240.079 20.76C 240.687 21.304 241.447 21.576 242.359 21.576ZM 255.695 6.264C 256.895 6.264 257.871 6.544 258.623 7.104C 259.391 7.648 259.983 8.352 260.399 9.216C 260.831 10.064 261.119 11 261.263 12.024C 261.423 13.048 261.503 14.04 261.503 15C 261.503 15.96 261.423 16.952 261.263 17.976C 261.119 19 260.831 19.944 260.399 20.808C 259.983 21.656 259.391 22.36 258.623 22.92C 257.871 23.464 256.895 23.736 255.695 23.736C 254.495 23.736 253.511 23.464 252.743 22.92C 251.991 22.36 251.399 21.656 250.967 20.808C 250.551 19.944 250.263 19 250.103 17.976C 249.959 16.952 249.887 15.96 249.887 15C 249.887 14.04 249.959 13.048 250.103 12.024C 250.263 11 250.551 10.064 250.967 9.216C 251.399 8.352 251.991 7.648 252.743 7.104C 253.511 6.544 254.495 6.264 255.695 6.264ZM 255.695 21.456C 256.287 21.456 256.783 21.288 257.183 20.952C 257.583 20.6 257.895 20.136 258.119 19.56C 258.359 18.968 258.527 18.28 258.623 17.496C 258.719 16.712 258.767 15.88 258.767 15C 258.767 14.12 258.719 13.296 258.623 12.528C 258.527 11.744 258.359 11.056 258.119 10.464C 257.895 9.872 257.583 9.408 257.183 9.072C 256.783 8.72 256.287 8.544 255.695 8.544C 255.087 8.544 254.583 8.72 254.183 9.072C 253.799 9.408 253.487 9.872 253.247 10.464C 253.023 11.056 252.863 11.744 252.767 12.528C 252.671 13.296 252.623 14.12 252.623 15C 252.623 15.88 252.671 16.712 252.767 17.496C 252.863 18.28 253.023 18.968 253.247 19.56C 253.487 20.136 253.799 20.6 254.183 20.952C 254.583 21.288 255.087 21.456 255.695 21.456ZM 264.015 20.16L 267.351 20.16L 267.351 23.4L 264.015 23.4L 264.015 20.16ZM 275.711 6.264C 276.911 6.264 277.887 6.544 278.639 7.104C 279.407 7.648 279.999 8.352 280.415 9.216C 280.847 10.064 281.135 11 281.279 12.024C 281.439 13.048 281.519 14.04 281.519 15C 281.519 15.96 281.439 16.952 281.279 17.976C 281.135 19 280.847 19.944 280.415 20.808C 279.999 21.656 279.407 22.36 278.639 22.92C 277.887 23.464 276.911 23.736 275.711 23.736C 274.511 23.736 273.527 23.464 272.759 22.92C 272.007 22.36 271.415 21.656 270.983 20.808C 270.567 19.944 270.279 19 270.119 17.976C 269.975 16.952 269.903 15.96 269.903 15C 269.903 14.04 269.975 13.048 270.119 12.024C 270.279 11 270.567 10.064 270.983 9.216C 271.415 8.352 272.007 7.648 272.759 7.104C 273.527 6.544 274.511 6.264 275.711 6.264ZM 275.711 21.456C 276.303 21.456 276.799 21.288 277.199 20.952C 277.599 20.6 277.911 20.136 278.135 19.56C 278.375 18.968 278.543 18.28 278.639 17.496C 278.735 16.712 278.783 15.88 278.783 15C 278.783 14.12 278.735 13.296 278.639 12.528C 278.543 11.744 278.375 11.056 278.135 10.464C 277.911 9.872 277.599 9.408 277.199 9.072C 276.799 8.72 276.303 8.544 275.711 8.544C 275.103 8.544 274.599 8.72 274.199 9.072C 273.815 9.408 273.503 9.872 273.263 10.464C 273.039 11.056 272.879 11.744 272.783 12.528C 272.687 13.296 272.639 14.12 272.639 15C 272.639 15.88 272.687 16.712 272.783 17.496C 272.879 18.28 273.039 18.968 273.263 19.56C 273.503 20.136 273.815 20.6 274.199 20.952C 274.599 21.288 275.103 21.456 275.711 21.456ZM 289.047 6.264C 290.247 6.264 291.223 6.544 291.975 7.104C 292.743 7.648 293.335 8.352 293.751 9.216C 294.183 10.064 294.471 11 294.615 12.024C 294.775 13.048 294.855 14.04 294.855 15C 294.855 15.96 294.775 16.952 294.615 17.976C 294.471 19 294.183 19.944 293.751 20.808C 293.335 21.656 292.743 22.36 291.975 22.92C 291.223 23.464 290.247 23.736 289.047 23.736C 287.847 23.736 286.863 23.464 286.095 22.92C 285.343 22.36 284.751 21.656 284.319 20.808C 283.903 19.944 283.615 19 283.455 17.976C 283.311 16.952 283.239 15.96 283.239 15C 283.239 14.04 283.311 13.048 283.455 12.024C 283.615 11 283.903 10.064 284.319 9.216C 284.751 8.352 285.343 7.648 286.095 7.104C 286.863 6.544 287.847 6.264 289.047 6.264ZM 289.047 21.456C 289.639 21.456 290.135 21.288 290.535 20.952C 290.935 20.6 291.247 20.136 291.471 19.56C 291.711 18.968 291.879 18.28 291.975 17.496C 292.071 16.712 292.119 15.88 292.119 15C 292.119 14.12 292.071 13.296 291.975 12.528C 291.879 11.744 291.711 11.056 291.471 10.464C 291.247 9.872 290.935 9.408 290.535 9.072C 290.135 8.72 289.639 8.544 289.047 8.544C 288.439 8.544 287.935 8.72 287.535 9.072C 287.151 9.408 286.839 9.872 286.599 10.464C 286.375 11.056 286.215 11.744 286.119 12.528C 286.023 13.296 285.975 14.12 285.975 15C 285.975 15.88 286.023 16.712 286.119 17.496C 286.215 18.28 286.375 18.968 286.599 19.56C 286.839 20.136 287.151 20.6 287.535 20.952C 287.935 21.288 288.439 21.456 289.047 21.456ZM 297.367 20.16L 300.703 20.16L 300.703 23.4C 300.687 24.392 300.383 25.224 299.791 25.896C 299.199 26.568 298.423 27 297.463 27.192L 297.463 25.728C 297.991 25.6 298.383 25.304 298.639 24.84C 298.911 24.392 299.039 23.912 299.023 23.4L 297.367 23.4L 297.367 20.16ZM 0.312 40.296L 3.216 40.296L 5.64 49.56L 5.688 49.56L 8.016 40.296L 10.776 40.296L 13.008 49.56L 13.056 49.56L 15.576 40.296L 18.36 40.296L 14.472 52.704L 11.664 52.704L 9.36 43.488L 9.312 43.488L 7.032 52.704L 4.152 52.704L 0.312 40.296ZM 25.8077 53.04C 24.8157 53.04 23.9277 52.88 23.1437 52.56C 22.3757 52.224 21.7197 51.768 21.1757 51.192C 20.6477 50.616 20.2397 49.928 19.9517 49.128C 19.6797 48.328 19.5437 47.448 19.5437 46.488C 19.5437 45.544 19.6797 44.672 19.9517 43.872C 20.2397 43.072 20.6477 42.384 21.1757 41.808C 21.7197 41.232 22.3757 40.784 23.1437 40.464C 23.9277 40.128 24.8157 39.96 25.8077 39.96C 26.7997 39.96 27.6797 40.128 28.4477 40.464C 29.2317 40.784 29.8877 41.232 30.4157 41.808C 30.9597 42.384 31.3677 43.072 31.6397 43.872C 31.9277 44.672 32.0717 45.544 32.0717 46.488C 32.0717 47.448 31.9277 48.328 31.6397 49.128C 31.3677 49.928 30.9597 50.616 30.4157 51.192C 29.8877 51.768 29.2317 52.224 28.4477 52.56C 27.6797 52.88 26.7997 53.04 25.8077 53.04ZM 25.8077 50.88C 26.4157 50.88 26.9437 50.752 27.3917 50.496C 27.8397 50.24 28.2077 49.904 28.4957 49.488C 28.7837 49.072 28.9917 48.608 29.1197 48.096C 29.2637 47.568 29.3357 47.032 29.3357 46.488C 29.3357 45.96 29.2637 45.432 29.1197 44.904C 28.9917 44.376 28.7837 43.912 28.4957 43.512C 28.2077 43.096 27.8397 42.76 27.3917 42.504C 26.9437 42.248 26.4157 42.12 25.8077 42.12C 25.1997 42.12 24.6717 42.248 24.2237 42.504C 23.7757 42.76 23.4077 43.096 23.1197 43.512C 22.8317 43.912 22.6157 44.376 22.4717 44.904C 22.3437 45.432 22.2797 45.96 22.2797 46.488C 22.2797 47.032 22.3437 47.568 22.4717 48.096C 22.6157 48.608 22.8317 49.072 23.1197 49.488C 23.4077 49.904 23.7757 50.24 24.2237 50.496C 24.6717 50.752 25.1997 50.88 25.8077 50.88ZM 45.2422 52.704L 42.5543 52.704L 42.5543 50.976L 42.5063 50.976C 42.1703 51.6 41.6663 52.104 40.9943 52.488C 40.3382 52.856 39.6662 53.04 38.9782 53.04C 37.3463 53.04 36.1623 52.64 35.4262 51.84C 34.7063 51.024 34.3462 49.8 34.3462 48.168L 34.3462 40.296L 37.0822 40.296L 37.0822 47.904C 37.0822 48.992 37.2902 49.76 37.7063 50.208C 38.1222 50.656 38.7062 50.88 39.4583 50.88C 40.0342 50.88 40.5143 50.792 40.8983 50.616C 41.2823 50.44 41.5942 50.208 41.8343 49.92C 42.0742 49.616 42.2422 49.256 42.3383 48.84C 42.4502 48.424 42.5063 47.976 42.5063 47.496L 42.5063 40.296L 45.2422 40.296L 45.2422 52.704ZM 48.1995 35.568L 50.9355 35.568L 50.9355 52.704L 48.1995 52.704L 48.1995 35.568ZM 65.6046 52.704L 63.0126 52.704L 63.0126 51.024L 62.9646 51.024C 62.5966 51.744 62.0606 52.264 61.3566 52.584C 60.6526 52.888 59.9086 53.04 59.1246 53.04C 58.1486 53.04 57.2926 52.872 56.5566 52.536C 55.8366 52.184 55.2366 51.712 54.7566 51.12C 54.2766 50.528 53.9166 49.832 53.6766 49.032C 53.4366 48.216 53.3166 47.344 53.3166 46.416C 53.3166 45.296 53.4686 44.328 53.7726 43.512C 54.0766 42.696 54.4766 42.024 54.9726 41.496C 55.4846 40.968 56.0606 40.584 56.7006 40.344C 57.3566 40.088 58.0206 39.96 58.6926 39.96C 59.0766 39.96 59.4686 40 59.8686 40.08C 60.2686 40.144 60.6526 40.256 61.0206 40.416C 61.3886 40.576 61.7246 40.784 62.0286 41.04C 62.3486 41.28 62.6126 41.568 62.8206 41.904L 62.8686 41.904L 62.8686 35.568L 65.6046 35.568L 65.6046 52.704ZM 56.0526 46.632C 56.0526 47.16 56.1166 47.68 56.2446 48.192C 56.3886 48.704 56.5966 49.16 56.8686 49.56C 57.1566 49.96 57.5166 50.28 57.9486 50.52C 58.3806 50.76 58.8926 50.88 59.4846 50.88C 60.0926 50.88 60.6126 50.752 61.0446 50.496C 61.4926 50.24 61.8526 49.904 62.1246 49.488C 62.4126 49.072 62.6206 48.608 62.7486 48.096C 62.8926 47.568 62.9646 47.032 62.9646 46.488C 62.9646 45.112 62.6526 44.04 62.0286 43.272C 61.4206 42.504 60.5886 42.12 59.5326 42.12C 58.8926 42.12 58.3486 42.256 57.9006 42.528C 57.4686 42.784 57.1086 43.128 56.8206 43.56C 56.5486 43.976 56.3486 44.456 56.2206 45C 56.1086 45.528 56.0526 46.072 56.0526 46.632ZM 73.9001 40.296L 76.9001 40.296L 80.1401 49.56L 80.1881 49.56L 83.3321 40.296L 86.1881 40.296L 81.3641 53.376C 81.1401 53.936 80.9161 54.472 80.6921 54.984C 80.4841 55.496 80.2201 55.944 79.9001 56.328C 79.5961 56.728 79.2121 57.04 78.7481 57.264C 78.2841 57.504 77.6921 57.624 76.9721 57.624C 76.3321 57.624 75.7001 57.576 75.0761 57.48L 75.0761 55.176C 75.3001 55.208 75.5161 55.24 75.7241 55.272C 75.9321 55.32 76.1481 55.344 76.3721 55.344C 76.6921 55.344 76.9561 55.304 77.1641 55.224C 77.3721 55.144 77.5401 55.024 77.6681 54.864C 77.8121 54.72 77.9321 54.544 78.0281 54.336C 78.1241 54.128 78.2121 53.888 78.2921 53.616L 78.6041 52.656L 73.9001 40.296ZM 93.4014 53.04C 92.4094 53.04 91.5214 52.88 90.7374 52.56C 89.9694 52.224 89.3134 51.768 88.7694 51.192C 88.2414 50.616 87.8334 49.928 87.5454 49.128C 87.2734 48.328 87.1374 47.448 87.1374 46.488C 87.1374 45.544 87.2734 44.672 87.5454 43.872C 87.8334 43.072 88.2414 42.384 88.7694 41.808C 89.3134 41.232 89.9694 40.784 90.7374 40.464C 91.5214 40.128 92.4094 39.96 93.4014 39.96C 94.3934 39.96 95.2734 40.128 96.0414 40.464C 96.8254 40.784 97.4814 41.232 98.0094 41.808C 98.5534 42.384 98.9614 43.072 99.2334 43.872C 99.5214 44.672 99.6654 45.544 99.6654 46.488C 99.6654 47.448 99.5214 48.328 99.2334 49.128C 98.9614 49.928 98.5534 50.616 98.0094 51.192C 97.4814 51.768 96.8254 52.224 96.0414 52.56C 95.2734 52.88 94.3934 53.04 93.4014 53.04ZM 93.4014 50.88C 94.0094 50.88 94.5374 50.752 94.9854 50.496C 95.4334 50.24 95.8014 49.904 96.0894 49.488C 96.3774 49.072 96.5854 48.608 96.7134 48.096C 96.8574 47.568 96.9294 47.032 96.9294 46.488C 96.9294 45.96 96.8574 45.432 96.7134 44.904C 96.5854 44.376 96.3774 43.912 96.0894 43.512C 95.8014 43.096 95.4334 42.76 94.9854 42.504C 94.5374 42.248 94.0094 42.12 93.4014 42.12C 92.7934 42.12 92.2654 42.248 91.8174 42.504C 91.3694 42.76 91.0014 43.096 90.7134 43.512C 90.4254 43.912 90.2094 44.376 90.0654 44.904C 89.9374 45.432 89.8734 45.96 89.8734 46.488C 89.8734 47.032 89.9374 47.568 90.0654 48.096C 90.2094 48.608 90.4254 49.072 90.7134 49.488C 91.0014 49.904 91.3694 50.24 91.8174 50.496C 92.2654 50.752 92.7934 50.88 93.4014 50.88ZM 112.836 52.704L 110.148 52.704L 110.148 50.976L 110.1 50.976C 109.764 51.6 109.26 52.104 108.588 52.488C 107.932 52.856 107.26 53.04 106.572 53.04C 104.94 53.04 103.756 52.64 103.02 51.84C 102.3 51.024 101.94 49.8 101.94 48.168L 101.94 40.296L 104.676 40.296L 104.676 47.904C 104.676 48.992 104.884 49.76 105.3 50.208C 105.716 50.656 106.3 50.88 107.052 50.88C 107.628 50.88 108.108 50.792 108.492 50.616C 108.876 50.44 109.188 50.208 109.428 49.92C 109.668 49.616 109.836 49.256 109.932 48.84C 110.044 48.424 110.1 47.976 110.1 47.496L 110.1 40.296L 112.836 40.296L 112.836 52.704ZM 122.473 35.568L 125.209 35.568L 125.209 52.704L 122.473 52.704L 122.473 35.568ZM 128.262 35.568L 130.998 35.568L 130.998 38.16L 128.262 38.16L 128.262 35.568ZM 128.262 40.296L 130.998 40.296L 130.998 52.704L 128.262 52.704L 128.262 40.296ZM 134.051 35.568L 136.787 35.568L 136.787 45.312L 141.731 40.296L 145.091 40.296L 140.339 44.856L 145.547 52.704L 142.211 52.704L 138.419 46.68L 136.787 48.264L 136.787 52.704L 134.051 52.704L 134.051 35.568ZM 155.39 45.408C 155.358 44.976 155.262 44.56 155.102 44.16C 154.958 43.76 154.75 43.416 154.478 43.128C 154.222 42.824 153.902 42.584 153.518 42.408C 153.15 42.216 152.734 42.12 152.27 42.12C 151.79 42.12 151.35 42.208 150.95 42.384C 150.566 42.544 150.23 42.776 149.942 43.08C 149.67 43.368 149.446 43.712 149.27 44.112C 149.11 44.512 149.022 44.944 149.006 45.408L 155.39 45.408ZM 149.006 47.208C 149.006 47.688 149.07 48.152 149.198 48.6C 149.342 49.048 149.55 49.44 149.822 49.776C 150.094 50.112 150.438 50.384 150.854 50.592C 151.27 50.784 151.766 50.88 152.342 50.88C 153.142 50.88 153.782 50.712 154.262 50.376C 154.758 50.024 155.126 49.504 155.366 48.816L 157.958 48.816C 157.814 49.488 157.566 50.088 157.214 50.616C 156.862 51.144 156.438 51.592 155.942 51.96C 155.446 52.312 154.886 52.576 154.262 52.752C 153.654 52.944 153.014 53.04 152.342 53.04C 151.366 53.04 150.502 52.88 149.75 52.56C 148.998 52.24 148.358 51.792 147.83 51.216C 147.318 50.64 146.926 49.952 146.654 49.152C 146.398 48.352 146.27 47.472 146.27 46.512C 146.27 45.632 146.406 44.8 146.678 44.016C 146.966 43.216 147.366 42.52 147.878 41.928C 148.406 41.32 149.038 40.84 149.774 40.488C 150.51 40.136 151.342 39.96 152.27 39.96C 153.246 39.96 154.118 40.168 154.886 40.584C 155.67 40.984 156.318 41.52 156.83 42.192C 157.342 42.864 157.71 43.64 157.934 44.52C 158.174 45.384 158.238 46.28 158.126 47.208L 149.006 47.208ZM 165.637 40.296L 167.701 40.296L 167.701 36.576L 170.437 36.576L 170.437 40.296L 172.909 40.296L 172.909 42.336L 170.437 42.336L 170.437 48.96C 170.437 49.248 170.445 49.496 170.461 49.704C 170.493 49.912 170.549 50.088 170.629 50.232C 170.725 50.376 170.861 50.488 171.037 50.568C 171.213 50.632 171.453 50.664 171.757 50.664C 171.949 50.664 172.141 50.664 172.333 50.664C 172.525 50.648 172.717 50.616 172.909 50.568L 172.909 52.68C 172.605 52.712 172.309 52.744 172.021 52.776C 171.733 52.808 171.437 52.824 171.133 52.824C 170.413 52.824 169.829 52.76 169.381 52.632C 168.949 52.488 168.605 52.288 168.349 52.032C 168.109 51.76 167.941 51.424 167.845 51.024C 167.765 50.624 167.717 50.168 167.701 49.656L 167.701 42.336L 165.637 42.336L 165.637 40.296ZM 180.565 53.04C 179.574 53.04 178.686 52.88 177.902 52.56C 177.133 52.224 176.477 51.768 175.934 51.192C 175.406 50.616 174.997 49.928 174.709 49.128C 174.438 48.328 174.301 47.448 174.301 46.488C 174.301 45.544 174.438 44.672 174.709 43.872C 174.997 43.072 175.406 42.384 175.934 41.808C 176.477 41.232 177.133 40.784 177.902 40.464C 178.686 40.128 179.574 39.96 180.565 39.96C 181.558 39.96 182.438 40.128 183.206 40.464C 183.989 40.784 184.646 41.232 185.173 41.808C 185.717 42.384 186.126 43.072 186.398 43.872C 186.685 44.672 186.83 45.544 186.83 46.488C 186.83 47.448 186.685 48.328 186.398 49.128C 186.126 49.928 185.717 50.616 185.173 51.192C 184.646 51.768 183.989 52.224 183.206 52.56C 182.438 52.88 181.558 53.04 180.565 53.04ZM 180.565 50.88C 181.174 50.88 181.701 50.752 182.15 50.496C 182.597 50.24 182.966 49.904 183.254 49.488C 183.542 49.072 183.75 48.608 183.878 48.096C 184.022 47.568 184.094 47.032 184.094 46.488C 184.094 45.96 184.022 45.432 183.878 44.904C 183.75 44.376 183.542 43.912 183.254 43.512C 182.966 43.096 182.597 42.76 182.15 42.504C 181.701 42.248 181.174 42.12 180.565 42.12C 179.958 42.12 179.429 42.248 178.982 42.504C 178.534 42.76 178.165 43.096 177.878 43.512C 177.589 43.912 177.374 44.376 177.23 44.904C 177.102 45.432 177.038 45.96 177.038 46.488C 177.038 47.032 177.102 47.568 177.23 48.096C 177.374 48.608 177.589 49.072 177.878 49.488C 178.165 49.904 178.534 50.24 178.982 50.496C 179.429 50.752 179.958 50.88 180.565 50.88ZM 195.784 40.296L 198.376 40.296L 198.376 42.024L 198.448 42.024C 198.656 41.72 198.88 41.44 199.12 41.184C 199.36 40.928 199.624 40.712 199.912 40.536C 200.216 40.36 200.56 40.224 200.944 40.128C 201.328 40.016 201.768 39.96 202.264 39.96C 203.016 39.96 203.712 40.128 204.352 40.464C 205.008 40.8 205.472 41.32 205.744 42.024C 206.208 41.384 206.744 40.88 207.352 40.512C 207.96 40.144 208.72 39.96 209.632 39.96C 210.944 39.96 211.96 40.28 212.68 40.92C 213.416 41.56 213.784 42.632 213.784 44.136L 213.784 52.704L 211.048 52.704L 211.048 45.456C 211.048 44.96 211.032 44.512 211 44.112C 210.968 43.696 210.872 43.344 210.712 43.056C 210.568 42.752 210.344 42.52 210.04 42.36C 209.736 42.2 209.32 42.12 208.792 42.12C 207.864 42.12 207.192 42.408 206.776 42.984C 206.36 43.56 206.152 44.376 206.152 45.432L 206.152 52.704L 203.416 52.704L 203.416 44.736C 203.416 43.872 203.256 43.224 202.936 42.792C 202.632 42.344 202.064 42.12 201.232 42.12C 200.88 42.12 200.536 42.192 200.2 42.336C 199.88 42.48 199.592 42.688 199.336 42.96C 199.096 43.232 198.896 43.568 198.736 43.968C 198.592 44.368 198.52 44.824 198.52 45.336L 198.52 52.704L 195.784 52.704L 195.784 40.296ZM 222.355 53.04C 221.363 53.04 220.475 52.88 219.691 52.56C 218.923 52.224 218.267 51.768 217.723 51.192C 217.195 50.616 216.787 49.928 216.499 49.128C 216.227 48.328 216.091 47.448 216.091 46.488C 216.091 45.544 216.227 44.672 216.499 43.872C 216.787 43.072 217.195 42.384 217.723 41.808C 218.267 41.232 218.923 40.784 219.691 40.464C 220.475 40.128 221.363 39.96 222.355 39.96C 223.347 39.96 224.227 40.128 224.995 40.464C 225.779 40.784 226.435 41.232 226.963 41.808C 227.507 42.384 227.915 43.072 228.187 43.872C 228.475 44.672 228.619 45.544 228.619 46.488C 228.619 47.448 228.475 48.328 228.187 49.128C 227.915 49.928 227.507 50.616 226.963 51.192C 226.435 51.768 225.779 52.224 224.995 52.56C 224.227 52.88 223.347 53.04 222.355 53.04ZM 222.355 50.88C 222.963 50.88 223.491 50.752 223.939 50.496C 224.387 50.24 224.755 49.904 225.043 49.488C 225.331 49.072 225.539 48.608 225.667 48.096C 225.811 47.568 225.883 47.032 225.883 46.488C 225.883 45.96 225.811 45.432 225.667 44.904C 225.539 44.376 225.331 43.912 225.043 43.512C 224.755 43.096 224.387 42.76 223.939 42.504C 223.491 42.248 222.963 42.12 222.355 42.12C 221.747 42.12 221.219 42.248 220.771 42.504C 220.323 42.76 219.955 43.096 219.667 43.512C 219.379 43.912 219.163 44.376 219.019 44.904C 218.891 45.432 218.827 45.96 218.827 46.488C 218.827 47.032 218.891 47.568 219.019 48.096C 219.163 48.608 219.379 49.072 219.667 49.488C 219.955 49.904 220.323 50.24 220.771 50.496C 221.219 50.752 221.747 50.88 222.355 50.88ZM 229.669 40.296L 232.645 40.296L 235.789 49.824L 235.837 49.824L 238.861 40.296L 241.693 40.296L 237.253 52.704L 234.181 52.704L 229.669 40.296ZM 251.858 45.408C 251.826 44.976 251.73 44.56 251.57 44.16C 251.426 43.76 251.218 43.416 250.946 43.128C 250.69 42.824 250.37 42.584 249.986 42.408C 249.618 42.216 249.202 42.12 248.738 42.12C 248.258 42.12 247.818 42.208 247.418 42.384C 247.034 42.544 246.698 42.776 246.41 43.08C 246.138 43.368 245.914 43.712 245.738 44.112C 245.578 44.512 245.49 44.944 245.474 45.408L 251.858 45.408ZM 245.474 47.208C 245.474 47.688 245.538 48.152 245.666 48.6C 245.81 49.048 246.018 49.44 246.29 49.776C 246.562 50.112 246.906 50.384 247.322 50.592C 247.738 50.784 248.234 50.88 248.81 50.88C 249.61 50.88 250.25 50.712 250.73 50.376C 251.226 50.024 251.594 49.504 251.834 48.816L 254.426 48.816C 254.282 49.488 254.034 50.088 253.682 50.616C 253.33 51.144 252.906 51.592 252.41 51.96C 251.914 52.312 251.354 52.576 250.73 52.752C 250.122 52.944 249.482 53.04 248.81 53.04C 247.834 53.04 246.97 52.88 246.218 52.56C 245.466 52.24 244.826 51.792 244.298 51.216C 243.786 50.64 243.394 49.952 243.122 49.152C 242.866 48.352 242.738 47.472 242.738 46.512C 242.738 45.632 242.874 44.8 243.146 44.016C 243.434 43.216 243.834 42.52 244.346 41.928C 244.874 41.32 245.506 40.84 246.242 40.488C 246.978 40.136 247.81 39.96 248.738 39.96C 249.714 39.96 250.586 40.168 251.354 40.584C 252.138 40.984 252.786 41.52 253.298 42.192C 253.81 42.864 254.178 43.64 254.402 44.52C 254.642 45.384 254.706 46.28 254.594 47.208L 245.474 47.208ZM 0.216 69.6L 2.256 69.6L 2.256 68.568C 2.256 67.784 2.352 67.152 2.544 66.672C 2.736 66.176 2.992 65.8 3.312 65.544C 3.632 65.272 3.992 65.096 4.392 65.016C 4.808 64.92 5.24 64.872 5.688 64.872C 6.568 64.872 7.208 64.928 7.608 65.04L 7.608 67.176C 7.432 67.128 7.24 67.096 7.032 67.08C 6.84 67.048 6.608 67.032 6.336 67.032C 5.968 67.032 5.648 67.12 5.376 67.296C 5.12 67.472 4.992 67.816 4.992 68.328L 4.992 69.6L 7.32 69.6L 7.32 71.64L 4.992 71.64L 4.992 82.008L 2.256 82.008L 2.256 71.64L 0.216 71.64L 0.216 69.6ZM 14.6983 82.344C 13.7063 82.344 12.8183 82.184 12.0343 81.864C 11.2663 81.528 10.6103 81.072 10.0663 80.496C 9.53831 79.92 9.13031 79.232 8.84231 78.432C 8.57031 77.632 8.43431 76.752 8.43431 75.792C 8.43431 74.848 8.57031 73.976 8.84231 73.176C 9.13031 72.376 9.53831 71.688 10.0663 71.112C 10.6103 70.536 11.2663 70.088 12.0343 69.768C 12.8183 69.432 13.7063 69.264 14.6983 69.264C 15.6903 69.264 16.5703 69.432 17.3383 69.768C 18.1223 70.088 18.7783 70.536 19.3063 71.112C 19.8503 71.688 20.2583 72.376 20.5303 73.176C 20.8183 73.976 20.9623 74.848 20.9623 75.792C 20.9623 76.752 20.8183 77.632 20.5303 78.432C 20.2583 79.232 19.8503 79.92 19.3063 80.496C 18.7783 81.072 18.1223 81.528 17.3383 81.864C 16.5703 82.184 15.6903 82.344 14.6983 82.344ZM 14.6983 80.184C 15.3063 80.184 15.8343 80.056 16.2823 79.8C 16.7303 79.544 17.0983 79.208 17.3863 78.792C 17.6743 78.376 17.8823 77.912 18.0103 77.4C 18.1543 76.872 18.2263 76.336 18.2263 75.792C 18.2263 75.264 18.1543 74.736 18.0103 74.208C 17.8823 73.68 17.6743 73.216 17.3863 72.816C 17.0983 72.4 16.7303 72.064 16.2823 71.808C 15.8343 71.552 15.3063 71.424 14.6983 71.424C 14.0903 71.424 13.5623 71.552 13.1143 71.808C 12.6663 72.064 12.2983 72.4 12.0103 72.816C 11.7223 73.216 11.5063 73.68 11.3623 74.208C 11.2343 74.736 11.1703 75.264 11.1703 75.792C 11.1703 76.336 11.2343 76.872 11.3623 77.4C 11.5063 77.912 11.7223 78.376 12.0103 78.792C 12.2983 79.208 12.6663 79.544 13.1143 79.8C 13.5623 80.056 14.0903 80.184 14.6983 80.184ZM 22.1089 69.6L 25.0129 69.6L 27.4369 78.864L 27.4849 78.864L 29.8129 69.6L 32.5729 69.6L 34.8049 78.864L 34.8529 78.864L 37.3729 69.6L 40.1569 69.6L 36.2689 82.008L 33.4609 82.008L 31.1569 72.792L 31.1089 72.792L 28.8289 82.008L 25.9489 82.008L 22.1089 69.6ZM 52.3086 79.248C 52.3086 79.584 52.3486 79.824 52.4286 79.968C 52.5246 80.112 52.7006 80.184 52.9566 80.184C 53.0366 80.184 53.1326 80.184 53.2446 80.184C 53.3566 80.184 53.4846 80.168 53.6286 80.136L 53.6286 82.032C 53.5326 82.064 53.4046 82.096 53.2446 82.128C 53.1006 82.176 52.9486 82.216 52.7886 82.248C 52.6286 82.28 52.4686 82.304 52.3086 82.32C 52.1486 82.336 52.0126 82.344 51.9006 82.344C 51.3406 82.344 50.8766 82.232 50.5086 82.008C 50.1406 81.784 49.9006 81.392 49.7886 80.832C 49.2446 81.36 48.5726 81.744 47.7726 81.984C 46.9886 82.224 46.2286 82.344 45.4926 82.344C 44.9326 82.344 44.3966 82.264 43.8846 82.104C 43.3726 81.96 42.9166 81.744 42.5166 81.456C 42.1326 81.152 41.8206 80.776 41.5806 80.328C 41.3566 79.864 41.2446 79.328 41.2446 78.72C 41.2446 77.952 41.3806 77.328 41.6526 76.848C 41.9406 76.368 42.3086 75.992 42.7566 75.72C 43.2206 75.448 43.7326 75.256 44.2926 75.144C 44.8686 75.016 45.4446 74.92 46.0206 74.856C 46.5166 74.76 46.9886 74.696 47.4366 74.664C 47.8846 74.616 48.2766 74.544 48.6126 74.448C 48.9646 74.352 49.2366 74.208 49.4286 74.016C 49.6366 73.808 49.7406 73.504 49.7406 73.104C 49.7406 72.752 49.6526 72.464 49.4766 72.24C 49.3166 72.016 49.1086 71.848 48.8526 71.736C 48.6126 71.608 48.3406 71.528 48.0366 71.496C 47.7326 71.448 47.4446 71.424 47.1726 71.424C 46.4046 71.424 45.7726 71.584 45.2766 71.904C 44.7806 72.224 44.5006 72.72 44.4366 73.392L 41.7006 73.392C 41.7486 72.592 41.9406 71.928 42.2766 71.4C 42.6126 70.872 43.0366 70.448 43.5486 70.128C 44.0766 69.808 44.6686 69.584 45.3246 69.456C 45.9806 69.328 46.6526 69.264 47.3406 69.264C 47.9486 69.264 48.5486 69.328 49.1406 69.456C 49.7326 69.584 50.2606 69.792 50.7246 70.08C 51.2046 70.368 51.5886 70.744 51.8766 71.208C 52.1646 71.656 52.3086 72.208 52.3086 72.864L 52.3086 79.248ZM 49.5726 75.792C 49.1566 76.064 48.6446 76.232 48.0366 76.296C 47.4286 76.344 46.8206 76.424 46.2126 76.536C 45.9246 76.584 45.6446 76.656 45.3726 76.752C 45.1006 76.832 44.8606 76.952 44.6526 77.112C 44.4446 77.256 44.2766 77.456 44.1486 77.712C 44.0366 77.952 43.9806 78.248 43.9806 78.6C 43.9806 78.904 44.0686 79.16 44.2446 79.368C 44.4206 79.576 44.6286 79.744 44.8686 79.872C 45.1246 79.984 45.3966 80.064 45.6846 80.112C 45.9886 80.16 46.2606 80.184 46.5006 80.184C 46.8046 80.184 47.1326 80.144 47.4846 80.064C 47.8366 79.984 48.1646 79.848 48.4686 79.656C 48.7886 79.464 49.0526 79.224 49.2606 78.936C 49.4686 78.632 49.5726 78.264 49.5726 77.832L 49.5726 75.792ZM 55.2525 69.6L 57.8205 69.6L 57.8205 72L 57.8685 72C 57.9485 71.664 58.1005 71.336 58.3245 71.016C 58.5645 70.696 58.8445 70.408 59.1645 70.152C 59.5005 69.88 59.8685 69.664 60.2685 69.504C 60.6685 69.344 61.0765 69.264 61.4925 69.264C 61.8125 69.264 62.0285 69.272 62.1405 69.288C 62.2685 69.304 62.3965 69.32 62.5245 69.336L 62.5245 71.976C 62.3325 71.944 62.1325 71.92 61.9245 71.904C 61.7325 71.872 61.5405 71.856 61.3485 71.856C 60.8845 71.856 60.4445 71.952 60.0285 72.144C 59.6285 72.32 59.2765 72.592 58.9725 72.96C 58.6685 73.312 58.4285 73.752 58.2525 74.28C 58.0765 74.808 57.9885 75.416 57.9885 76.104L 57.9885 82.008L 55.2525 82.008L 55.2525 69.6ZM 75.1671 82.008L 72.5751 82.008L 72.5751 80.328L 72.5271 80.328C 72.1591 81.048 71.6231 81.568 70.9191 81.888C 70.2151 82.192 69.4711 82.344 68.6871 82.344C 67.7111 82.344 66.8551 82.176 66.1191 81.84C 65.3991 81.488 64.7991 81.016 64.3191 80.424C 63.8391 79.832 63.4791 79.136 63.2391 78.336C 62.9991 77.52 62.8791 76.648 62.8791 75.72C 62.8791 74.6 63.0311 73.632 63.3351 72.816C 63.6391 72 64.0391 71.328 64.5351 70.8C 65.0471 70.272 65.6231 69.888 66.2631 69.648C 66.9191 69.392 67.5831 69.264 68.2551 69.264C 68.6391 69.264 69.0311 69.304 69.4311 69.384C 69.8311 69.448 70.2151 69.56 70.5831 69.72C 70.9511 69.88 71.2871 70.088 71.5911 70.344C 71.9111 70.584 72.1751 70.872 72.3831 71.208L 72.4311 71.208L 72.4311 64.872L 75.1671 64.872L 75.1671 82.008ZM 65.6151 75.936C 65.6151 76.464 65.6791 76.984 65.8071 77.496C 65.9511 78.008 66.1591 78.464 66.4311 78.864C 66.7191 79.264 67.0791 79.584 67.5111 79.824C 67.9431 80.064 68.4551 80.184 69.0471 80.184C 69.6551 80.184 70.1751 80.056 70.6071 79.8C 71.0551 79.544 71.4151 79.208 71.6871 78.792C 71.9751 78.376 72.1831 77.912 72.3111 77.4C 72.4551 76.872 72.5271 76.336 72.5271 75.792C 72.5271 74.416 72.2151 73.344 71.5911 72.576C 70.9831 71.808 70.1511 71.424 69.0951 71.424C 68.4551 71.424 67.9111 71.56 67.4631 71.832C 67.0311 72.088 66.6711 72.432 66.3831 72.864C 66.1111 73.28 65.9111 73.76 65.7831 74.304C 65.6711 74.832 65.6151 75.376 65.6151 75.936ZM 81.492 79.008L 84.708 79.008L 84.708 82.008L 81.492 82.008L 81.492 79.008ZM 77.676 70.32C 77.676 69.44 77.804 68.64 78.06 67.92C 78.332 67.2 78.716 66.584 79.212 66.072C 79.724 65.56 80.332 65.168 81.036 64.896C 81.756 64.608 82.556 64.464 83.436 64.464C 84.172 64.464 84.852 64.576 85.476 64.8C 86.116 65.008 86.668 65.32 87.132 65.736C 87.612 66.136 87.988 66.64 88.26 67.248C 88.532 67.856 88.668 68.544 88.668 69.312C 88.668 69.872 88.604 70.36 88.476 70.776C 88.364 71.176 88.204 71.528 87.996 71.832C 87.804 72.12 87.58 72.384 87.324 72.624C 87.068 72.848 86.812 73.072 86.556 73.296C 86.252 73.552 85.972 73.8 85.716 74.04C 85.46 74.28 85.236 74.552 85.044 74.856C 84.852 75.144 84.7 75.488 84.588 75.888C 84.492 76.288 84.444 76.776 84.444 77.352L 81.852 77.352C 81.852 76.648 81.884 76.056 81.948 75.576C 82.028 75.08 82.148 74.648 82.308 74.28C 82.468 73.912 82.66 73.592 82.884 73.32C 83.124 73.032 83.404 72.752 83.724 72.48C 83.98 72.256 84.22 72.048 84.444 71.856C 84.684 71.664 84.892 71.456 85.068 71.232C 85.26 70.992 85.404 70.728 85.5 70.44C 85.612 70.152 85.668 69.808 85.668 69.408C 85.668 68.928 85.58 68.52 85.404 68.184C 85.244 67.832 85.044 67.552 84.804 67.344C 84.564 67.136 84.308 66.984 84.036 66.888C 83.764 66.792 83.524 66.744 83.316 66.744C 82.324 66.744 81.588 67.072 81.108 67.728C 80.644 68.368 80.412 69.232 80.412 70.32L 77.676 70.32Z"/>
</defs>
</svg>
