<svg width="122" height="59" viewBox="0 0 122 59" version="1.1" xmlns="http://www.w3.org/2000/svg" xmlns:xlink="http://www.w3.org/1999/xlink" xmlns:figma="http://www.figma.com/figma/ns">
<title>Message-right-four</title>
<desc>Created using Figma</desc>
<g id="Canvas" transform="translate(-3912 -927)" figma:type="canvas">
<rect x="3912" y="927" width="122" height="59" fill="#E5E5E5"/>
<mask id="mask0_alpha" mask-type="alpha">
<path d="M 3025 -474L 4465 -474L 4465 2472L 3025 2472L 3025 -474Z" fill="#FFFFFF"/>
</mask>
<g id="Home 3" style="mix-blend-mode:normal;" mask="url(#mask0_alpha)" figma:type="frame">
<path d="M 3025 -474L 4465 -474L 4465 2472L 3025 2472L 3025 -474Z" fill="#FFFFFF"/>
<g id="Section 1" style="mix-blend-mode:normal;" figma:type="frame">
</g>
<g id="iMessage Thread" style="mix-blend-mode:normal;" figma:type="frame">
<g id="Message-right-four" style="mix-blend-mode:normal;" figma:type="frame">
<g id="Bubble" style="mix-blend-mode:normal;" figma:type="vector-operation">
<use xlink:href="#path0_fill" transform="translate(3912 927.914)" fill="#007AFF" style="mix-blend-mode:normal;"/>
</g>
<g id="Yes" style="mix-blend-mode:normal;" figma:type="text">
<use xlink:href="#path1_fill" transform="translate(3948.58 943.828)" fill="#FFFFFF" style="mix-blend-mode:normal;"/>
</g>
</g>
</g>
</g>
</g>
<defs>
<path id="path0_fill" fill-rule="evenodd" d="M 29 0C 12.9836 0 0 12.9838 0 29C 0 45.0162 12.9836 58 29 58L 84 58C 91.9915 58 99.228 54.7676 104.473 49.5388C 109.154 51.7517 114.489 53 120.2 53L 120.349 52.9973C 120.653 52.9907 121.329 52.976 122 53C 116.089 50.8543 111.787 45.6505 111.213 39.0447C 112.369 35.915 113 32.5312 113 29C 113 12.9838 100.016 0 84 0L 29 0Z"/>
<path id="path1_fill" d="M 6.288 16.68L -0.144 6.264L 3.336 6.264L 7.872 13.944L 12.336 6.264L 15.696 6.264L 9.288 16.68L 9.288 23.4L 6.288 23.4L 6.288 16.68ZM 24.4209 16.104C 24.3889 15.672 24.2929 15.256 24.1329 14.856C 23.9889 14.456 23.7809 14.112 23.5089 13.824C 23.2529 13.52 22.9329 13.28 22.5489 13.104C 22.1809 12.912 21.7649 12.816 21.3009 12.816C 20.8209 12.816 20.3809 12.904 19.9809 13.08C 19.5969 13.24 19.2609 13.472 18.9729 13.776C 18.7009 14.064 18.4769 14.408 18.3009 14.808C 18.1409 15.208 18.0529 15.64 18.0369 16.104L 24.4209 16.104ZM 18.0369 17.904C 18.0369 18.384 18.1009 18.848 18.2289 19.296C 18.3729 19.744 18.5809 20.136 18.8529 20.472C 19.1249 20.808 19.4689 21.08 19.8849 21.288C 20.3009 21.48 20.7969 21.576 21.3729 21.576C 22.1729 21.576 22.8129 21.408 23.2929 21.072C 23.7889 20.72 24.1569 20.2 24.3969 19.512L 26.9889 19.512C 26.8449 20.184 26.5969 20.784 26.2449 21.312C 25.8929 21.84 25.4689 22.288 24.9729 22.656C 24.4769 23.008 23.9169 23.272 23.2929 23.448C 22.6849 23.64 22.0449 23.736 21.3729 23.736C 20.3969 23.736 19.5329 23.576 18.7809 23.256C 18.0289 22.936 17.3889 22.488 16.8609 21.912C 16.3489 21.336 15.9569 20.648 15.6849 19.848C 15.4289 19.048 15.3009 18.168 15.3009 17.208C 15.3009 16.328 15.4369 15.496 15.7089 14.712C 15.9969 13.912 16.3969 13.216 16.9089 12.624C 17.4369 12.016 18.0689 11.536 18.8049 11.184C 19.5409 10.832 20.3729 10.656 21.3009 10.656C 22.2769 10.656 23.1489 10.864 23.9169 11.28C 24.7009 11.68 25.3489 12.216 25.8609 12.888C 26.3729 13.56 26.7409 14.336 26.9649 15.216C 27.2049 16.08 27.2689 16.976 27.1569 17.904L 18.0369 17.904ZM 30.1993 19.416C 30.2793 20.216 30.5833 20.776 31.1113 21.096C 31.6393 21.416 32.2713 21.576 33.0073 21.576C 33.2633 21.576 33.5513 21.56 33.8713 21.528C 34.2073 21.48 34.5193 21.4 34.8073 21.288C 35.0953 21.176 35.3273 21.016 35.5033 20.808C 35.6953 20.584 35.7833 20.296 35.7673 19.944C 35.7513 19.592 35.6233 19.304 35.3833 19.08C 35.1433 18.856 34.8313 18.68 34.4473 18.552C 34.0793 18.408 33.6553 18.288 33.1753 18.192C 32.6953 18.096 32.2073 17.992 31.7113 17.88C 31.1993 17.768 30.7033 17.632 30.2233 17.472C 29.7593 17.312 29.3353 17.096 28.9513 16.824C 28.5833 16.552 28.2873 16.208 28.0633 15.792C 27.8393 15.36 27.7273 14.832 27.7273 14.208C 27.7273 13.536 27.8873 12.976 28.2073 12.528C 28.5433 12.064 28.9593 11.696 29.4553 11.424C 29.9673 11.136 30.5273 10.936 31.1353 10.824C 31.7593 10.712 32.3513 10.656 32.9113 10.656C 33.5513 10.656 34.1593 10.728 34.7353 10.872C 35.3273 11 35.8553 11.216 36.3193 11.52C 36.7993 11.824 37.1913 12.224 37.4953 12.72C 37.8153 13.2 38.0153 13.784 38.0953 14.472L 35.2393 14.472C 35.1113 13.816 34.8073 13.376 34.3273 13.152C 33.8633 12.928 33.3273 12.816 32.7193 12.816C 32.5273 12.816 32.2953 12.832 32.0233 12.864C 31.7673 12.896 31.5193 12.96 31.2793 13.056C 31.0553 13.136 30.8633 13.264 30.7033 13.44C 30.5433 13.6 30.4633 13.816 30.4633 14.088C 30.4633 14.424 30.5753 14.696 30.7993 14.904C 31.0393 15.112 31.3433 15.288 31.7113 15.432C 32.0953 15.56 32.5273 15.672 33.0073 15.768C 33.4873 15.864 33.9833 15.968 34.4953 16.08C 34.9913 16.192 35.4793 16.328 35.9593 16.488C 36.4393 16.648 36.8633 16.864 37.2313 17.136C 37.6153 17.408 37.9193 17.752 38.1433 18.168C 38.3833 18.584 38.5033 19.096 38.5033 19.704C 38.5033 20.44 38.3353 21.064 37.9993 21.576C 37.6633 22.088 37.2233 22.504 36.6793 22.824C 36.1513 23.144 35.5593 23.376 34.9033 23.52C 34.2473 23.664 33.5993 23.736 32.9593 23.736C 32.1753 23.736 31.4473 23.648 30.7753 23.472C 30.1193 23.296 29.5433 23.032 29.0473 22.68C 28.5673 22.312 28.1833 21.864 27.8953 21.336C 27.6233 20.792 27.4793 20.152 27.4633 19.416L 30.1993 19.416Z"/>
</defs>
</svg>
