<svg width="351" height="110" viewBox="0 0 351 110" version="1.1" xmlns="http://www.w3.org/2000/svg" xmlns:xlink="http://www.w3.org/1999/xlink" xmlns:figma="http://www.figma.com/figma/ns">
<title>Message-left-ten</title>
<desc>Created using Figma</desc>
<g id="Canvas" transform="translate(-3456 -1798)" figma:type="canvas">
<rect x="3456" y="1798" width="351" height="110" fill="#E5E5E5"/>
<mask id="mask0_alpha" mask-type="alpha">
<path d="M 3025 -474L 4465 -474L 4465 2472L 3025 2472L 3025 -474Z" fill="#FFFFFF"/>
</mask>
<g id="Home 3" style="mix-blend-mode:normal;" mask="url(#mask0_alpha)" figma:type="frame">
<path d="M 3025 -474L 4465 -474L 4465 2472L 3025 2472L 3025 -474Z" fill="#FFFFFF"/>
<g id="iMessage Thread" style="mix-blend-mode:normal;" figma:type="frame">
<g id="Message-left-ten" style="mix-blend-mode:normal;" figma:type="frame">
<g id="Bubble" style="mix-blend-mode:normal;" figma:type="vector-operation">
<use xlink:href="#path0_fill" transform="matrix(-1 0 0 1 3807 1798)" fill="#E5E5EA" style="mix-blend-mode:normal;"/>
</g>
<g id="Sounds good. We will see you then. Thank you!" style="mix-blend-mode:normal;" figma:type="text">
<use xlink:href="#path1_fill" transform="translate(3499.58 1814.09)" style="mix-blend-mode:normal;"/>
</g>
</g>
</g>
</g>
</g>
<defs>
<path id="path0_fill" fill-rule="evenodd" d="M 34 0C 15.2224 0 0 15.2223 0 34L 0 64.3086C 0 83.0863 15.2224 98.3086 34 98.3086L 302.324 98.3086C 305.188 98.3086 307.969 97.9543 310.627 97.2875C 320.469 105.197 333.518 110 348.053 110C 348.094 110 348.178 109.998 348.298 109.996C 348.795 109.985 349.902 109.962 351 110C 341.246 106.557 334.166 98.1663 333.321 87.5294L 333.321 78.2986C 335.25 74.0317 336.324 69.2955 336.324 64.3086L 336.324 34C 336.324 15.2223 321.101 0 302.324 0L 34 0Z"/>
<path id="path1_fill" d="M 3.792 17.688C 3.792 18.344 3.904 18.904 4.128 19.368C 4.352 19.832 4.664 20.216 5.064 20.52C 5.464 20.808 5.92 21.024 6.432 21.168C 6.96 21.296 7.528 21.36 8.136 21.36C 8.792 21.36 9.352 21.288 9.816 21.144C 10.28 20.984 10.656 20.784 10.944 20.544C 11.232 20.304 11.44 20.032 11.568 19.728C 11.696 19.408 11.76 19.088 11.76 18.768C 11.76 18.112 11.608 17.632 11.304 17.328C 11.016 17.008 10.696 16.784 10.344 16.656C 9.736 16.432 9.024 16.224 8.208 16.032C 7.408 15.824 6.416 15.56 5.232 15.24C 4.496 15.048 3.88 14.8 3.384 14.496C 2.904 14.176 2.52 13.824 2.232 13.44C 1.944 13.056 1.736 12.648 1.608 12.216C 1.496 11.784 1.44 11.344 1.44 10.896C 1.44 10.032 1.616 9.288 1.968 8.664C 2.336 8.024 2.816 7.496 3.408 7.08C 4 6.664 4.672 6.36 5.424 6.168C 6.176 5.96 6.936 5.856 7.704 5.856C 8.6 5.856 9.44 5.976 10.224 6.216C 11.024 6.44 11.72 6.784 12.312 7.248C 12.92 7.712 13.4 8.288 13.752 8.976C 14.104 9.648 14.28 10.432 14.28 11.328L 11.28 11.328C 11.2 10.224 10.824 9.448 10.152 9C 9.48 8.536 8.624 8.304 7.584 8.304C 7.232 8.304 6.872 8.344 6.504 8.424C 6.136 8.488 5.8 8.608 5.496 8.784C 5.192 8.944 4.936 9.168 4.728 9.456C 4.536 9.744 4.44 10.104 4.44 10.536C 4.44 11.144 4.624 11.624 4.992 11.976C 5.376 12.312 5.872 12.568 6.48 12.744C 6.544 12.76 6.792 12.832 7.224 12.96C 7.672 13.072 8.168 13.2 8.712 13.344C 9.256 13.488 9.784 13.632 10.296 13.776C 10.824 13.904 11.2 14 11.424 14.064C 11.984 14.24 12.472 14.48 12.888 14.784C 13.304 15.088 13.648 15.44 13.92 15.84C 14.208 16.224 14.416 16.64 14.544 17.088C 14.688 17.536 14.76 17.984 14.76 18.432C 14.76 19.392 14.56 20.216 14.16 20.904C 13.776 21.576 13.264 22.128 12.624 22.56C 11.984 22.992 11.256 23.304 10.44 23.496C 9.624 23.704 8.792 23.808 7.944 23.808C 6.968 23.808 6.048 23.688 5.184 23.448C 4.32 23.208 3.568 22.84 2.928 22.344C 2.288 21.848 1.776 21.216 1.392 20.448C 1.008 19.664 0.808 18.744 0.792 17.688L 3.792 17.688ZM 22.6905 23.736C 21.6985 23.736 20.8105 23.576 20.0265 23.256C 19.2585 22.92 18.6025 22.464 18.0585 21.888C 17.5305 21.312 17.1225 20.624 16.8345 19.824C 16.5625 19.024 16.4265 18.144 16.4265 17.184C 16.4265 16.24 16.5625 15.368 16.8345 14.568C 17.1225 13.768 17.5305 13.08 18.0585 12.504C 18.6025 11.928 19.2585 11.48 20.0265 11.16C 20.8105 10.824 21.6985 10.656 22.6905 10.656C 23.6825 10.656 24.5625 10.824 25.3305 11.16C 26.1145 11.48 26.7705 11.928 27.2985 12.504C 27.8425 13.08 28.2505 13.768 28.5225 14.568C 28.8105 15.368 28.9545 16.24 28.9545 17.184C 28.9545 18.144 28.8105 19.024 28.5225 19.824C 28.2505 20.624 27.8425 21.312 27.2985 21.888C 26.7705 22.464 26.1145 22.92 25.3305 23.256C 24.5625 23.576 23.6825 23.736 22.6905 23.736ZM 22.6905 21.576C 23.2985 21.576 23.8265 21.448 24.2745 21.192C 24.7225 20.936 25.0905 20.6 25.3785 20.184C 25.6665 19.768 25.8745 19.304 26.0025 18.792C 26.1465 18.264 26.2185 17.728 26.2185 17.184C 26.2185 16.656 26.1465 16.128 26.0025 15.6C 25.8745 15.072 25.6665 14.608 25.3785 14.208C 25.0905 13.792 24.7225 13.456 24.2745 13.2C 23.8265 12.944 23.2985 12.816 22.6905 12.816C 22.0825 12.816 21.5545 12.944 21.1065 13.2C 20.6585 13.456 20.2905 13.792 20.0025 14.208C 19.7145 14.608 19.4985 15.072 19.3545 15.6C 19.2265 16.128 19.1625 16.656 19.1625 17.184C 19.1625 17.728 19.2265 18.264 19.3545 18.792C 19.4985 19.304 19.7145 19.768 20.0025 20.184C 20.2905 20.6 20.6585 20.936 21.1065 21.192C 21.5545 21.448 22.0825 21.576 22.6905 21.576ZM 42.1251 23.4L 39.4371 23.4L 39.4371 21.672L 39.3891 21.672C 39.0531 22.296 38.5491 22.8 37.8771 23.184C 37.2211 23.552 36.5491 23.736 35.8611 23.736C 34.2291 23.736 33.0451 23.336 32.3091 22.536C 31.5891 21.72 31.2291 20.496 31.2291 18.864L 31.2291 10.992L 33.9651 10.992L 33.9651 18.6C 33.9651 19.688 34.1731 20.456 34.5891 20.904C 35.0051 21.352 35.5891 21.576 36.3411 21.576C 36.9171 21.576 37.3971 21.488 37.7811 21.312C 38.1651 21.136 38.4771 20.904 38.7171 20.616C 38.9571 20.312 39.1251 19.952 39.2211 19.536C 39.3331 19.12 39.3891 18.672 39.3891 18.192L 39.3891 10.992L 42.1251 10.992L 42.1251 23.4ZM 45.0103 10.992L 47.6023 10.992L 47.6023 12.816L 47.6503 12.864C 48.0663 12.176 48.6103 11.64 49.2823 11.256C 49.9543 10.856 50.6983 10.656 51.5143 10.656C 52.8743 10.656 53.9463 11.008 54.7303 11.712C 55.5143 12.416 55.9063 13.472 55.9063 14.88L 55.9063 23.4L 53.1703 23.4L 53.1703 15.6C 53.1383 14.624 52.9303 13.92 52.5463 13.488C 52.1623 13.04 51.5623 12.816 50.7463 12.816C 50.2823 12.816 49.8663 12.904 49.4983 13.08C 49.1303 13.24 48.8183 13.472 48.5623 13.776C 48.3063 14.064 48.1063 14.408 47.9623 14.808C 47.8183 15.208 47.7463 15.632 47.7463 16.08L 47.7463 23.4L 45.0103 23.4L 45.0103 10.992ZM 70.4796 23.4L 67.8876 23.4L 67.8876 21.72L 67.8396 21.72C 67.4716 22.44 66.9356 22.96 66.2316 23.28C 65.5276 23.584 64.7836 23.736 63.9996 23.736C 63.0236 23.736 62.1676 23.568 61.4316 23.232C 60.7116 22.88 60.1116 22.408 59.6316 21.816C 59.1516 21.224 58.7916 20.528 58.5516 19.728C 58.3116 18.912 58.1916 18.04 58.1916 17.112C 58.1916 15.992 58.3436 15.024 58.6476 14.208C 58.9516 13.392 59.3516 12.72 59.8476 12.192C 60.3596 11.664 60.9356 11.28 61.5756 11.04C 62.2316 10.784 62.8956 10.656 63.5676 10.656C 63.9516 10.656 64.3436 10.696 64.7436 10.776C 65.1436 10.84 65.5276 10.952 65.8956 11.112C 66.2636 11.272 66.5996 11.48 66.9036 11.736C 67.2236 11.976 67.4876 12.264 67.6956 12.6L 67.7436 12.6L 67.7436 6.264L 70.4796 6.264L 70.4796 23.4ZM 60.9276 17.328C 60.9276 17.856 60.9916 18.376 61.1196 18.888C 61.2636 19.4 61.4716 19.856 61.7436 20.256C 62.0316 20.656 62.3916 20.976 62.8236 21.216C 63.2556 21.456 63.7676 21.576 64.3596 21.576C 64.9676 21.576 65.4876 21.448 65.9196 21.192C 66.3676 20.936 66.7276 20.6 66.9996 20.184C 67.2876 19.768 67.4956 19.304 67.6236 18.792C 67.7676 18.264 67.8396 17.728 67.8396 17.184C 67.8396 15.808 67.5276 14.736 66.9036 13.968C 66.2956 13.2 65.4636 12.816 64.4076 12.816C 63.7676 12.816 63.2236 12.952 62.7756 13.224C 62.3436 13.48 61.9836 13.824 61.6956 14.256C 61.4236 14.672 61.2236 15.152 61.0956 15.696C 60.9836 16.224 60.9276 16.768 60.9276 17.328ZM 75.5274 19.416C 75.6074 20.216 75.9114 20.776 76.4394 21.096C 76.9674 21.416 77.5994 21.576 78.3354 21.576C 78.5914 21.576 78.8794 21.56 79.1994 21.528C 79.5354 21.48 79.8474 21.4 80.1354 21.288C 80.4234 21.176 80.6554 21.016 80.8314 20.808C 81.0234 20.584 81.1114 20.296 81.0954 19.944C 81.0794 19.592 80.9514 19.304 80.7114 19.08C 80.4714 18.856 80.1594 18.68 79.7754 18.552C 79.4074 18.408 78.9834 18.288 78.5034 18.192C 78.0234 18.096 77.5354 17.992 77.0394 17.88C 76.5274 17.768 76.0314 17.632 75.5514 17.472C 75.0874 17.312 74.6634 17.096 74.2794 16.824C 73.9114 16.552 73.6154 16.208 73.3914 15.792C 73.1674 15.36 73.0554 14.832 73.0554 14.208C 73.0554 13.536 73.2154 12.976 73.5354 12.528C 73.8714 12.064 74.2874 11.696 74.7834 11.424C 75.2954 11.136 75.8554 10.936 76.4634 10.824C 77.0874 10.712 77.6794 10.656 78.2394 10.656C 78.8794 10.656 79.4874 10.728 80.0634 10.872C 80.6554 11 81.1834 11.216 81.6474 11.52C 82.1274 11.824 82.5194 12.224 82.8234 12.72C 83.1434 13.2 83.3434 13.784 83.4234 14.472L 80.5674 14.472C 80.4394 13.816 80.1354 13.376 79.6554 13.152C 79.1914 12.928 78.6554 12.816 78.0474 12.816C 77.8554 12.816 77.6234 12.832 77.3514 12.864C 77.0954 12.896 76.8474 12.96 76.6074 13.056C 76.3834 13.136 76.1914 13.264 76.0314 13.44C 75.8714 13.6 75.7914 13.816 75.7914 14.088C 75.7914 14.424 75.9034 14.696 76.1274 14.904C 76.3674 15.112 76.6714 15.288 77.0394 15.432C 77.4234 15.56 77.8554 15.672 78.3354 15.768C 78.8154 15.864 79.3114 15.968 79.8234 16.08C 80.3194 16.192 80.8074 16.328 81.2874 16.488C 81.7674 16.648 82.1914 16.864 82.5594 17.136C 82.9434 17.408 83.2474 17.752 83.4714 18.168C 83.7114 18.584 83.8314 19.096 83.8314 19.704C 83.8314 20.44 83.6634 21.064 83.3274 21.576C 82.9914 22.088 82.5514 22.504 82.0074 22.824C 81.4794 23.144 80.8874 23.376 80.2314 23.52C 79.5754 23.664 78.9274 23.736 78.2874 23.736C 77.5034 23.736 76.7754 23.648 76.1034 23.472C 75.4474 23.296 74.8714 23.032 74.3754 22.68C 73.8954 22.312 73.5114 21.864 73.2234 21.336C 72.9514 20.792 72.8074 20.152 72.7914 19.416L 75.5274 19.416ZM 104.06 22.752C 104.06 24.624 103.532 26.016 102.476 26.928C 101.436 27.856 99.9324 28.32 97.9644 28.32C 97.3404 28.32 96.7084 28.256 96.0684 28.128C 95.4444 28 94.8684 27.784 94.3404 27.48C 93.8284 27.176 93.3964 26.776 93.0444 26.28C 92.6924 25.784 92.4844 25.176 92.4204 24.456L 95.1564 24.456C 95.2364 24.84 95.3724 25.152 95.5644 25.392C 95.7564 25.632 95.9804 25.816 96.2364 25.944C 96.5084 26.088 96.8044 26.176 97.1244 26.208C 97.4444 26.256 97.7804 26.28 98.1324 26.28C 99.2364 26.28 100.044 26.008 100.556 25.464C 101.068 24.92 101.324 24.136 101.324 23.112L 101.324 21.216L 101.276 21.216C 100.892 21.904 100.364 22.44 99.6924 22.824C 99.0364 23.208 98.3244 23.4 97.5564 23.4C 96.5644 23.4 95.7164 23.232 95.0124 22.896C 94.3244 22.544 93.7484 22.072 93.2844 21.48C 92.8364 20.872 92.5084 20.176 92.3004 19.392C 92.0924 18.608 91.9884 17.768 91.9884 16.872C 91.9884 16.04 92.1164 15.248 92.3724 14.496C 92.6284 13.744 92.9964 13.088 93.4764 12.528C 93.9564 11.952 94.5404 11.496 95.2284 11.16C 95.9324 10.824 96.7244 10.656 97.6044 10.656C 98.3884 10.656 99.1084 10.824 99.7644 11.16C 100.42 11.48 100.924 11.992 101.276 12.696L 101.324 12.696L 101.324 10.992L 104.06 10.992L 104.06 22.752ZM 97.9884 21.24C 98.5964 21.24 99.1084 21.12 99.5244 20.88C 99.9564 20.624 100.3 20.296 100.556 19.896C 100.828 19.48 101.02 19.016 101.132 18.504C 101.26 17.976 101.324 17.448 101.324 16.92C 101.324 16.392 101.26 15.88 101.132 15.384C 101.004 14.888 100.804 14.448 100.532 14.064C 100.276 13.68 99.9324 13.376 99.5004 13.152C 99.0844 12.928 98.5804 12.816 97.9884 12.816C 97.3804 12.816 96.8684 12.944 96.4524 13.2C 96.0364 13.456 95.7004 13.792 95.4444 14.208C 95.1884 14.608 95.0044 15.072 94.8924 15.6C 94.7804 16.112 94.7244 16.624 94.7244 17.136C 94.7244 17.648 94.7884 18.152 94.9164 18.648C 95.0444 19.128 95.2364 19.56 95.4924 19.944C 95.7644 20.328 96.1004 20.64 96.5004 20.88C 96.9164 21.12 97.4124 21.24 97.9884 21.24ZM 112.503 23.736C 111.511 23.736 110.623 23.576 109.839 23.256C 109.071 22.92 108.415 22.464 107.871 21.888C 107.343 21.312 106.935 20.624 106.647 19.824C 106.375 19.024 106.239 18.144 106.239 17.184C 106.239 16.24 106.375 15.368 106.647 14.568C 106.935 13.768 107.343 13.08 107.871 12.504C 108.415 11.928 109.071 11.48 109.839 11.16C 110.623 10.824 111.511 10.656 112.503 10.656C 113.495 10.656 114.375 10.824 115.143 11.16C 115.927 11.48 116.583 11.928 117.111 12.504C 117.655 13.08 118.063 13.768 118.335 14.568C 118.623 15.368 118.767 16.24 118.767 17.184C 118.767 18.144 118.623 19.024 118.335 19.824C 118.063 20.624 117.655 21.312 117.111 21.888C 116.583 22.464 115.927 22.92 115.143 23.256C 114.375 23.576 113.495 23.736 112.503 23.736ZM 112.503 21.576C 113.111 21.576 113.639 21.448 114.087 21.192C 114.535 20.936 114.903 20.6 115.191 20.184C 115.479 19.768 115.687 19.304 115.815 18.792C 115.959 18.264 116.031 17.728 116.031 17.184C 116.031 16.656 115.959 16.128 115.815 15.6C 115.687 15.072 115.479 14.608 115.191 14.208C 114.903 13.792 114.535 13.456 114.087 13.2C 113.639 12.944 113.111 12.816 112.503 12.816C 111.895 12.816 111.367 12.944 110.919 13.2C 110.471 13.456 110.103 13.792 109.815 14.208C 109.527 14.608 109.311 15.072 109.167 15.6C 109.039 16.128 108.975 16.656 108.975 17.184C 108.975 17.728 109.039 18.264 109.167 18.792C 109.311 19.304 109.527 19.768 109.815 20.184C 110.103 20.6 110.471 20.936 110.919 21.192C 111.367 21.448 111.895 21.576 112.503 21.576ZM 126.73 23.736C 125.738 23.736 124.85 23.576 124.066 23.256C 123.298 22.92 122.642 22.464 122.098 21.888C 121.57 21.312 121.162 20.624 120.874 19.824C 120.602 19.024 120.466 18.144 120.466 17.184C 120.466 16.24 120.602 15.368 120.874 14.568C 121.162 13.768 121.57 13.08 122.098 12.504C 122.642 11.928 123.298 11.48 124.066 11.16C 124.85 10.824 125.738 10.656 126.73 10.656C 127.722 10.656 128.602 10.824 129.37 11.16C 130.154 11.48 130.81 11.928 131.338 12.504C 131.882 13.08 132.29 13.768 132.562 14.568C 132.85 15.368 132.994 16.24 132.994 17.184C 132.994 18.144 132.85 19.024 132.562 19.824C 132.29 20.624 131.882 21.312 131.338 21.888C 130.81 22.464 130.154 22.92 129.37 23.256C 128.602 23.576 127.722 23.736 126.73 23.736ZM 126.73 21.576C 127.338 21.576 127.866 21.448 128.314 21.192C 128.762 20.936 129.13 20.6 129.418 20.184C 129.706 19.768 129.914 19.304 130.042 18.792C 130.186 18.264 130.258 17.728 130.258 17.184C 130.258 16.656 130.186 16.128 130.042 15.6C 129.914 15.072 129.706 14.608 129.418 14.208C 129.13 13.792 128.762 13.456 128.314 13.2C 127.866 12.944 127.338 12.816 126.73 12.816C 126.122 12.816 125.594 12.944 125.146 13.2C 124.698 13.456 124.33 13.792 124.042 14.208C 123.754 14.608 123.538 15.072 123.394 15.6C 123.266 16.128 123.202 16.656 123.202 17.184C 123.202 17.728 123.266 18.264 123.394 18.792C 123.538 19.304 123.754 19.768 124.042 20.184C 124.33 20.6 124.698 20.936 125.146 21.192C 125.594 21.448 126.122 21.576 126.73 21.576ZM 146.956 23.4L 144.364 23.4L 144.364 21.72L 144.316 21.72C 143.948 22.44 143.412 22.96 142.708 23.28C 142.004 23.584 141.26 23.736 140.476 23.736C 139.5 23.736 138.644 23.568 137.908 23.232C 137.188 22.88 136.588 22.408 136.108 21.816C 135.628 21.224 135.268 20.528 135.028 19.728C 134.788 18.912 134.668 18.04 134.668 17.112C 134.668 15.992 134.82 15.024 135.124 14.208C 135.428 13.392 135.828 12.72 136.324 12.192C 136.836 11.664 137.412 11.28 138.052 11.04C 138.708 10.784 139.372 10.656 140.044 10.656C 140.428 10.656 140.82 10.696 141.22 10.776C 141.62 10.84 142.004 10.952 142.372 11.112C 142.74 11.272 143.076 11.48 143.38 11.736C 143.7 11.976 143.964 12.264 144.172 12.6L 144.22 12.6L 144.22 6.264L 146.956 6.264L 146.956 23.4ZM 137.404 17.328C 137.404 17.856 137.468 18.376 137.596 18.888C 137.74 19.4 137.948 19.856 138.22 20.256C 138.508 20.656 138.868 20.976 139.3 21.216C 139.732 21.456 140.244 21.576 140.836 21.576C 141.444 21.576 141.964 21.448 142.396 21.192C 142.844 20.936 143.204 20.6 143.476 20.184C 143.764 19.768 143.972 19.304 144.1 18.792C 144.244 18.264 144.316 17.728 144.316 17.184C 144.316 15.808 144.004 14.736 143.38 13.968C 142.772 13.2 141.94 12.816 140.884 12.816C 140.244 12.816 139.7 12.952 139.252 13.224C 138.82 13.48 138.46 13.824 138.172 14.256C 137.9 14.672 137.7 15.152 137.572 15.696C 137.46 16.224 137.404 16.768 137.404 17.328ZM 150.156 20.16L 153.492 20.16L 153.492 23.4L 150.156 23.4L 150.156 20.16ZM 162.003 6.264L 165.051 6.264L 168.147 19.368L 168.195 19.368L 171.651 6.264L 174.723 6.264L 178.083 19.368L 178.131 19.368L 181.323 6.264L 184.371 6.264L 179.643 23.4L 176.595 23.4L 173.163 10.296L 173.115 10.296L 169.611 23.4L 166.515 23.4L 162.003 6.264ZM 194.272 16.104C 194.24 15.672 194.144 15.256 193.984 14.856C 193.841 14.456 193.632 14.112 193.361 13.824C 193.105 13.52 192.784 13.28 192.401 13.104C 192.032 12.912 191.616 12.816 191.152 12.816C 190.672 12.816 190.233 12.904 189.833 13.08C 189.449 13.24 189.113 13.472 188.824 13.776C 188.552 14.064 188.329 14.408 188.152 14.808C 187.993 15.208 187.905 15.64 187.889 16.104L 194.272 16.104ZM 187.889 17.904C 187.889 18.384 187.953 18.848 188.081 19.296C 188.225 19.744 188.433 20.136 188.704 20.472C 188.976 20.808 189.321 21.08 189.736 21.288C 190.153 21.48 190.648 21.576 191.224 21.576C 192.024 21.576 192.664 21.408 193.145 21.072C 193.64 20.72 194.009 20.2 194.249 19.512L 196.841 19.512C 196.696 20.184 196.449 20.784 196.096 21.312C 195.744 21.84 195.32 22.288 194.824 22.656C 194.329 23.008 193.768 23.272 193.145 23.448C 192.536 23.64 191.897 23.736 191.224 23.736C 190.248 23.736 189.385 23.576 188.633 23.256C 187.88 22.936 187.241 22.488 186.713 21.912C 186.2 21.336 185.809 20.648 185.536 19.848C 185.281 19.048 185.153 18.168 185.153 17.208C 185.153 16.328 185.288 15.496 185.561 14.712C 185.849 13.912 186.249 13.216 186.76 12.624C 187.288 12.016 187.92 11.536 188.656 11.184C 189.393 10.832 190.224 10.656 191.152 10.656C 192.128 10.656 193 10.864 193.768 11.28C 194.553 11.68 195.2 12.216 195.712 12.888C 196.224 13.56 196.592 14.336 196.817 15.216C 197.057 16.08 197.121 16.976 197.008 17.904L 187.889 17.904ZM 204.429 10.992L 207.333 10.992L 209.757 20.256L 209.805 20.256L 212.133 10.992L 214.893 10.992L 217.125 20.256L 217.173 20.256L 219.693 10.992L 222.477 10.992L 218.589 23.4L 215.781 23.4L 213.477 14.184L 213.429 14.184L 211.149 23.4L 208.269 23.4L 204.429 10.992ZM 224.309 6.264L 227.045 6.264L 227.045 8.856L 224.309 8.856L 224.309 6.264ZM 224.309 10.992L 227.045 10.992L 227.045 23.4L 224.309 23.4L 224.309 10.992ZM 230.098 6.264L 232.834 6.264L 232.834 23.4L 230.098 23.4L 230.098 6.264ZM 235.887 6.264L 238.623 6.264L 238.623 23.4L 235.887 23.4L 235.887 6.264ZM 250.348 19.416C 250.428 20.216 250.732 20.776 251.26 21.096C 251.788 21.416 252.42 21.576 253.156 21.576C 253.412 21.576 253.7 21.56 254.02 21.528C 254.356 21.48 254.668 21.4 254.956 21.288C 255.244 21.176 255.476 21.016 255.652 20.808C 255.844 20.584 255.932 20.296 255.916 19.944C 255.9 19.592 255.772 19.304 255.532 19.08C 255.292 18.856 254.98 18.68 254.596 18.552C 254.228 18.408 253.804 18.288 253.324 18.192C 252.844 18.096 252.356 17.992 251.86 17.88C 251.348 17.768 250.852 17.632 250.372 17.472C 249.908 17.312 249.484 17.096 249.1 16.824C 248.732 16.552 248.436 16.208 248.212 15.792C 247.988 15.36 247.876 14.832 247.876 14.208C 247.876 13.536 248.036 12.976 248.356 12.528C 248.692 12.064 249.108 11.696 249.604 11.424C 250.116 11.136 250.676 10.936 251.284 10.824C 251.908 10.712 252.5 10.656 253.06 10.656C 253.7 10.656 254.308 10.728 254.884 10.872C 255.476 11 256.004 11.216 256.468 11.52C 256.948 11.824 257.34 12.224 257.644 12.72C 257.964 13.2 258.164 13.784 258.244 14.472L 255.388 14.472C 255.26 13.816 254.956 13.376 254.476 13.152C 254.012 12.928 253.476 12.816 252.868 12.816C 252.676 12.816 252.444 12.832 252.172 12.864C 251.916 12.896 251.668 12.96 251.428 13.056C 251.204 13.136 251.012 13.264 250.852 13.44C 250.692 13.6 250.612 13.816 250.612 14.088C 250.612 14.424 250.724 14.696 250.948 14.904C 251.188 15.112 251.492 15.288 251.86 15.432C 252.244 15.56 252.676 15.672 253.156 15.768C 253.636 15.864 254.132 15.968 254.644 16.08C 255.14 16.192 255.628 16.328 256.108 16.488C 256.588 16.648 257.012 16.864 257.38 17.136C 257.764 17.408 258.068 17.752 258.292 18.168C 258.532 18.584 258.652 19.096 258.652 19.704C 258.652 20.44 258.484 21.064 258.148 21.576C 257.812 22.088 257.372 22.504 256.828 22.824C 256.3 23.144 255.708 23.376 255.052 23.52C 254.396 23.664 253.748 23.736 253.108 23.736C 252.324 23.736 251.596 23.648 250.924 23.472C 250.268 23.296 249.692 23.032 249.196 22.68C 248.716 22.312 248.332 21.864 248.044 21.336C 247.772 20.792 247.628 20.152 247.612 19.416L 250.348 19.416ZM 269.249 16.104C 269.217 15.672 269.121 15.256 268.961 14.856C 268.817 14.456 268.609 14.112 268.337 13.824C 268.081 13.52 267.761 13.28 267.377 13.104C 267.009 12.912 266.593 12.816 266.129 12.816C 265.649 12.816 265.209 12.904 264.809 13.08C 264.425 13.24 264.089 13.472 263.801 13.776C 263.529 14.064 263.305 14.408 263.129 14.808C 262.969 15.208 262.881 15.64 262.865 16.104L 269.249 16.104ZM 262.865 17.904C 262.865 18.384 262.929 18.848 263.057 19.296C 263.201 19.744 263.409 20.136 263.681 20.472C 263.953 20.808 264.297 21.08 264.713 21.288C 265.129 21.48 265.625 21.576 266.201 21.576C 267.001 21.576 267.641 21.408 268.121 21.072C 268.617 20.72 268.985 20.2 269.225 19.512L 271.817 19.512C 271.673 20.184 271.425 20.784 271.073 21.312C 270.721 21.84 270.297 22.288 269.801 22.656C 269.305 23.008 268.745 23.272 268.121 23.448C 267.513 23.64 266.873 23.736 266.201 23.736C 265.225 23.736 264.361 23.576 263.609 23.256C 262.857 22.936 262.217 22.488 261.689 21.912C 261.177 21.336 260.785 20.648 260.513 19.848C 260.257 19.048 260.129 18.168 260.129 17.208C 260.129 16.328 260.265 15.496 260.537 14.712C 260.825 13.912 261.225 13.216 261.737 12.624C 262.265 12.016 262.897 11.536 263.633 11.184C 264.369 10.832 265.201 10.656 266.129 10.656C 267.105 10.656 267.977 10.864 268.745 11.28C 269.529 11.68 270.177 12.216 270.689 12.888C 271.201 13.56 271.569 14.336 271.793 15.216C 272.033 16.08 272.097 16.976 271.985 17.904L 262.865 17.904ZM 282.585 16.104C 282.553 15.672 282.457 15.256 282.297 14.856C 282.153 14.456 281.945 14.112 281.673 13.824C 281.417 13.52 281.097 13.28 280.713 13.104C 280.345 12.912 279.929 12.816 279.465 12.816C 278.985 12.816 278.545 12.904 278.145 13.08C 277.761 13.24 277.425 13.472 277.137 13.776C 276.865 14.064 276.641 14.408 276.465 14.808C 276.305 15.208 276.217 15.64 276.201 16.104L 282.585 16.104ZM 276.201 17.904C 276.201 18.384 276.265 18.848 276.393 19.296C 276.537 19.744 276.745 20.136 277.017 20.472C 277.289 20.808 277.633 21.08 278.049 21.288C 278.465 21.48 278.961 21.576 279.537 21.576C 280.337 21.576 280.977 21.408 281.457 21.072C 281.953 20.72 282.321 20.2 282.561 19.512L 285.153 19.512C 285.009 20.184 284.761 20.784 284.409 21.312C 284.057 21.84 283.633 22.288 283.137 22.656C 282.641 23.008 282.081 23.272 281.457 23.448C 280.849 23.64 280.209 23.736 279.537 23.736C 278.561 23.736 277.697 23.576 276.945 23.256C 276.193 22.936 275.553 22.488 275.025 21.912C 274.513 21.336 274.121 20.648 273.849 19.848C 273.593 19.048 273.465 18.168 273.465 17.208C 273.465 16.328 273.601 15.496 273.873 14.712C 274.161 13.912 274.561 13.216 275.073 12.624C 275.601 12.016 276.233 11.536 276.969 11.184C 277.705 10.832 278.537 10.656 279.465 10.656C 280.441 10.656 281.313 10.864 282.081 11.28C 282.865 11.68 283.513 12.216 284.025 12.888C 284.537 13.56 284.905 14.336 285.129 15.216C 285.369 16.08 285.433 16.976 285.321 17.904L 276.201 17.904ZM 0.072 40.296L 3.072 40.296L 6.312 49.56L 6.36 49.56L 9.504 40.296L 12.36 40.296L 7.536 53.376C 7.312 53.936 7.088 54.472 6.864 54.984C 6.656 55.496 6.392 55.944 6.072 56.328C 5.768 56.728 5.384 57.04 4.92 57.264C 4.456 57.504 3.864 57.624 3.144 57.624C 2.504 57.624 1.872 57.576 1.248 57.48L 1.248 55.176C 1.472 55.208 1.688 55.24 1.896 55.272C 2.104 55.32 2.32 55.344 2.544 55.344C 2.864 55.344 3.128 55.304 3.336 55.224C 3.544 55.144 3.712 55.024 3.84 54.864C 3.984 54.72 4.104 54.544 4.2 54.336C 4.296 54.128 4.384 53.888 4.464 53.616L 4.776 52.656L 0.072 40.296ZM 19.5733 53.04C 18.5813 53.04 17.6933 52.88 16.9093 52.56C 16.1413 52.224 15.4853 51.768 14.9413 51.192C 14.4133 50.616 14.0053 49.928 13.7173 49.128C 13.4453 48.328 13.3093 47.448 13.3093 46.488C 13.3093 45.544 13.4453 44.672 13.7173 43.872C 14.0053 43.072 14.4133 42.384 14.9413 41.808C 15.4853 41.232 16.1413 40.784 16.9093 40.464C 17.6933 40.128 18.5813 39.96 19.5733 39.96C 20.5653 39.96 21.4453 40.128 22.2133 40.464C 22.9973 40.784 23.6533 41.232 24.1813 41.808C 24.7253 42.384 25.1333 43.072 25.4053 43.872C 25.6933 44.672 25.8373 45.544 25.8373 46.488C 25.8373 47.448 25.6933 48.328 25.4053 49.128C 25.1333 49.928 24.7253 50.616 24.1813 51.192C 23.6533 51.768 22.9973 52.224 22.2133 52.56C 21.4453 52.88 20.5653 53.04 19.5733 53.04ZM 19.5733 50.88C 20.1813 50.88 20.7093 50.752 21.1573 50.496C 21.6053 50.24 21.9733 49.904 22.2613 49.488C 22.5493 49.072 22.7573 48.608 22.8853 48.096C 23.0293 47.568 23.1013 47.032 23.1013 46.488C 23.1013 45.96 23.0293 45.432 22.8853 44.904C 22.7573 44.376 22.5493 43.912 22.2613 43.512C 21.9733 43.096 21.6053 42.76 21.1573 42.504C 20.7093 42.248 20.1813 42.12 19.5733 42.12C 18.9653 42.12 18.4373 42.248 17.9893 42.504C 17.5413 42.76 17.1733 43.096 16.8853 43.512C 16.5973 43.912 16.3813 44.376 16.2373 44.904C 16.1093 45.432 16.0453 45.96 16.0453 46.488C 16.0453 47.032 16.1093 47.568 16.2373 48.096C 16.3813 48.608 16.5973 49.072 16.8853 49.488C 17.1733 49.904 17.5413 50.24 17.9893 50.496C 18.4373 50.752 18.9653 50.88 19.5733 50.88ZM 39.0079 52.704L 36.3199 52.704L 36.3199 50.976L 36.2719 50.976C 35.9359 51.6 35.4319 52.104 34.7599 52.488C 34.1039 52.856 33.4319 53.04 32.7439 53.04C 31.1119 53.04 29.9279 52.64 29.1919 51.84C 28.4719 51.024 28.1119 49.8 28.1119 48.168L 28.1119 40.296L 30.8479 40.296L 30.8479 47.904C 30.8479 48.992 31.0559 49.76 31.4719 50.208C 31.8879 50.656 32.4719 50.88 33.2239 50.88C 33.7999 50.88 34.2799 50.792 34.6639 50.616C 35.0479 50.44 35.3599 50.208 35.5999 49.92C 35.8399 49.616 36.0079 49.256 36.1039 48.84C 36.2159 48.424 36.2719 47.976 36.2719 47.496L 36.2719 40.296L 39.0079 40.296L 39.0079 52.704ZM 47.3248 40.296L 49.3888 40.296L 49.3888 36.576L 52.1248 36.576L 52.1248 40.296L 54.5968 40.296L 54.5968 42.336L 52.1248 42.336L 52.1248 48.96C 52.1248 49.248 52.1328 49.496 52.1488 49.704C 52.1808 49.912 52.2368 50.088 52.3168 50.232C 52.4128 50.376 52.5488 50.488 52.7248 50.568C 52.9008 50.632 53.1408 50.664 53.4448 50.664C 53.6368 50.664 53.8288 50.664 54.0208 50.664C 54.2128 50.648 54.4048 50.616 54.5968 50.568L 54.5968 52.68C 54.2928 52.712 53.9968 52.744 53.7088 52.776C 53.4208 52.808 53.1248 52.824 52.8208 52.824C 52.1008 52.824 51.5168 52.76 51.0688 52.632C 50.6368 52.488 50.2928 52.288 50.0368 52.032C 49.7968 51.76 49.6288 51.424 49.5328 51.024C 49.4528 50.624 49.4048 50.168 49.3888 49.656L 49.3888 42.336L 47.3248 42.336L 47.3248 40.296ZM 56.565 35.568L 59.301 35.568L 59.301 41.928L 59.349 41.928C 59.685 41.368 60.181 40.904 60.837 40.536C 61.509 40.152 62.253 39.96 63.069 39.96C 64.429 39.96 65.501 40.312 66.285 41.016C 67.069 41.72 67.461 42.776 67.461 44.184L 67.461 52.704L 64.725 52.704L 64.725 44.904C 64.693 43.928 64.485 43.224 64.101 42.792C 63.717 42.344 63.117 42.12 62.301 42.12C 61.837 42.12 61.421 42.208 61.053 42.384C 60.685 42.544 60.373 42.776 60.117 43.08C 59.861 43.368 59.661 43.712 59.517 44.112C 59.373 44.512 59.301 44.936 59.301 45.384L 59.301 52.704L 56.565 52.704L 56.565 35.568ZM 78.8662 45.408C 78.8342 44.976 78.7382 44.56 78.5782 44.16C 78.4343 43.76 78.2262 43.416 77.9543 43.128C 77.6983 42.824 77.3782 42.584 76.9943 42.408C 76.6262 42.216 76.2102 42.12 75.7462 42.12C 75.2662 42.12 74.8263 42.208 74.4263 42.384C 74.0423 42.544 73.7063 42.776 73.4182 43.08C 73.1462 43.368 72.9223 43.712 72.7462 44.112C 72.5863 44.512 72.4983 44.944 72.4823 45.408L 78.8662 45.408ZM 72.4823 47.208C 72.4823 47.688 72.5463 48.152 72.6743 48.6C 72.8183 49.048 73.0263 49.44 73.2982 49.776C 73.5702 50.112 73.9143 50.384 74.3302 50.592C 74.7463 50.784 75.2422 50.88 75.8182 50.88C 76.6182 50.88 77.2582 50.712 77.7383 50.376C 78.2342 50.024 78.6023 49.504 78.8423 48.816L 81.4343 48.816C 81.2902 49.488 81.0423 50.088 80.6902 50.616C 80.3382 51.144 79.9142 51.592 79.4182 51.96C 78.9223 52.312 78.3622 52.576 77.7383 52.752C 77.1302 52.944 76.4903 53.04 75.8182 53.04C 74.8422 53.04 73.9783 52.88 73.2263 52.56C 72.4742 52.24 71.8343 51.792 71.3063 51.216C 70.7942 50.64 70.4023 49.952 70.1302 49.152C 69.8743 48.352 69.7463 47.472 69.7463 46.512C 69.7463 45.632 69.8822 44.8 70.1543 44.016C 70.4423 43.216 70.8423 42.52 71.3542 41.928C 71.8822 41.32 72.5142 40.84 73.2502 40.488C 73.9863 40.136 74.8182 39.96 75.7462 39.96C 76.7222 39.96 77.5942 40.168 78.3622 40.584C 79.1463 40.984 79.7942 41.52 80.3062 42.192C 80.8182 42.864 81.1862 43.64 81.4103 44.52C 81.6503 45.384 81.7143 46.28 81.6022 47.208L 72.4823 47.208ZM 83.6822 40.296L 86.2742 40.296L 86.2742 42.12L 86.3222 42.168C 86.7382 41.48 87.2822 40.944 87.9542 40.56C 88.6262 40.16 89.3702 39.96 90.1862 39.96C 91.5462 39.96 92.6182 40.312 93.4022 41.016C 94.1862 41.72 94.5782 42.776 94.5782 44.184L 94.5782 52.704L 91.8422 52.704L 91.8422 44.904C 91.8102 43.928 91.6022 43.224 91.2182 42.792C 90.8342 42.344 90.2342 42.12 89.4182 42.12C 88.9542 42.12 88.5382 42.208 88.1702 42.384C 87.8022 42.544 87.4902 42.776 87.2342 43.08C 86.9782 43.368 86.7782 43.712 86.6342 44.112C 86.4902 44.512 86.4182 44.936 86.4182 45.384L 86.4182 52.704L 83.6822 52.704L 83.6822 40.296ZM 97.6794 49.464L 101.015 49.464L 101.015 52.704L 97.6794 52.704L 97.6794 49.464ZM 109.575 35.568L 123.447 35.568L 123.447 38.16L 117.999 38.16L 117.999 52.704L 114.999 52.704L 114.999 38.16L 109.575 38.16L 109.575 35.568ZM 125.049 35.568L 127.785 35.568L 127.785 41.928L 127.833 41.928C 128.169 41.368 128.665 40.904 129.321 40.536C 129.993 40.152 130.737 39.96 131.553 39.96C 132.913 39.96 133.985 40.312 134.769 41.016C 135.553 41.72 135.945 42.776 135.945 44.184L 135.945 52.704L 133.209 52.704L 133.209 44.904C 133.177 43.928 132.969 43.224 132.585 42.792C 132.201 42.344 131.601 42.12 130.785 42.12C 130.321 42.12 129.905 42.208 129.537 42.384C 129.169 42.544 128.857 42.776 128.601 43.08C 128.345 43.368 128.145 43.712 128.001 44.112C 127.857 44.512 127.785 44.936 127.785 45.384L 127.785 52.704L 125.049 52.704L 125.049 35.568ZM 149.223 49.944C 149.223 50.28 149.263 50.52 149.343 50.664C 149.439 50.808 149.615 50.88 149.871 50.88C 149.951 50.88 150.047 50.88 150.159 50.88C 150.271 50.88 150.399 50.864 150.543 50.832L 150.543 52.728C 150.447 52.76 150.319 52.792 150.159 52.824C 150.015 52.872 149.863 52.912 149.703 52.944C 149.543 52.976 149.383 53 149.223 53.016C 149.063 53.032 148.927 53.04 148.815 53.04C 148.255 53.04 147.791 52.928 147.423 52.704C 147.055 52.48 146.815 52.088 146.703 51.528C 146.159 52.056 145.487 52.44 144.687 52.68C 143.903 52.92 143.143 53.04 142.407 53.04C 141.847 53.04 141.311 52.96 140.799 52.8C 140.287 52.656 139.831 52.44 139.431 52.152C 139.047 51.848 138.735 51.472 138.495 51.024C 138.271 50.56 138.159 50.024 138.159 49.416C 138.159 48.648 138.295 48.024 138.567 47.544C 138.855 47.064 139.223 46.688 139.671 46.416C 140.135 46.144 140.647 45.952 141.207 45.84C 141.783 45.712 142.359 45.616 142.935 45.552C 143.431 45.456 143.903 45.392 144.351 45.36C 144.799 45.312 145.191 45.24 145.527 45.144C 145.879 45.048 146.151 44.904 146.343 44.712C 146.551 44.504 146.655 44.2 146.655 43.8C 146.655 43.448 146.567 43.16 146.391 42.936C 146.231 42.712 146.023 42.544 145.767 42.432C 145.527 42.304 145.255 42.224 144.951 42.192C 144.647 42.144 144.359 42.12 144.087 42.12C 143.319 42.12 142.687 42.28 142.191 42.6C 141.695 42.92 141.415 43.416 141.351 44.088L 138.615 44.088C 138.663 43.288 138.855 42.624 139.191 42.096C 139.527 41.568 139.951 41.144 140.463 40.824C 140.991 40.504 141.583 40.28 142.239 40.152C 142.895 40.024 143.567 39.96 144.255 39.96C 144.863 39.96 145.463 40.024 146.055 40.152C 146.647 40.28 147.175 40.488 147.639 40.776C 148.119 41.064 148.503 41.44 148.791 41.904C 149.079 42.352 149.223 42.904 149.223 43.56L 149.223 49.944ZM 146.487 46.488C 146.071 46.76 145.559 46.928 144.951 46.992C 144.343 47.04 143.735 47.12 143.127 47.232C 142.839 47.28 142.559 47.352 142.287 47.448C 142.015 47.528 141.775 47.648 141.567 47.808C 141.359 47.952 141.191 48.152 141.063 48.408C 140.951 48.648 140.895 48.944 140.895 49.296C 140.895 49.6 140.983 49.856 141.159 50.064C 141.335 50.272 141.543 50.44 141.783 50.568C 142.039 50.68 142.311 50.76 142.599 50.808C 142.903 50.856 143.175 50.88 143.415 50.88C 143.719 50.88 144.047 50.84 144.399 50.76C 144.751 50.68 145.079 50.544 145.383 50.352C 145.703 50.16 145.967 49.92 146.175 49.632C 146.383 49.328 146.487 48.96 146.487 48.528L 146.487 46.488ZM 152.167 40.296L 154.759 40.296L 154.759 42.12L 154.807 42.168C 155.223 41.48 155.767 40.944 156.439 40.56C 157.111 40.16 157.855 39.96 158.671 39.96C 160.031 39.96 161.103 40.312 161.887 41.016C 162.671 41.72 163.063 42.776 163.063 44.184L 163.063 52.704L 160.327 52.704L 160.327 44.904C 160.295 43.928 160.087 43.224 159.703 42.792C 159.319 42.344 158.719 42.12 157.903 42.12C 157.439 42.12 157.023 42.208 156.655 42.384C 156.287 42.544 155.975 42.776 155.719 43.08C 155.463 43.368 155.263 43.712 155.119 44.112C 154.975 44.512 154.903 44.936 154.903 45.384L 154.903 52.704L 152.167 52.704L 152.167 40.296ZM 166.02 35.568L 168.756 35.568L 168.756 45.312L 173.7 40.296L 177.06 40.296L 172.308 44.856L 177.516 52.704L 174.18 52.704L 170.388 46.68L 168.756 48.264L 168.756 52.704L 166.02 52.704L 166.02 35.568ZM 184.15 40.296L 187.15 40.296L 190.39 49.56L 190.438 49.56L 193.582 40.296L 196.438 40.296L 191.614 53.376C 191.39 53.936 191.166 54.472 190.942 54.984C 190.734 55.496 190.47 55.944 190.15 56.328C 189.846 56.728 189.462 57.04 188.998 57.264C 188.534 57.504 187.942 57.624 187.222 57.624C 186.582 57.624 185.95 57.576 185.326 57.48L 185.326 55.176C 185.55 55.208 185.766 55.24 185.974 55.272C 186.182 55.32 186.398 55.344 186.622 55.344C 186.942 55.344 187.206 55.304 187.414 55.224C 187.622 55.144 187.79 55.024 187.918 54.864C 188.062 54.72 188.182 54.544 188.278 54.336C 188.374 54.128 188.462 53.888 188.542 53.616L 188.854 52.656L 184.15 40.296ZM 203.651 53.04C 202.659 53.04 201.771 52.88 200.987 52.56C 200.219 52.224 199.563 51.768 199.019 51.192C 198.491 50.616 198.083 49.928 197.795 49.128C 197.523 48.328 197.387 47.448 197.387 46.488C 197.387 45.544 197.523 44.672 197.795 43.872C 198.083 43.072 198.491 42.384 199.019 41.808C 199.563 41.232 200.219 40.784 200.987 40.464C 201.771 40.128 202.659 39.96 203.651 39.96C 204.643 39.96 205.523 40.128 206.291 40.464C 207.075 40.784 207.731 41.232 208.259 41.808C 208.803 42.384 209.211 43.072 209.483 43.872C 209.771 44.672 209.915 45.544 209.915 46.488C 209.915 47.448 209.771 48.328 209.483 49.128C 209.211 49.928 208.803 50.616 208.259 51.192C 207.731 51.768 207.075 52.224 206.291 52.56C 205.523 52.88 204.643 53.04 203.651 53.04ZM 203.651 50.88C 204.259 50.88 204.787 50.752 205.235 50.496C 205.683 50.24 206.051 49.904 206.339 49.488C 206.627 49.072 206.835 48.608 206.963 48.096C 207.107 47.568 207.179 47.032 207.179 46.488C 207.179 45.96 207.107 45.432 206.963 44.904C 206.835 44.376 206.627 43.912 206.339 43.512C 206.051 43.096 205.683 42.76 205.235 42.504C 204.787 42.248 204.259 42.12 203.651 42.12C 203.043 42.12 202.515 42.248 202.067 42.504C 201.619 42.76 201.251 43.096 200.963 43.512C 200.675 43.912 200.459 44.376 200.315 44.904C 200.187 45.432 200.123 45.96 200.123 46.488C 200.123 47.032 200.187 47.568 200.315 48.096C 200.459 48.608 200.675 49.072 200.963 49.488C 201.251 49.904 201.619 50.24 202.067 50.496C 202.515 50.752 203.043 50.88 203.651 50.88ZM 223.086 52.704L 220.398 52.704L 220.398 50.976L 220.35 50.976C 220.014 51.6 219.51 52.104 218.838 52.488C 218.182 52.856 217.51 53.04 216.822 53.04C 215.19 53.04 214.006 52.64 213.27 51.84C 212.55 51.024 212.19 49.8 212.19 48.168L 212.19 40.296L 214.926 40.296L 214.926 47.904C 214.926 48.992 215.134 49.76 215.55 50.208C 215.966 50.656 216.55 50.88 217.302 50.88C 217.878 50.88 218.358 50.792 218.742 50.616C 219.126 50.44 219.438 50.208 219.678 49.92C 219.918 49.616 220.086 49.256 220.182 48.84C 220.294 48.424 220.35 47.976 220.35 47.496L 220.35 40.296L 223.086 40.296L 223.086 52.704ZM 226.259 49.704L 229.475 49.704L 229.475 52.704L 226.259 52.704L 226.259 49.704ZM 226.379 35.568L 229.379 35.568L 229.379 40.512L 228.587 47.928L 227.171 47.928L 226.379 40.512L 226.379 35.568Z"/>
</defs>
</svg>
