<svg width="323" height="86" viewBox="0 0 323 86" version="1.1" xmlns="http://www.w3.org/2000/svg" xmlns:xlink="http://www.w3.org/1999/xlink" xmlns:figma="http://www.figma.com/figma/ns">
<title>Message-right-nine</title>
<desc>Created using Figma</desc>
<g id="Canvas" transform="translate(-3699 -1679)" figma:type="canvas">
<rect x="3699" y="1679" width="323" height="86" fill="#E5E5E5"/>
<mask id="mask0_alpha" mask-type="alpha">
<path d="M 3025 -474L 4465 -474L 4465 2472L 3025 2472L 3025 -474Z" fill="#FFFFFF"/>
</mask>
<g id="Home 3" style="mix-blend-mode:normal;" mask="url(#mask0_alpha)" figma:type="frame">
<path d="M 3025 -474L 4465 -474L 4465 2472L 3025 2472L 3025 -474Z" fill="#FFFFFF"/>
<g id="iMessage Thread" style="mix-blend-mode:normal;" figma:type="frame">
<g id="Message-right-nine" style="mix-blend-mode:normal;" figma:type="frame">
<g id="Bubble" style="mix-blend-mode:normal;" figma:type="vector-operation">
<use xlink:href="#path0_fill" transform="translate(3699 1679.09)" fill="#007AFF" style="mix-blend-mode:normal;"/>
</g>
<g id="This Thursday @ 4pm." style="mix-blend-mode:normal;" figma:type="text">
<use xlink:href="#path1_fill" transform="translate(3731.83 1706.5)" fill="#FFFFFF" style="mix-blend-mode:normal;"/>
</g>
</g>
</g>
</g>
</g>
<defs>
<path id="path0_fill" fill-rule="evenodd" d="M 42.5 0C 19.0278 0 0 19.028 0 42.5C 0 65.972 19.0278 85 42.5 85L 265.5 85C 275.387 85 284.485 81.624 291.705 75.962C 299.438 81.6298 309.192 85 319.937 85C 319.97 85 320.039 84.9984 320.137 84.9962C 320.545 84.9872 321.453 84.9669 322.354 85C 314.351 82.0229 308.542 74.7682 307.848 65.5714L 307.848 46.1183C 307.949 44.9255 308 43.7188 308 42.5C 308 19.028 288.972 0 265.5 0L 42.5 0Z"/>
<path id="path1_fill" d="M 0.192 6.264L 14.064 6.264L 14.064 8.856L 8.616 8.856L 8.616 23.4L 5.616 23.4L 5.616 8.856L 0.192 8.856L 0.192 6.264ZM 15.6666 6.264L 18.4026 6.264L 18.4026 12.624L 18.4506 12.624C 18.7866 12.064 19.2826 11.6 19.9386 11.232C 20.6106 10.848 21.3546 10.656 22.1706 10.656C 23.5306 10.656 24.6026 11.008 25.3866 11.712C 26.1706 12.416 26.5626 13.472 26.5626 14.88L 26.5626 23.4L 23.8266 23.4L 23.8266 15.6C 23.7946 14.624 23.5866 13.92 23.2026 13.488C 22.8186 13.04 22.2186 12.816 21.4026 12.816C 20.9386 12.816 20.5226 12.904 20.1546 13.08C 19.7866 13.24 19.4746 13.472 19.2186 13.776C 18.9626 14.064 18.7626 14.408 18.6186 14.808C 18.4746 15.208 18.4026 15.632 18.4026 16.08L 18.4026 23.4L 15.6666 23.4L 15.6666 6.264ZM 29.5198 6.264L 32.2558 6.264L 32.2558 8.856L 29.5198 8.856L 29.5198 6.264ZM 29.5198 10.992L 32.2558 10.992L 32.2558 23.4L 29.5198 23.4L 29.5198 10.992ZM 37.3009 19.416C 37.3809 20.216 37.6849 20.776 38.2129 21.096C 38.7409 21.416 39.3729 21.576 40.1089 21.576C 40.3649 21.576 40.6529 21.56 40.9729 21.528C 41.3089 21.48 41.6209 21.4 41.9089 21.288C 42.1969 21.176 42.4289 21.016 42.6049 20.808C 42.7969 20.584 42.8849 20.296 42.8689 19.944C 42.8529 19.592 42.7249 19.304 42.4849 19.08C 42.2449 18.856 41.9329 18.68 41.5489 18.552C 41.1809 18.408 40.7569 18.288 40.2769 18.192C 39.7969 18.096 39.3089 17.992 38.8129 17.88C 38.3009 17.768 37.8049 17.632 37.3249 17.472C 36.8609 17.312 36.4369 17.096 36.0529 16.824C 35.6849 16.552 35.3889 16.208 35.1649 15.792C 34.9409 15.36 34.8289 14.832 34.8289 14.208C 34.8289 13.536 34.9889 12.976 35.3089 12.528C 35.6449 12.064 36.0609 11.696 36.5569 11.424C 37.0689 11.136 37.6289 10.936 38.2369 10.824C 38.8609 10.712 39.4529 10.656 40.0129 10.656C 40.6529 10.656 41.2609 10.728 41.8369 10.872C 42.4289 11 42.9569 11.216 43.4209 11.52C 43.9009 11.824 44.2929 12.224 44.5969 12.72C 44.9169 13.2 45.1169 13.784 45.1969 14.472L 42.3409 14.472C 42.2129 13.816 41.9089 13.376 41.4289 13.152C 40.9649 12.928 40.4289 12.816 39.8209 12.816C 39.6289 12.816 39.3969 12.832 39.1249 12.864C 38.8689 12.896 38.6209 12.96 38.3809 13.056C 38.1569 13.136 37.9649 13.264 37.8049 13.44C 37.6449 13.6 37.5649 13.816 37.5649 14.088C 37.5649 14.424 37.6769 14.696 37.9009 14.904C 38.1409 15.112 38.4449 15.288 38.8129 15.432C 39.1969 15.56 39.6289 15.672 40.1089 15.768C 40.5889 15.864 41.0849 15.968 41.5969 16.08C 42.0929 16.192 42.5809 16.328 43.0609 16.488C 43.5409 16.648 43.9649 16.864 44.3329 17.136C 44.7169 17.408 45.0209 17.752 45.2449 18.168C 45.4849 18.584 45.6049 19.096 45.6049 19.704C 45.6049 20.44 45.4369 21.064 45.1009 21.576C 44.7649 22.088 44.3249 22.504 43.7809 22.824C 43.2529 23.144 42.6609 23.376 42.0049 23.52C 41.3489 23.664 40.7009 23.736 40.0609 23.736C 39.2769 23.736 38.5489 23.648 37.8769 23.472C 37.2209 23.296 36.6449 23.032 36.1489 22.68C 35.6689 22.312 35.2849 21.864 34.9969 21.336C 34.7249 20.792 34.5809 20.152 34.5649 19.416L 37.3009 19.416ZM 53.1139 6.264L 66.9859 6.264L 66.9859 8.856L 61.5379 8.856L 61.5379 23.4L 58.5379 23.4L 58.5379 8.856L 53.1139 8.856L 53.1139 6.264ZM 68.5884 6.264L 71.3244 6.264L 71.3244 12.624L 71.3724 12.624C 71.7084 12.064 72.2044 11.6 72.8604 11.232C 73.5324 10.848 74.2764 10.656 75.0924 10.656C 76.4524 10.656 77.5244 11.008 78.3084 11.712C 79.0924 12.416 79.4844 13.472 79.4844 14.88L 79.4844 23.4L 76.7484 23.4L 76.7484 15.6C 76.7164 14.624 76.5084 13.92 76.1244 13.488C 75.7404 13.04 75.1404 12.816 74.3244 12.816C 73.8604 12.816 73.4444 12.904 73.0764 13.08C 72.7084 13.24 72.3964 13.472 72.1404 13.776C 71.8844 14.064 71.6844 14.408 71.5404 14.808C 71.3964 15.208 71.3244 15.632 71.3244 16.08L 71.3244 23.4L 68.5884 23.4L 68.5884 6.264ZM 93.2657 23.4L 90.5777 23.4L 90.5777 21.672L 90.5297 21.672C 90.1937 22.296 89.6897 22.8 89.0177 23.184C 88.3617 23.552 87.6897 23.736 87.0017 23.736C 85.3697 23.736 84.1857 23.336 83.4497 22.536C 82.7297 21.72 82.3697 20.496 82.3697 18.864L 82.3697 10.992L 85.1057 10.992L 85.1057 18.6C 85.1057 19.688 85.3137 20.456 85.7297 20.904C 86.1457 21.352 86.7297 21.576 87.4817 21.576C 88.0577 21.576 88.5377 21.488 88.9217 21.312C 89.3057 21.136 89.6177 20.904 89.8577 20.616C 90.0977 20.312 90.2657 19.952 90.3617 19.536C 90.4737 19.12 90.5297 18.672 90.5297 18.192L 90.5297 10.992L 93.2657 10.992L 93.2657 23.4ZM 96.1509 10.992L 98.7189 10.992L 98.7189 13.392L 98.7669 13.392C 98.8469 13.056 98.9989 12.728 99.2229 12.408C 99.4629 12.088 99.7429 11.8 100.063 11.544C 100.399 11.272 100.767 11.056 101.167 10.896C 101.567 10.736 101.975 10.656 102.391 10.656C 102.711 10.656 102.927 10.664 103.039 10.68C 103.167 10.696 103.295 10.712 103.423 10.728L 103.423 13.368C 103.231 13.336 103.031 13.312 102.823 13.296C 102.631 13.264 102.439 13.248 102.247 13.248C 101.783 13.248 101.343 13.344 100.927 13.536C 100.527 13.712 100.175 13.984 99.8709 14.352C 99.5669 14.704 99.3269 15.144 99.1509 15.672C 98.9749 16.2 98.8869 16.808 98.8869 17.496L 98.8869 23.4L 96.1509 23.4L 96.1509 10.992ZM 106.652 19.416C 106.732 20.216 107.036 20.776 107.564 21.096C 108.092 21.416 108.724 21.576 109.46 21.576C 109.716 21.576 110.004 21.56 110.324 21.528C 110.66 21.48 110.972 21.4 111.26 21.288C 111.548 21.176 111.78 21.016 111.956 20.808C 112.148 20.584 112.236 20.296 112.22 19.944C 112.204 19.592 112.076 19.304 111.836 19.08C 111.596 18.856 111.284 18.68 110.9 18.552C 110.532 18.408 110.108 18.288 109.628 18.192C 109.148 18.096 108.66 17.992 108.164 17.88C 107.652 17.768 107.156 17.632 106.676 17.472C 106.212 17.312 105.788 17.096 105.404 16.824C 105.036 16.552 104.74 16.208 104.516 15.792C 104.292 15.36 104.18 14.832 104.18 14.208C 104.18 13.536 104.34 12.976 104.66 12.528C 104.996 12.064 105.412 11.696 105.908 11.424C 106.42 11.136 106.98 10.936 107.588 10.824C 108.212 10.712 108.804 10.656 109.364 10.656C 110.004 10.656 110.612 10.728 111.188 10.872C 111.78 11 112.308 11.216 112.772 11.52C 113.252 11.824 113.644 12.224 113.948 12.72C 114.268 13.2 114.468 13.784 114.548 14.472L 111.692 14.472C 111.564 13.816 111.26 13.376 110.78 13.152C 110.316 12.928 109.78 12.816 109.172 12.816C 108.98 12.816 108.748 12.832 108.476 12.864C 108.22 12.896 107.972 12.96 107.732 13.056C 107.508 13.136 107.316 13.264 107.156 13.44C 106.996 13.6 106.916 13.816 106.916 14.088C 106.916 14.424 107.028 14.696 107.252 14.904C 107.492 15.112 107.796 15.288 108.164 15.432C 108.548 15.56 108.98 15.672 109.46 15.768C 109.94 15.864 110.436 15.968 110.948 16.08C 111.444 16.192 111.932 16.328 112.412 16.488C 112.892 16.648 113.316 16.864 113.684 17.136C 114.068 17.408 114.372 17.752 114.596 18.168C 114.836 18.584 114.956 19.096 114.956 19.704C 114.956 20.44 114.788 21.064 114.452 21.576C 114.116 22.088 113.676 22.504 113.132 22.824C 112.604 23.144 112.012 23.376 111.356 23.52C 110.7 23.664 110.052 23.736 109.412 23.736C 108.628 23.736 107.9 23.648 107.228 23.472C 106.572 23.296 105.996 23.032 105.5 22.68C 105.02 22.312 104.636 21.864 104.348 21.336C 104.076 20.792 103.932 20.152 103.916 19.416L 106.652 19.416ZM 128.722 23.4L 126.13 23.4L 126.13 21.72L 126.082 21.72C 125.714 22.44 125.178 22.96 124.474 23.28C 123.77 23.584 123.026 23.736 122.242 23.736C 121.266 23.736 120.41 23.568 119.674 23.232C 118.954 22.88 118.354 22.408 117.874 21.816C 117.394 21.224 117.034 20.528 116.794 19.728C 116.554 18.912 116.434 18.04 116.434 17.112C 116.434 15.992 116.586 15.024 116.89 14.208C 117.194 13.392 117.594 12.72 118.09 12.192C 118.602 11.664 119.178 11.28 119.818 11.04C 120.474 10.784 121.138 10.656 121.81 10.656C 122.194 10.656 122.586 10.696 122.986 10.776C 123.386 10.84 123.77 10.952 124.138 11.112C 124.506 11.272 124.842 11.48 125.146 11.736C 125.466 11.976 125.73 12.264 125.938 12.6L 125.986 12.6L 125.986 6.264L 128.722 6.264L 128.722 23.4ZM 119.17 17.328C 119.17 17.856 119.234 18.376 119.362 18.888C 119.506 19.4 119.714 19.856 119.986 20.256C 120.274 20.656 120.634 20.976 121.066 21.216C 121.498 21.456 122.01 21.576 122.602 21.576C 123.21 21.576 123.73 21.448 124.162 21.192C 124.61 20.936 124.97 20.6 125.242 20.184C 125.53 19.768 125.738 19.304 125.866 18.792C 126.01 18.264 126.082 17.728 126.082 17.184C 126.082 15.808 125.77 14.736 125.146 13.968C 124.538 13.2 123.706 12.816 122.65 12.816C 122.01 12.816 121.466 12.952 121.018 13.224C 120.586 13.48 120.226 13.824 119.938 14.256C 119.666 14.672 119.466 15.152 119.338 15.696C 119.226 16.224 119.17 16.768 119.17 17.328ZM 142.098 20.64C 142.098 20.976 142.138 21.216 142.218 21.36C 142.314 21.504 142.49 21.576 142.746 21.576C 142.826 21.576 142.922 21.576 143.034 21.576C 143.146 21.576 143.274 21.56 143.418 21.528L 143.418 23.424C 143.322 23.456 143.194 23.488 143.034 23.52C 142.89 23.568 142.738 23.608 142.578 23.64C 142.418 23.672 142.258 23.696 142.098 23.712C 141.938 23.728 141.802 23.736 141.69 23.736C 141.13 23.736 140.666 23.624 140.298 23.4C 139.93 23.176 139.69 22.784 139.578 22.224C 139.034 22.752 138.362 23.136 137.562 23.376C 136.778 23.616 136.018 23.736 135.282 23.736C 134.722 23.736 134.186 23.656 133.674 23.496C 133.162 23.352 132.706 23.136 132.306 22.848C 131.922 22.544 131.61 22.168 131.37 21.72C 131.146 21.256 131.034 20.72 131.034 20.112C 131.034 19.344 131.17 18.72 131.442 18.24C 131.73 17.76 132.098 17.384 132.546 17.112C 133.01 16.84 133.522 16.648 134.082 16.536C 134.658 16.408 135.234 16.312 135.81 16.248C 136.306 16.152 136.778 16.088 137.226 16.056C 137.674 16.008 138.066 15.936 138.402 15.84C 138.754 15.744 139.026 15.6 139.218 15.408C 139.426 15.2 139.53 14.896 139.53 14.496C 139.53 14.144 139.442 13.856 139.266 13.632C 139.106 13.408 138.898 13.24 138.642 13.128C 138.402 13 138.13 12.92 137.826 12.888C 137.522 12.84 137.234 12.816 136.962 12.816C 136.194 12.816 135.562 12.976 135.066 13.296C 134.57 13.616 134.29 14.112 134.226 14.784L 131.49 14.784C 131.538 13.984 131.73 13.32 132.066 12.792C 132.402 12.264 132.826 11.84 133.338 11.52C 133.866 11.2 134.458 10.976 135.114 10.848C 135.77 10.72 136.442 10.656 137.13 10.656C 137.738 10.656 138.338 10.72 138.93 10.848C 139.522 10.976 140.05 11.184 140.514 11.472C 140.994 11.76 141.378 12.136 141.666 12.6C 141.954 13.048 142.098 13.6 142.098 14.256L 142.098 20.64ZM 139.362 17.184C 138.946 17.456 138.434 17.624 137.826 17.688C 137.218 17.736 136.61 17.816 136.002 17.928C 135.714 17.976 135.434 18.048 135.162 18.144C 134.89 18.224 134.65 18.344 134.442 18.504C 134.234 18.648 134.066 18.848 133.938 19.104C 133.826 19.344 133.77 19.64 133.77 19.992C 133.77 20.296 133.858 20.552 134.034 20.76C 134.21 20.968 134.418 21.136 134.658 21.264C 134.914 21.376 135.186 21.456 135.474 21.504C 135.778 21.552 136.05 21.576 136.29 21.576C 136.594 21.576 136.922 21.536 137.274 21.456C 137.626 21.376 137.954 21.24 138.258 21.048C 138.578 20.856 138.842 20.616 139.05 20.328C 139.258 20.024 139.362 19.656 139.362 19.224L 139.362 17.184ZM 143.674 10.992L 146.674 10.992L 149.914 20.256L 149.962 20.256L 153.106 10.992L 155.962 10.992L 151.138 24.072C 150.914 24.632 150.69 25.168 150.466 25.68C 150.258 26.192 149.994 26.64 149.674 27.024C 149.37 27.424 148.986 27.736 148.522 27.96C 148.058 28.2 147.466 28.32 146.746 28.32C 146.106 28.32 145.474 28.272 144.85 28.176L 144.85 25.872C 145.074 25.904 145.29 25.936 145.498 25.968C 145.706 26.016 145.922 26.04 146.146 26.04C 146.466 26.04 146.73 26 146.938 25.92C 147.146 25.84 147.314 25.72 147.442 25.56C 147.586 25.416 147.706 25.24 147.802 25.032C 147.898 24.824 147.986 24.584 148.066 24.312L 148.378 23.352L 143.674 10.992ZM 175.759 16.704C 175.695 16.896 175.639 17.088 175.591 17.28C 175.559 17.472 175.543 17.648 175.543 17.808C 175.543 17.968 175.575 18.104 175.639 18.216C 175.719 18.312 175.839 18.36 175.999 18.36C 176.367 18.36 176.735 18.232 177.103 17.976C 177.487 17.704 177.823 17.336 178.111 16.872C 178.415 16.408 178.655 15.864 178.831 15.24C 179.023 14.6 179.119 13.912 179.119 13.176C 179.119 12.28 178.951 11.48 178.615 10.776C 178.279 10.056 177.815 9.448 177.223 8.952C 176.647 8.456 175.967 8.08 175.183 7.824C 174.415 7.552 173.591 7.416 172.711 7.416C 171.687 7.416 170.751 7.608 169.903 7.992C 169.071 8.36 168.351 8.872 167.743 9.528C 167.135 10.168 166.663 10.928 166.327 11.808C 165.991 12.672 165.823 13.608 165.823 14.616C 165.823 15.784 165.999 16.84 166.351 17.784C 166.719 18.728 167.215 19.528 167.839 20.184C 168.479 20.84 169.231 21.352 170.095 21.72C 170.975 22.072 171.919 22.248 172.927 22.248C 173.983 22.248 174.983 22.04 175.927 21.624C 176.871 21.208 177.671 20.624 178.327 19.872L 180.007 19.872C 179.239 21.12 178.223 22.088 176.959 22.776C 175.695 23.464 174.319 23.808 172.831 23.808C 171.599 23.808 170.439 23.584 169.351 23.136C 168.263 22.672 167.311 22.032 166.495 21.216C 165.695 20.4 165.063 19.424 164.599 18.288C 164.135 17.152 163.903 15.896 163.903 14.52C 163.903 13.304 164.135 12.176 164.599 11.136C 165.079 10.08 165.719 9.16 166.519 8.376C 167.319 7.592 168.247 6.976 169.303 6.528C 170.375 6.08 171.511 5.856 172.711 5.856C 173.783 5.856 174.799 6.032 175.759 6.384C 176.735 6.72 177.591 7.2 178.327 7.824C 179.063 8.448 179.647 9.192 180.079 10.056C 180.527 10.92 180.751 11.864 180.751 12.888C 180.751 14.088 180.543 15.136 180.127 16.032C 179.727 16.928 179.231 17.672 178.639 18.264C 178.063 18.856 177.447 19.304 176.791 19.608C 176.135 19.896 175.567 20.04 175.087 20.04C 174.719 20.04 174.399 19.928 174.127 19.704C 173.855 19.464 173.703 19.112 173.671 18.648L 173.623 18.648C 173.303 19.016 172.903 19.336 172.423 19.608C 171.943 19.88 171.447 20.016 170.935 20.016C 170.439 20.016 169.975 19.92 169.543 19.728C 169.111 19.52 168.735 19.248 168.415 18.912C 168.111 18.56 167.871 18.16 167.695 17.712C 167.519 17.248 167.431 16.76 167.431 16.248C 167.431 15.48 167.559 14.728 167.815 13.992C 168.071 13.256 168.423 12.592 168.871 12C 169.335 11.408 169.887 10.936 170.527 10.584C 171.183 10.216 171.903 10.032 172.687 10.032C 173.247 10.032 173.759 10.168 174.223 10.44C 174.687 10.712 175.071 11.152 175.375 11.76L 175.807 10.392L 177.487 10.392L 175.759 16.704ZM 171.391 18.216C 171.871 18.216 172.311 18.08 172.711 17.808C 173.111 17.52 173.455 17.168 173.743 16.752C 174.031 16.32 174.255 15.856 174.415 15.36C 174.591 14.848 174.679 14.376 174.679 13.944C 174.679 13.656 174.623 13.384 174.511 13.128C 174.415 12.872 174.279 12.648 174.103 12.456C 173.943 12.264 173.743 12.112 173.503 12C 173.279 11.888 173.039 11.832 172.783 11.832C 172.287 11.832 171.831 11.968 171.415 12.24C 171.015 12.512 170.671 12.856 170.383 13.272C 170.095 13.672 169.871 14.12 169.711 14.616C 169.551 15.112 169.471 15.584 169.471 16.032C 169.471 16.672 169.639 17.2 169.975 17.616C 170.327 18.016 170.799 18.216 171.391 18.216ZM 191.29 17.256L 196.378 17.256L 196.378 9.864L 196.33 9.864L 191.29 17.256ZM 201.13 19.416L 198.97 19.416L 198.97 23.4L 196.378 23.4L 196.378 19.416L 189.178 19.416L 189.178 16.704L 196.378 6.6L 198.97 6.6L 198.97 17.256L 201.13 17.256L 201.13 19.416ZM 203.45 10.992L 206.042 10.992L 206.042 12.672L 206.089 12.672C 206.473 11.952 207.01 11.44 207.697 11.136C 208.385 10.816 209.13 10.656 209.93 10.656C 210.906 10.656 211.754 10.832 212.474 11.184C 213.209 11.52 213.818 11.992 214.297 12.6C 214.778 13.192 215.138 13.888 215.378 14.688C 215.617 15.488 215.737 16.344 215.737 17.256C 215.737 18.088 215.626 18.896 215.401 19.68C 215.194 20.464 214.865 21.16 214.417 21.768C 213.985 22.36 213.434 22.84 212.762 23.208C 212.09 23.56 211.297 23.736 210.385 23.736C 209.986 23.736 209.586 23.696 209.185 23.616C 208.786 23.552 208.401 23.44 208.034 23.28C 207.666 23.12 207.321 22.92 207.001 22.68C 206.698 22.424 206.442 22.128 206.234 21.792L 206.186 21.792L 206.186 27.984L 203.45 27.984L 203.45 10.992ZM 213.001 17.208C 213.001 16.648 212.93 16.104 212.785 15.576C 212.642 15.048 212.426 14.584 212.138 14.184C 211.849 13.768 211.49 13.44 211.057 13.2C 210.625 12.944 210.129 12.816 209.569 12.816C 208.418 12.816 207.546 13.216 206.954 14.016C 206.378 14.816 206.089 15.88 206.089 17.208C 206.089 17.832 206.161 18.416 206.305 18.96C 206.466 19.488 206.698 19.944 207.001 20.328C 207.306 20.712 207.666 21.016 208.082 21.24C 208.513 21.464 209.01 21.576 209.569 21.576C 210.194 21.576 210.721 21.448 211.154 21.192C 211.586 20.936 211.937 20.608 212.21 20.208C 212.497 19.792 212.697 19.328 212.81 18.816C 212.938 18.288 213.001 17.752 213.001 17.208ZM 218.049 10.992L 220.641 10.992L 220.641 12.72L 220.713 12.72C 220.921 12.416 221.145 12.136 221.385 11.88C 221.625 11.624 221.889 11.408 222.177 11.232C 222.481 11.056 222.825 10.92 223.209 10.824C 223.593 10.712 224.033 10.656 224.529 10.656C 225.281 10.656 225.977 10.824 226.617 11.16C 227.273 11.496 227.737 12.016 228.009 12.72C 228.473 12.08 229.009 11.576 229.617 11.208C 230.225 10.84 230.985 10.656 231.897 10.656C 233.209 10.656 234.225 10.976 234.945 11.616C 235.681 12.256 236.049 13.328 236.049 14.832L 236.049 23.4L 233.313 23.4L 233.313 16.152C 233.313 15.656 233.297 15.208 233.265 14.808C 233.233 14.392 233.137 14.04 232.977 13.752C 232.833 13.448 232.609 13.216 232.305 13.056C 232.001 12.896 231.585 12.816 231.057 12.816C 230.129 12.816 229.457 13.104 229.041 13.68C 228.625 14.256 228.417 15.072 228.417 16.128L 228.417 23.4L 225.681 23.4L 225.681 15.432C 225.681 14.568 225.521 13.92 225.201 13.488C 224.897 13.04 224.329 12.816 223.497 12.816C 223.145 12.816 222.801 12.888 222.465 13.032C 222.145 13.176 221.857 13.384 221.601 13.656C 221.361 13.928 221.161 14.264 221.001 14.664C 220.857 15.064 220.785 15.52 220.785 16.032L 220.785 23.4L 218.049 23.4L 218.049 10.992ZM 239.148 20.16L 242.484 20.16L 242.484 23.4L 239.148 23.4L 239.148 20.16Z"/>
</defs>
</svg>
