<svg width="397" height="131" viewBox="0 0 397 131" version="1.1" xmlns="http://www.w3.org/2000/svg" xmlns:xlink="http://www.w3.org/1999/xlink" xmlns:figma="http://www.figma.com/figma/ns">
<title>Message-left-eight</title>
<desc>Created using Figma</desc>
<g id="Canvas" transform="translate(-3456 -1527)" figma:type="canvas">
<rect x="3456" y="1527" width="397" height="131" fill="#E5E5E5"/>
<mask id="mask0_alpha" mask-type="alpha">
<path d="M 3025 -474L 4465 -474L 4465 2472L 3025 2472L 3025 -474Z" fill="#FFFFFF"/>
</mask>
<g id="Home 3" style="mix-blend-mode:normal;" mask="url(#mask0_alpha)" figma:type="frame">
<path d="M 3025 -474L 4465 -474L 4465 2472L 3025 2472L 3025 -474Z" fill="#FFFFFF"/>
<g id="iMessage Thread" style="mix-blend-mode:normal;" figma:type="frame">
<g id="Message-left-eight" style="mix-blend-mode:normal;" figma:type="frame">
<g id="Bubble" style="mix-blend-mode:normal;" figma:type="vector-operation">
<use xlink:href="#path0_fill" transform="matrix(-1 0 0 1 3852.58 1527.09)" fill="#E5E5EA" style="mix-blend-mode:normal;"/>
</g>
<g id="Great! Just let us know the date and time you would like for us to be there?" style="mix-blend-mode:normal;" figma:type="text">
<use xlink:href="#path1_fill" transform="translate(3513.58 1541.59)" style="mix-blend-mode:normal;"/>
</g>
</g>
</g>
</g>
</g>
<defs>
<path id="path0_fill" fill-rule="evenodd" d="M 34 0C 15.2224 0 0 15.2223 0 34L 0 83C 0 101.778 15.2224 117 34 117L 346 117C 347.988 117 349.935 116.829 351.829 116.502C 362.845 125.488 377.251 130.914 393.253 130.914C 393.299 130.914 393.394 130.912 393.529 130.909C 394.091 130.897 395.342 130.869 396.582 130.914C 385.561 126.816 377.562 116.831 376.608 104.171L 376.608 97.8223C 378.781 93.3424 380 88.3136 380 83L 380 34C 380 15.2223 364.778 0 346 0L 34 0Z"/>
<path id="path1_fill" d="M 16.776 23.4L 14.856 23.4L 14.4 21.384C 13.6 22.296 12.8 22.928 12 23.28C 11.2 23.632 10.28 23.808 9.24 23.808C 7.96 23.808 6.808 23.576 5.784 23.112C 4.776 22.632 3.92 21.984 3.216 21.168C 2.512 20.352 1.968 19.4 1.584 18.312C 1.216 17.224 1.032 16.064 1.032 14.832C 1.032 13.616 1.216 12.464 1.584 11.376C 1.968 10.288 2.512 9.336 3.216 8.52C 3.92 7.704 4.776 7.056 5.784 6.576C 6.808 6.096 7.96 5.856 9.24 5.856C 10.168 5.856 11.048 5.984 11.88 6.24C 12.728 6.48 13.48 6.848 14.136 7.344C 14.792 7.824 15.336 8.432 15.768 9.168C 16.2 9.904 16.472 10.752 16.584 11.712L 13.656 11.712C 13.576 11.152 13.4 10.664 13.128 10.248C 12.872 9.816 12.544 9.456 12.144 9.168C 11.744 8.88 11.296 8.664 10.8 8.52C 10.304 8.376 9.784 8.304 9.24 8.304C 8.328 8.304 7.536 8.488 6.864 8.856C 6.208 9.224 5.672 9.72 5.256 10.344C 4.84 10.952 4.528 11.648 4.32 12.432C 4.128 13.216 4.032 14.016 4.032 14.832C 4.032 15.648 4.128 16.448 4.32 17.232C 4.528 18.016 4.84 18.72 5.256 19.344C 5.672 19.952 6.208 20.44 6.864 20.808C 7.536 21.176 8.328 21.36 9.24 21.36C 10.008 21.376 10.688 21.28 11.28 21.072C 11.872 20.848 12.368 20.536 12.768 20.136C 13.184 19.72 13.496 19.216 13.704 18.624C 13.912 18.032 14.024 17.376 14.04 16.656L 9.48 16.656L 9.48 14.376L 16.776 14.376L 16.776 23.4ZM 19.6509 10.992L 22.2189 10.992L 22.2189 13.392L 22.2669 13.392C 22.3469 13.056 22.4989 12.728 22.7229 12.408C 22.9629 12.088 23.2429 11.8 23.5629 11.544C 23.8989 11.272 24.2669 11.056 24.6669 10.896C 25.0669 10.736 25.4749 10.656 25.8909 10.656C 26.2109 10.656 26.4269 10.664 26.5389 10.68C 26.6669 10.696 26.7949 10.712 26.9229 10.728L 26.9229 13.368C 26.7309 13.336 26.5309 13.312 26.3229 13.296C 26.1309 13.264 25.9389 13.248 25.7469 13.248C 25.2829 13.248 24.8429 13.344 24.4269 13.536C 24.0269 13.712 23.6749 13.984 23.3709 14.352C 23.0669 14.704 22.8269 15.144 22.6509 15.672C 22.4749 16.2 22.3869 16.808 22.3869 17.496L 22.3869 23.4L 19.6509 23.4L 19.6509 10.992ZM 36.3975 16.104C 36.3655 15.672 36.2695 15.256 36.1095 14.856C 35.9655 14.456 35.7575 14.112 35.4855 13.824C 35.2295 13.52 34.9095 13.28 34.5255 13.104C 34.1575 12.912 33.7415 12.816 33.2775 12.816C 32.7975 12.816 32.3575 12.904 31.9575 13.08C 31.5735 13.24 31.2375 13.472 30.9495 13.776C 30.6775 14.064 30.4535 14.408 30.2775 14.808C 30.1175 15.208 30.0295 15.64 30.0135 16.104L 36.3975 16.104ZM 30.0135 17.904C 30.0135 18.384 30.0775 18.848 30.2055 19.296C 30.3495 19.744 30.5575 20.136 30.8295 20.472C 31.1015 20.808 31.4455 21.08 31.8615 21.288C 32.2775 21.48 32.7735 21.576 33.3495 21.576C 34.1495 21.576 34.7895 21.408 35.2695 21.072C 35.7655 20.72 36.1335 20.2 36.3735 19.512L 38.9655 19.512C 38.8215 20.184 38.5735 20.784 38.2215 21.312C 37.8695 21.84 37.4455 22.288 36.9495 22.656C 36.4535 23.008 35.8935 23.272 35.2695 23.448C 34.6615 23.64 34.0215 23.736 33.3495 23.736C 32.3735 23.736 31.5095 23.576 30.7575 23.256C 30.0055 22.936 29.3655 22.488 28.8375 21.912C 28.3255 21.336 27.9335 20.648 27.6615 19.848C 27.4055 19.048 27.2775 18.168 27.2775 17.208C 27.2775 16.328 27.4135 15.496 27.6855 14.712C 27.9735 13.912 28.3735 13.216 28.8855 12.624C 29.4135 12.016 30.0455 11.536 30.7815 11.184C 31.5175 10.832 32.3495 10.656 33.2775 10.656C 34.2535 10.656 35.1255 10.864 35.8935 11.28C 36.6775 11.68 37.3255 12.216 37.8375 12.888C 38.3495 13.56 38.7175 14.336 38.9415 15.216C 39.1815 16.08 39.2455 16.976 39.1335 17.904L 30.0135 17.904ZM 51.3945 20.64C 51.3945 20.976 51.4345 21.216 51.5145 21.36C 51.6105 21.504 51.7865 21.576 52.0425 21.576C 52.1225 21.576 52.2185 21.576 52.3305 21.576C 52.4425 21.576 52.5705 21.56 52.7145 21.528L 52.7145 23.424C 52.6185 23.456 52.4905 23.488 52.3305 23.52C 52.1865 23.568 52.0345 23.608 51.8745 23.64C 51.7145 23.672 51.5545 23.696 51.3945 23.712C 51.2345 23.728 51.0985 23.736 50.9865 23.736C 50.4265 23.736 49.9625 23.624 49.5945 23.4C 49.2265 23.176 48.9865 22.784 48.8745 22.224C 48.3305 22.752 47.6585 23.136 46.8585 23.376C 46.0745 23.616 45.3145 23.736 44.5785 23.736C 44.0185 23.736 43.4825 23.656 42.9705 23.496C 42.4585 23.352 42.0025 23.136 41.6025 22.848C 41.2185 22.544 40.9065 22.168 40.6665 21.72C 40.4425 21.256 40.3305 20.72 40.3305 20.112C 40.3305 19.344 40.4665 18.72 40.7385 18.24C 41.0265 17.76 41.3945 17.384 41.8425 17.112C 42.3065 16.84 42.8185 16.648 43.3785 16.536C 43.9545 16.408 44.5305 16.312 45.1065 16.248C 45.6025 16.152 46.0745 16.088 46.5225 16.056C 46.9705 16.008 47.3625 15.936 47.6985 15.84C 48.0505 15.744 48.3225 15.6 48.5145 15.408C 48.7225 15.2 48.8265 14.896 48.8265 14.496C 48.8265 14.144 48.7385 13.856 48.5625 13.632C 48.4025 13.408 48.1945 13.24 47.9385 13.128C 47.6985 13 47.4265 12.92 47.1225 12.888C 46.8185 12.84 46.5305 12.816 46.2585 12.816C 45.4905 12.816 44.8585 12.976 44.3625 13.296C 43.8665 13.616 43.5865 14.112 43.5225 14.784L 40.7865 14.784C 40.8345 13.984 41.0265 13.32 41.3625 12.792C 41.6985 12.264 42.1225 11.84 42.6345 11.52C 43.1625 11.2 43.7545 10.976 44.4105 10.848C 45.0665 10.72 45.7385 10.656 46.4265 10.656C 47.0345 10.656 47.6345 10.72 48.2265 10.848C 48.8185 10.976 49.3465 11.184 49.8105 11.472C 50.2905 11.76 50.6745 12.136 50.9625 12.6C 51.2505 13.048 51.3945 13.6 51.3945 14.256L 51.3945 20.64ZM 48.6585 17.184C 48.2425 17.456 47.7305 17.624 47.1225 17.688C 46.5145 17.736 45.9065 17.816 45.2985 17.928C 45.0105 17.976 44.7305 18.048 44.4585 18.144C 44.1865 18.224 43.9465 18.344 43.7385 18.504C 43.5305 18.648 43.3625 18.848 43.2345 19.104C 43.1225 19.344 43.0665 19.64 43.0665 19.992C 43.0665 20.296 43.1545 20.552 43.3305 20.76C 43.5065 20.968 43.7145 21.136 43.9545 21.264C 44.2105 21.376 44.4825 21.456 44.7705 21.504C 45.0745 21.552 45.3465 21.576 45.5865 21.576C 45.8905 21.576 46.2185 21.536 46.5705 21.456C 46.9225 21.376 47.2505 21.24 47.5545 21.048C 47.8745 20.856 48.1385 20.616 48.3465 20.328C 48.5545 20.024 48.6585 19.656 48.6585 19.224L 48.6585 17.184ZM 53.0904 10.992L 55.1544 10.992L 55.1544 7.272L 57.8904 7.272L 57.8904 10.992L 60.3624 10.992L 60.3624 13.032L 57.8904 13.032L 57.8904 19.656C 57.8904 19.944 57.8984 20.192 57.9144 20.4C 57.9464 20.608 58.0024 20.784 58.0824 20.928C 58.1784 21.072 58.3144 21.184 58.4904 21.264C 58.6664 21.328 58.9064 21.36 59.2104 21.36C 59.4024 21.36 59.5944 21.36 59.7864 21.36C 59.9784 21.344 60.1704 21.312 60.3624 21.264L 60.3624 23.376C 60.0584 23.408 59.7624 23.44 59.4744 23.472C 59.1864 23.504 58.8904 23.52 58.5864 23.52C 57.8664 23.52 57.2824 23.456 56.8344 23.328C 56.4024 23.184 56.0584 22.984 55.8024 22.728C 55.5624 22.456 55.3944 22.12 55.2984 21.72C 55.2184 21.32 55.1704 20.864 55.1544 20.352L 55.1544 13.032L 53.0904 13.032L 53.0904 10.992ZM 62.6186 20.4L 65.8346 20.4L 65.8346 23.4L 62.6186 23.4L 62.6186 20.4ZM 62.7386 6.264L 65.7386 6.264L 65.7386 11.208L 64.9466 18.624L 63.5306 18.624L 62.7386 11.208L 62.7386 6.264ZM 85.314 17.88C 85.314 18.632 85.25 19.36 85.122 20.064C 84.994 20.768 84.73 21.4 84.33 21.96C 83.946 22.52 83.378 22.968 82.626 23.304C 81.89 23.64 80.906 23.808 79.674 23.808C 78.762 23.808 77.986 23.672 77.346 23.4C 76.706 23.112 76.178 22.728 75.762 22.248C 75.346 21.752 75.042 21.168 74.85 20.496C 74.658 19.824 74.562 19.096 74.562 18.312L 74.562 17.4L 77.562 17.4L 77.562 18.288C 77.562 19.264 77.722 20.024 78.042 20.568C 78.378 21.096 79.002 21.36 79.914 21.36C 80.394 21.36 80.786 21.288 81.09 21.144C 81.41 21 81.658 20.792 81.834 20.52C 82.026 20.232 82.154 19.88 82.218 19.464C 82.282 19.048 82.314 18.576 82.314 18.048L 82.314 6.264L 85.314 6.264L 85.314 17.88ZM 99.4766 23.4L 96.7886 23.4L 96.7886 21.672L 96.7406 21.672C 96.4046 22.296 95.9006 22.8 95.2286 23.184C 94.5726 23.552 93.9006 23.736 93.2126 23.736C 91.5806 23.736 90.3966 23.336 89.6606 22.536C 88.9406 21.72 88.5806 20.496 88.5806 18.864L 88.5806 10.992L 91.3166 10.992L 91.3166 18.6C 91.3166 19.688 91.5246 20.456 91.9406 20.904C 92.3566 21.352 92.9406 21.576 93.6926 21.576C 94.2686 21.576 94.7486 21.488 95.1326 21.312C 95.5166 21.136 95.8286 20.904 96.0686 20.616C 96.3086 20.312 96.4766 19.952 96.5726 19.536C 96.6846 19.12 96.7406 18.672 96.7406 18.192L 96.7406 10.992L 99.4766 10.992L 99.4766 23.4ZM 104.426 19.416C 104.506 20.216 104.81 20.776 105.338 21.096C 105.866 21.416 106.498 21.576 107.234 21.576C 107.49 21.576 107.778 21.56 108.098 21.528C 108.434 21.48 108.746 21.4 109.034 21.288C 109.322 21.176 109.554 21.016 109.73 20.808C 109.922 20.584 110.01 20.296 109.994 19.944C 109.978 19.592 109.85 19.304 109.61 19.08C 109.37 18.856 109.058 18.68 108.674 18.552C 108.306 18.408 107.882 18.288 107.402 18.192C 106.922 18.096 106.434 17.992 105.938 17.88C 105.426 17.768 104.93 17.632 104.45 17.472C 103.986 17.312 103.562 17.096 103.178 16.824C 102.81 16.552 102.514 16.208 102.29 15.792C 102.066 15.36 101.954 14.832 101.954 14.208C 101.954 13.536 102.114 12.976 102.434 12.528C 102.77 12.064 103.186 11.696 103.682 11.424C 104.194 11.136 104.754 10.936 105.362 10.824C 105.986 10.712 106.578 10.656 107.138 10.656C 107.778 10.656 108.386 10.728 108.962 10.872C 109.554 11 110.082 11.216 110.546 11.52C 111.026 11.824 111.418 12.224 111.722 12.72C 112.042 13.2 112.242 13.784 112.322 14.472L 109.466 14.472C 109.338 13.816 109.034 13.376 108.554 13.152C 108.09 12.928 107.554 12.816 106.946 12.816C 106.754 12.816 106.522 12.832 106.25 12.864C 105.994 12.896 105.746 12.96 105.506 13.056C 105.282 13.136 105.09 13.264 104.93 13.44C 104.77 13.6 104.69 13.816 104.69 14.088C 104.69 14.424 104.802 14.696 105.026 14.904C 105.266 15.112 105.57 15.288 105.938 15.432C 106.322 15.56 106.754 15.672 107.234 15.768C 107.714 15.864 108.21 15.968 108.722 16.08C 109.218 16.192 109.706 16.328 110.186 16.488C 110.666 16.648 111.09 16.864 111.458 17.136C 111.842 17.408 112.146 17.752 112.37 18.168C 112.61 18.584 112.73 19.096 112.73 19.704C 112.73 20.44 112.562 21.064 112.226 21.576C 111.89 22.088 111.45 22.504 110.906 22.824C 110.378 23.144 109.786 23.376 109.13 23.52C 108.474 23.664 107.826 23.736 107.186 23.736C 106.402 23.736 105.674 23.648 105.002 23.472C 104.346 23.296 103.77 23.032 103.274 22.68C 102.794 22.312 102.41 21.864 102.122 21.336C 101.85 20.792 101.706 20.152 101.69 19.416L 104.426 19.416ZM 113.559 10.992L 115.623 10.992L 115.623 7.272L 118.359 7.272L 118.359 10.992L 120.831 10.992L 120.831 13.032L 118.359 13.032L 118.359 19.656C 118.359 19.944 118.367 20.192 118.383 20.4C 118.415 20.608 118.471 20.784 118.551 20.928C 118.647 21.072 118.783 21.184 118.959 21.264C 119.135 21.328 119.375 21.36 119.679 21.36C 119.871 21.36 120.063 21.36 120.255 21.36C 120.447 21.344 120.639 21.312 120.831 21.264L 120.831 23.376C 120.527 23.408 120.231 23.44 119.943 23.472C 119.655 23.504 119.359 23.52 119.055 23.52C 118.335 23.52 117.751 23.456 117.303 23.328C 116.871 23.184 116.527 22.984 116.271 22.728C 116.031 22.456 115.863 22.12 115.767 21.72C 115.687 21.32 115.639 20.864 115.623 20.352L 115.623 13.032L 113.559 13.032L 113.559 10.992ZM 129.551 6.264L 132.287 6.264L 132.287 23.4L 129.551 23.4L 129.551 6.264ZM 143.788 16.104C 143.756 15.672 143.66 15.256 143.5 14.856C 143.356 14.456 143.148 14.112 142.876 13.824C 142.62 13.52 142.3 13.28 141.916 13.104C 141.548 12.912 141.132 12.816 140.668 12.816C 140.188 12.816 139.748 12.904 139.348 13.08C 138.964 13.24 138.628 13.472 138.34 13.776C 138.068 14.064 137.844 14.408 137.668 14.808C 137.508 15.208 137.42 15.64 137.404 16.104L 143.788 16.104ZM 137.404 17.904C 137.404 18.384 137.468 18.848 137.596 19.296C 137.74 19.744 137.948 20.136 138.22 20.472C 138.492 20.808 138.836 21.08 139.252 21.288C 139.668 21.48 140.164 21.576 140.74 21.576C 141.54 21.576 142.18 21.408 142.66 21.072C 143.156 20.72 143.524 20.2 143.764 19.512L 146.356 19.512C 146.212 20.184 145.964 20.784 145.612 21.312C 145.26 21.84 144.836 22.288 144.34 22.656C 143.844 23.008 143.284 23.272 142.66 23.448C 142.052 23.64 141.412 23.736 140.74 23.736C 139.764 23.736 138.9 23.576 138.148 23.256C 137.396 22.936 136.756 22.488 136.228 21.912C 135.716 21.336 135.324 20.648 135.052 19.848C 134.796 19.048 134.668 18.168 134.668 17.208C 134.668 16.328 134.804 15.496 135.076 14.712C 135.364 13.912 135.764 13.216 136.276 12.624C 136.804 12.016 137.436 11.536 138.172 11.184C 138.908 10.832 139.74 10.656 140.668 10.656C 141.644 10.656 142.516 10.864 143.284 11.28C 144.068 11.68 144.716 12.216 145.228 12.888C 145.74 13.56 146.108 14.336 146.332 15.216C 146.572 16.08 146.636 16.976 146.524 17.904L 137.404 17.904ZM 147.356 10.992L 149.42 10.992L 149.42 7.272L 152.156 7.272L 152.156 10.992L 154.628 10.992L 154.628 13.032L 152.156 13.032L 152.156 19.656C 152.156 19.944 152.164 20.192 152.18 20.4C 152.212 20.608 152.268 20.784 152.348 20.928C 152.444 21.072 152.58 21.184 152.756 21.264C 152.932 21.328 153.172 21.36 153.476 21.36C 153.668 21.36 153.86 21.36 154.052 21.36C 154.244 21.344 154.436 21.312 154.628 21.264L 154.628 23.376C 154.324 23.408 154.028 23.44 153.74 23.472C 153.452 23.504 153.156 23.52 152.852 23.52C 152.132 23.52 151.548 23.456 151.1 23.328C 150.668 23.184 150.324 22.984 150.068 22.728C 149.828 22.456 149.66 22.12 149.564 21.72C 149.484 21.32 149.436 20.864 149.42 20.352L 149.42 13.032L 147.356 13.032L 147.356 10.992ZM 174.172 23.4L 171.484 23.4L 171.484 21.672L 171.436 21.672C 171.1 22.296 170.596 22.8 169.924 23.184C 169.268 23.552 168.596 23.736 167.908 23.736C 166.276 23.736 165.092 23.336 164.356 22.536C 163.636 21.72 163.276 20.496 163.276 18.864L 163.276 10.992L 166.012 10.992L 166.012 18.6C 166.012 19.688 166.22 20.456 166.636 20.904C 167.052 21.352 167.636 21.576 168.388 21.576C 168.964 21.576 169.444 21.488 169.828 21.312C 170.212 21.136 170.524 20.904 170.764 20.616C 171.004 20.312 171.172 19.952 171.268 19.536C 171.38 19.12 171.436 18.672 171.436 18.192L 171.436 10.992L 174.172 10.992L 174.172 23.4ZM 179.121 19.416C 179.201 20.216 179.505 20.776 180.033 21.096C 180.561 21.416 181.193 21.576 181.929 21.576C 182.185 21.576 182.473 21.56 182.793 21.528C 183.129 21.48 183.441 21.4 183.729 21.288C 184.017 21.176 184.249 21.016 184.425 20.808C 184.617 20.584 184.705 20.296 184.689 19.944C 184.673 19.592 184.545 19.304 184.305 19.08C 184.065 18.856 183.753 18.68 183.369 18.552C 183.001 18.408 182.577 18.288 182.097 18.192C 181.617 18.096 181.129 17.992 180.633 17.88C 180.121 17.768 179.625 17.632 179.145 17.472C 178.681 17.312 178.257 17.096 177.873 16.824C 177.505 16.552 177.209 16.208 176.985 15.792C 176.761 15.36 176.649 14.832 176.649 14.208C 176.649 13.536 176.809 12.976 177.129 12.528C 177.465 12.064 177.881 11.696 178.377 11.424C 178.889 11.136 179.449 10.936 180.057 10.824C 180.681 10.712 181.273 10.656 181.833 10.656C 182.473 10.656 183.081 10.728 183.657 10.872C 184.249 11 184.777 11.216 185.241 11.52C 185.721 11.824 186.113 12.224 186.417 12.72C 186.737 13.2 186.937 13.784 187.017 14.472L 184.161 14.472C 184.033 13.816 183.729 13.376 183.249 13.152C 182.785 12.928 182.249 12.816 181.641 12.816C 181.449 12.816 181.217 12.832 180.945 12.864C 180.689 12.896 180.441 12.96 180.201 13.056C 179.977 13.136 179.785 13.264 179.625 13.44C 179.465 13.6 179.385 13.816 179.385 14.088C 179.385 14.424 179.497 14.696 179.721 14.904C 179.961 15.112 180.265 15.288 180.633 15.432C 181.017 15.56 181.449 15.672 181.929 15.768C 182.409 15.864 182.905 15.968 183.417 16.08C 183.913 16.192 184.401 16.328 184.881 16.488C 185.361 16.648 185.785 16.864 186.153 17.136C 186.537 17.408 186.841 17.752 187.065 18.168C 187.305 18.584 187.425 19.096 187.425 19.704C 187.425 20.44 187.257 21.064 186.921 21.576C 186.585 22.088 186.145 22.504 185.601 22.824C 185.073 23.144 184.481 23.376 183.825 23.52C 183.169 23.664 182.521 23.736 181.881 23.736C 181.097 23.736 180.369 23.648 179.697 23.472C 179.041 23.296 178.465 23.032 177.969 22.68C 177.489 22.312 177.105 21.864 176.817 21.336C 176.545 20.792 176.401 20.152 176.385 19.416L 179.121 19.416ZM 196.254 6.264L 198.99 6.264L 198.99 16.008L 203.934 10.992L 207.294 10.992L 202.542 15.552L 207.75 23.4L 204.414 23.4L 200.622 17.376L 198.99 18.96L 198.99 23.4L 196.254 23.4L 196.254 6.264ZM 209.073 10.992L 211.665 10.992L 211.665 12.816L 211.713 12.864C 212.129 12.176 212.673 11.64 213.345 11.256C 214.017 10.856 214.761 10.656 215.577 10.656C 216.937 10.656 218.009 11.008 218.793 11.712C 219.577 12.416 219.969 13.472 219.969 14.88L 219.969 23.4L 217.233 23.4L 217.233 15.6C 217.201 14.624 216.993 13.92 216.609 13.488C 216.225 13.04 215.625 12.816 214.809 12.816C 214.345 12.816 213.929 12.904 213.561 13.08C 213.193 13.24 212.881 13.472 212.625 13.776C 212.369 14.064 212.169 14.408 212.025 14.808C 211.881 15.208 211.809 15.632 211.809 16.08L 211.809 23.4L 209.073 23.4L 209.073 10.992ZM 228.542 23.736C 227.55 23.736 226.662 23.576 225.878 23.256C 225.11 22.92 224.454 22.464 223.91 21.888C 223.382 21.312 222.974 20.624 222.686 19.824C 222.414 19.024 222.278 18.144 222.278 17.184C 222.278 16.24 222.414 15.368 222.686 14.568C 222.974 13.768 223.382 13.08 223.91 12.504C 224.454 11.928 225.11 11.48 225.878 11.16C 226.662 10.824 227.55 10.656 228.542 10.656C 229.534 10.656 230.414 10.824 231.182 11.16C 231.966 11.48 232.622 11.928 233.15 12.504C 233.694 13.08 234.102 13.768 234.374 14.568C 234.662 15.368 234.806 16.24 234.806 17.184C 234.806 18.144 234.662 19.024 234.374 19.824C 234.102 20.624 233.694 21.312 233.15 21.888C 232.622 22.464 231.966 22.92 231.182 23.256C 230.414 23.576 229.534 23.736 228.542 23.736ZM 228.542 21.576C 229.15 21.576 229.678 21.448 230.126 21.192C 230.574 20.936 230.942 20.6 231.23 20.184C 231.518 19.768 231.726 19.304 231.854 18.792C 231.998 18.264 232.07 17.728 232.07 17.184C 232.07 16.656 231.998 16.128 231.854 15.6C 231.726 15.072 231.518 14.608 231.23 14.208C 230.942 13.792 230.574 13.456 230.126 13.2C 229.678 12.944 229.15 12.816 228.542 12.816C 227.934 12.816 227.406 12.944 226.958 13.2C 226.51 13.456 226.142 13.792 225.854 14.208C 225.566 14.608 225.35 15.072 225.206 15.6C 225.078 16.128 225.014 16.656 225.014 17.184C 225.014 17.728 225.078 18.264 225.206 18.792C 225.35 19.304 225.566 19.768 225.854 20.184C 226.142 20.6 226.51 20.936 226.958 21.192C 227.406 21.448 227.934 21.576 228.542 21.576ZM 235.953 10.992L 238.857 10.992L 241.281 20.256L 241.329 20.256L 243.657 10.992L 246.417 10.992L 248.649 20.256L 248.697 20.256L 251.217 10.992L 254.001 10.992L 250.113 23.4L 247.305 23.4L 245.001 14.184L 244.953 14.184L 242.673 23.4L 239.793 23.4L 235.953 10.992ZM 0.192 40.296L 2.256 40.296L 2.256 36.576L 4.992 36.576L 4.992 40.296L 7.464 40.296L 7.464 42.336L 4.992 42.336L 4.992 48.96C 4.992 49.248 5 49.496 5.016 49.704C 5.048 49.912 5.104 50.088 5.184 50.232C 5.28 50.376 5.416 50.488 5.592 50.568C 5.768 50.632 6.008 50.664 6.312 50.664C 6.504 50.664 6.696 50.664 6.888 50.664C 7.08 50.648 7.272 50.616 7.464 50.568L 7.464 52.68C 7.16 52.712 6.864 52.744 6.576 52.776C 6.288 52.808 5.992 52.824 5.688 52.824C 4.968 52.824 4.384 52.76 3.936 52.632C 3.504 52.488 3.16 52.288 2.904 52.032C 2.664 51.76 2.496 51.424 2.4 51.024C 2.32 50.624 2.272 50.168 2.256 49.656L 2.256 42.336L 0.192 42.336L 0.192 40.296ZM 9.43219 35.568L 12.1682 35.568L 12.1682 41.928L 12.2162 41.928C 12.5522 41.368 13.0482 40.904 13.7042 40.536C 14.3762 40.152 15.1202 39.96 15.9362 39.96C 17.2962 39.96 18.3682 40.312 19.1522 41.016C 19.9362 41.72 20.3282 42.776 20.3282 44.184L 20.3282 52.704L 17.5922 52.704L 17.5922 44.904C 17.5602 43.928 17.3522 43.224 16.9682 42.792C 16.5842 42.344 15.9842 42.12 15.1682 42.12C 14.7042 42.12 14.2882 42.208 13.9202 42.384C 13.5522 42.544 13.2402 42.776 12.9842 43.08C 12.7282 43.368 12.5282 43.712 12.3842 44.112C 12.2402 44.512 12.1682 44.936 12.1682 45.384L 12.1682 52.704L 9.43219 52.704L 9.43219 35.568ZM 31.7334 45.408C 31.7014 44.976 31.6054 44.56 31.4454 44.16C 31.3014 43.76 31.0934 43.416 30.8214 43.128C 30.5654 42.824 30.2454 42.584 29.8614 42.408C 29.4934 42.216 29.0774 42.12 28.6134 42.12C 28.1334 42.12 27.6934 42.208 27.2934 42.384C 26.9094 42.544 26.5734 42.776 26.2854 43.08C 26.0134 43.368 25.7894 43.712 25.6134 44.112C 25.4534 44.512 25.3654 44.944 25.3494 45.408L 31.7334 45.408ZM 25.3494 47.208C 25.3494 47.688 25.4134 48.152 25.5414 48.6C 25.6854 49.048 25.8934 49.44 26.1654 49.776C 26.4374 50.112 26.7814 50.384 27.1974 50.592C 27.6134 50.784 28.1094 50.88 28.6854 50.88C 29.4854 50.88 30.1254 50.712 30.6054 50.376C 31.1014 50.024 31.4694 49.504 31.7094 48.816L 34.3014 48.816C 34.1574 49.488 33.9094 50.088 33.5574 50.616C 33.2054 51.144 32.7814 51.592 32.2854 51.96C 31.7894 52.312 31.2294 52.576 30.6054 52.752C 29.9974 52.944 29.3574 53.04 28.6854 53.04C 27.7094 53.04 26.8454 52.88 26.0934 52.56C 25.3414 52.24 24.7014 51.792 24.1734 51.216C 23.6614 50.64 23.2694 49.952 22.9974 49.152C 22.7414 48.352 22.6134 47.472 22.6134 46.512C 22.6134 45.632 22.7494 44.8 23.0214 44.016C 23.3094 43.216 23.7094 42.52 24.2214 41.928C 24.7494 41.32 25.3814 40.84 26.1174 40.488C 26.8534 40.136 27.6854 39.96 28.6134 39.96C 29.5894 39.96 30.4614 40.168 31.2294 40.584C 32.0134 40.984 32.6614 41.52 33.1734 42.192C 33.6854 42.864 34.0534 43.64 34.2774 44.52C 34.5174 45.384 34.5814 46.28 34.4694 47.208L 25.3494 47.208ZM 54.9171 52.704L 52.3251 52.704L 52.3251 51.024L 52.2771 51.024C 51.9091 51.744 51.3731 52.264 50.6691 52.584C 49.9651 52.888 49.2211 53.04 48.4371 53.04C 47.4611 53.04 46.6051 52.872 45.8691 52.536C 45.1491 52.184 44.5491 51.712 44.0691 51.12C 43.5891 50.528 43.2291 49.832 42.9891 49.032C 42.7491 48.216 42.6291 47.344 42.6291 46.416C 42.6291 45.296 42.7811 44.328 43.0851 43.512C 43.3891 42.696 43.7891 42.024 44.2851 41.496C 44.7971 40.968 45.3731 40.584 46.0131 40.344C 46.6691 40.088 47.3331 39.96 48.0051 39.96C 48.3891 39.96 48.7811 40 49.1811 40.08C 49.5811 40.144 49.9651 40.256 50.3331 40.416C 50.7011 40.576 51.0371 40.784 51.3411 41.04C 51.6611 41.28 51.9251 41.568 52.1331 41.904L 52.1811 41.904L 52.1811 35.568L 54.9171 35.568L 54.9171 52.704ZM 45.3651 46.632C 45.3651 47.16 45.4291 47.68 45.5571 48.192C 45.7011 48.704 45.9091 49.16 46.1811 49.56C 46.4691 49.96 46.8291 50.28 47.2611 50.52C 47.6931 50.76 48.2051 50.88 48.7971 50.88C 49.4051 50.88 49.9251 50.752 50.3571 50.496C 50.8051 50.24 51.1651 49.904 51.4371 49.488C 51.7251 49.072 51.9331 48.608 52.0611 48.096C 52.2051 47.568 52.2771 47.032 52.2771 46.488C 52.2771 45.112 51.9651 44.04 51.3411 43.272C 50.7331 42.504 49.9011 42.12 48.8451 42.12C 48.2051 42.12 47.6611 42.256 47.2131 42.528C 46.7811 42.784 46.4211 43.128 46.1331 43.56C 45.8611 43.976 45.6611 44.456 45.5331 45C 45.4211 45.528 45.3651 46.072 45.3651 46.632ZM 68.2929 49.944C 68.2929 50.28 68.3329 50.52 68.4129 50.664C 68.5089 50.808 68.6849 50.88 68.9409 50.88C 69.0209 50.88 69.1169 50.88 69.2289 50.88C 69.3409 50.88 69.4689 50.864 69.6129 50.832L 69.6129 52.728C 69.5169 52.76 69.3889 52.792 69.2289 52.824C 69.0849 52.872 68.9329 52.912 68.7729 52.944C 68.6129 52.976 68.4529 53 68.2929 53.016C 68.1329 53.032 67.9969 53.04 67.8849 53.04C 67.3249 53.04 66.8609 52.928 66.4929 52.704C 66.1249 52.48 65.8849 52.088 65.7729 51.528C 65.2289 52.056 64.5569 52.44 63.7569 52.68C 62.9729 52.92 62.2129 53.04 61.4769 53.04C 60.9169 53.04 60.3809 52.96 59.8689 52.8C 59.3569 52.656 58.9009 52.44 58.5009 52.152C 58.1169 51.848 57.8049 51.472 57.5649 51.024C 57.3409 50.56 57.2289 50.024 57.2289 49.416C 57.2289 48.648 57.3649 48.024 57.6369 47.544C 57.9249 47.064 58.2929 46.688 58.7409 46.416C 59.2049 46.144 59.7169 45.952 60.2769 45.84C 60.8529 45.712 61.4289 45.616 62.0049 45.552C 62.5009 45.456 62.9729 45.392 63.4209 45.36C 63.8689 45.312 64.2609 45.24 64.5969 45.144C 64.9489 45.048 65.2209 44.904 65.4129 44.712C 65.6209 44.504 65.7249 44.2 65.7249 43.8C 65.7249 43.448 65.6369 43.16 65.4609 42.936C 65.3009 42.712 65.0929 42.544 64.8369 42.432C 64.5969 42.304 64.3249 42.224 64.0209 42.192C 63.7169 42.144 63.4289 42.12 63.1569 42.12C 62.3889 42.12 61.7569 42.28 61.2609 42.6C 60.7649 42.92 60.4849 43.416 60.4209 44.088L 57.6849 44.088C 57.7329 43.288 57.9249 42.624 58.2609 42.096C 58.5969 41.568 59.0209 41.144 59.5329 40.824C 60.0609 40.504 60.6529 40.28 61.3089 40.152C 61.9649 40.024 62.6369 39.96 63.3249 39.96C 63.9329 39.96 64.5329 40.024 65.1249 40.152C 65.7169 40.28 66.2449 40.488 66.7089 40.776C 67.1889 41.064 67.5729 41.44 67.8609 41.904C 68.1489 42.352 68.2929 42.904 68.2929 43.56L 68.2929 49.944ZM 65.5569 46.488C 65.1409 46.76 64.6289 46.928 64.0209 46.992C 63.4129 47.04 62.8049 47.12 62.1969 47.232C 61.9089 47.28 61.6289 47.352 61.3569 47.448C 61.0849 47.528 60.8449 47.648 60.6369 47.808C 60.4289 47.952 60.2609 48.152 60.1329 48.408C 60.0209 48.648 59.9649 48.944 59.9649 49.296C 59.9649 49.6 60.0529 49.856 60.2289 50.064C 60.4049 50.272 60.6129 50.44 60.8529 50.568C 61.1089 50.68 61.3809 50.76 61.6689 50.808C 61.9729 50.856 62.2449 50.88 62.4849 50.88C 62.7889 50.88 63.1169 50.84 63.4689 50.76C 63.8209 50.68 64.1489 50.544 64.4529 50.352C 64.7729 50.16 65.0369 49.92 65.2449 49.632C 65.4529 49.328 65.5569 48.96 65.5569 48.528L 65.5569 46.488ZM 69.9889 40.296L 72.0529 40.296L 72.0529 36.576L 74.7889 36.576L 74.7889 40.296L 77.2609 40.296L 77.2609 42.336L 74.7889 42.336L 74.7889 48.96C 74.7889 49.248 74.7969 49.496 74.8129 49.704C 74.8449 49.912 74.9009 50.088 74.9809 50.232C 75.0769 50.376 75.2129 50.488 75.3889 50.568C 75.5649 50.632 75.8049 50.664 76.1089 50.664C 76.3009 50.664 76.4929 50.664 76.6849 50.664C 76.8769 50.648 77.0689 50.616 77.2609 50.568L 77.2609 52.68C 76.9569 52.712 76.6609 52.744 76.3729 52.776C 76.0849 52.808 75.7889 52.824 75.4849 52.824C 74.7649 52.824 74.1809 52.76 73.7329 52.632C 73.3009 52.488 72.9569 52.288 72.7009 52.032C 72.4609 51.76 72.2929 51.424 72.1969 51.024C 72.1169 50.624 72.0689 50.168 72.0529 49.656L 72.0529 42.336L 69.9889 42.336L 69.9889 40.296ZM 87.7491 45.408C 87.7171 44.976 87.6211 44.56 87.4611 44.16C 87.3171 43.76 87.1091 43.416 86.8371 43.128C 86.5811 42.824 86.2611 42.584 85.8771 42.408C 85.5091 42.216 85.0931 42.12 84.6291 42.12C 84.1491 42.12 83.7091 42.208 83.3091 42.384C 82.9251 42.544 82.5891 42.776 82.3011 43.08C 82.0291 43.368 81.8051 43.712 81.6291 44.112C 81.4691 44.512 81.3811 44.944 81.3651 45.408L 87.7491 45.408ZM 81.3651 47.208C 81.3651 47.688 81.4291 48.152 81.5571 48.6C 81.7011 49.048 81.9091 49.44 82.1811 49.776C 82.4531 50.112 82.7971 50.384 83.2131 50.592C 83.6291 50.784 84.1251 50.88 84.7011 50.88C 85.5011 50.88 86.1411 50.712 86.6211 50.376C 87.1171 50.024 87.4851 49.504 87.7251 48.816L 90.3171 48.816C 90.1731 49.488 89.9251 50.088 89.5731 50.616C 89.2211 51.144 88.7971 51.592 88.3011 51.96C 87.8051 52.312 87.2451 52.576 86.6211 52.752C 86.0131 52.944 85.3731 53.04 84.7011 53.04C 83.7251 53.04 82.8611 52.88 82.1091 52.56C 81.3571 52.24 80.7171 51.792 80.1891 51.216C 79.6771 50.64 79.2851 49.952 79.0131 49.152C 78.7571 48.352 78.6291 47.472 78.6291 46.512C 78.6291 45.632 78.7651 44.8 79.0371 44.016C 79.3251 43.216 79.7251 42.52 80.2371 41.928C 80.7651 41.32 81.3971 40.84 82.1331 40.488C 82.8691 40.136 83.7011 39.96 84.6291 39.96C 85.6051 39.96 86.4771 40.168 87.2451 40.584C 88.0291 40.984 88.6771 41.52 89.1891 42.192C 89.7011 42.864 90.0691 43.64 90.2931 44.52C 90.5331 45.384 90.5971 46.28 90.4851 47.208L 81.3651 47.208ZM 109.637 49.944C 109.637 50.28 109.677 50.52 109.757 50.664C 109.853 50.808 110.029 50.88 110.285 50.88C 110.365 50.88 110.461 50.88 110.573 50.88C 110.685 50.88 110.813 50.864 110.957 50.832L 110.957 52.728C 110.861 52.76 110.733 52.792 110.573 52.824C 110.429 52.872 110.277 52.912 110.117 52.944C 109.957 52.976 109.797 53 109.637 53.016C 109.477 53.032 109.341 53.04 109.229 53.04C 108.669 53.04 108.205 52.928 107.837 52.704C 107.469 52.48 107.229 52.088 107.117 51.528C 106.573 52.056 105.901 52.44 105.101 52.68C 104.317 52.92 103.557 53.04 102.821 53.04C 102.261 53.04 101.725 52.96 101.213 52.8C 100.701 52.656 100.245 52.44 99.8447 52.152C 99.4607 51.848 99.1487 51.472 98.9087 51.024C 98.6847 50.56 98.5727 50.024 98.5727 49.416C 98.5727 48.648 98.7087 48.024 98.9807 47.544C 99.2687 47.064 99.6367 46.688 100.085 46.416C 100.549 46.144 101.061 45.952 101.621 45.84C 102.197 45.712 102.773 45.616 103.349 45.552C 103.845 45.456 104.317 45.392 104.765 45.36C 105.213 45.312 105.605 45.24 105.941 45.144C 106.293 45.048 106.565 44.904 106.757 44.712C 106.965 44.504 107.069 44.2 107.069 43.8C 107.069 43.448 106.981 43.16 106.805 42.936C 106.645 42.712 106.437 42.544 106.181 42.432C 105.941 42.304 105.669 42.224 105.365 42.192C 105.061 42.144 104.773 42.12 104.501 42.12C 103.733 42.12 103.101 42.28 102.605 42.6C 102.109 42.92 101.829 43.416 101.765 44.088L 99.0287 44.088C 99.0767 43.288 99.2687 42.624 99.6047 42.096C 99.9407 41.568 100.365 41.144 100.877 40.824C 101.405 40.504 101.997 40.28 102.653 40.152C 103.309 40.024 103.981 39.96 104.669 39.96C 105.277 39.96 105.877 40.024 106.469 40.152C 107.061 40.28 107.589 40.488 108.053 40.776C 108.533 41.064 108.917 41.44 109.205 41.904C 109.493 42.352 109.637 42.904 109.637 43.56L 109.637 49.944ZM 106.901 46.488C 106.485 46.76 105.973 46.928 105.365 46.992C 104.757 47.04 104.149 47.12 103.541 47.232C 103.253 47.28 102.973 47.352 102.701 47.448C 102.429 47.528 102.189 47.648 101.981 47.808C 101.773 47.952 101.605 48.152 101.477 48.408C 101.365 48.648 101.309 48.944 101.309 49.296C 101.309 49.6 101.397 49.856 101.573 50.064C 101.749 50.272 101.957 50.44 102.197 50.568C 102.453 50.68 102.725 50.76 103.013 50.808C 103.317 50.856 103.589 50.88 103.829 50.88C 104.133 50.88 104.461 50.84 104.813 50.76C 105.165 50.68 105.493 50.544 105.797 50.352C 106.117 50.16 106.381 49.92 106.589 49.632C 106.797 49.328 106.901 48.96 106.901 48.528L 106.901 46.488ZM 112.581 40.296L 115.173 40.296L 115.173 42.12L 115.221 42.168C 115.637 41.48 116.181 40.944 116.853 40.56C 117.525 40.16 118.269 39.96 119.085 39.96C 120.445 39.96 121.517 40.312 122.301 41.016C 123.085 41.72 123.477 42.776 123.477 44.184L 123.477 52.704L 120.741 52.704L 120.741 44.904C 120.709 43.928 120.501 43.224 120.117 42.792C 119.733 42.344 119.133 42.12 118.317 42.12C 117.853 42.12 117.437 42.208 117.069 42.384C 116.701 42.544 116.389 42.776 116.133 43.08C 115.877 43.368 115.677 43.712 115.533 44.112C 115.389 44.512 115.317 44.936 115.317 45.384L 115.317 52.704L 112.581 52.704L 112.581 40.296ZM 138.05 52.704L 135.458 52.704L 135.458 51.024L 135.41 51.024C 135.042 51.744 134.506 52.264 133.802 52.584C 133.098 52.888 132.354 53.04 131.57 53.04C 130.594 53.04 129.738 52.872 129.002 52.536C 128.282 52.184 127.682 51.712 127.202 51.12C 126.722 50.528 126.362 49.832 126.122 49.032C 125.882 48.216 125.762 47.344 125.762 46.416C 125.762 45.296 125.914 44.328 126.218 43.512C 126.522 42.696 126.922 42.024 127.418 41.496C 127.93 40.968 128.506 40.584 129.146 40.344C 129.802 40.088 130.466 39.96 131.138 39.96C 131.522 39.96 131.914 40 132.314 40.08C 132.714 40.144 133.098 40.256 133.466 40.416C 133.834 40.576 134.17 40.784 134.474 41.04C 134.794 41.28 135.058 41.568 135.266 41.904L 135.314 41.904L 135.314 35.568L 138.05 35.568L 138.05 52.704ZM 128.498 46.632C 128.498 47.16 128.562 47.68 128.69 48.192C 128.834 48.704 129.042 49.16 129.314 49.56C 129.602 49.96 129.962 50.28 130.394 50.52C 130.826 50.76 131.338 50.88 131.93 50.88C 132.538 50.88 133.058 50.752 133.49 50.496C 133.938 50.24 134.298 49.904 134.57 49.488C 134.858 49.072 135.066 48.608 135.194 48.096C 135.338 47.568 135.41 47.032 135.41 46.488C 135.41 45.112 135.098 44.04 134.474 43.272C 133.866 42.504 133.034 42.12 131.978 42.12C 131.338 42.12 130.794 42.256 130.346 42.528C 129.914 42.784 129.554 43.128 129.266 43.56C 128.994 43.976 128.794 44.456 128.666 45C 128.554 45.528 128.498 46.072 128.498 46.632ZM 146.465 40.296L 148.529 40.296L 148.529 36.576L 151.265 36.576L 151.265 40.296L 153.737 40.296L 153.737 42.336L 151.265 42.336L 151.265 48.96C 151.265 49.248 151.273 49.496 151.289 49.704C 151.321 49.912 151.377 50.088 151.457 50.232C 151.553 50.376 151.689 50.488 151.865 50.568C 152.041 50.632 152.281 50.664 152.585 50.664C 152.777 50.664 152.969 50.664 153.161 50.664C 153.353 50.648 153.545 50.616 153.737 50.568L 153.737 52.68C 153.433 52.712 153.137 52.744 152.849 52.776C 152.561 52.808 152.265 52.824 151.961 52.824C 151.241 52.824 150.657 52.76 150.209 52.632C 149.777 52.488 149.433 52.288 149.177 52.032C 148.937 51.76 148.769 51.424 148.673 51.024C 148.593 50.624 148.545 50.168 148.529 49.656L 148.529 42.336L 146.465 42.336L 146.465 40.296ZM 155.778 35.568L 158.514 35.568L 158.514 38.16L 155.778 38.16L 155.778 35.568ZM 155.778 40.296L 158.514 40.296L 158.514 52.704L 155.778 52.704L 155.778 40.296ZM 161.495 40.296L 164.087 40.296L 164.087 42.024L 164.159 42.024C 164.367 41.72 164.591 41.44 164.831 41.184C 165.071 40.928 165.335 40.712 165.623 40.536C 165.927 40.36 166.271 40.224 166.655 40.128C 167.039 40.016 167.479 39.96 167.975 39.96C 168.727 39.96 169.423 40.128 170.063 40.464C 170.719 40.8 171.183 41.32 171.455 42.024C 171.919 41.384 172.455 40.88 173.063 40.512C 173.671 40.144 174.431 39.96 175.343 39.96C 176.655 39.96 177.671 40.28 178.391 40.92C 179.127 41.56 179.495 42.632 179.495 44.136L 179.495 52.704L 176.759 52.704L 176.759 45.456C 176.759 44.96 176.743 44.512 176.711 44.112C 176.679 43.696 176.583 43.344 176.423 43.056C 176.279 42.752 176.055 42.52 175.751 42.36C 175.447 42.2 175.031 42.12 174.503 42.12C 173.575 42.12 172.903 42.408 172.487 42.984C 172.071 43.56 171.863 44.376 171.863 45.432L 171.863 52.704L 169.127 52.704L 169.127 44.736C 169.127 43.872 168.967 43.224 168.647 42.792C 168.343 42.344 167.775 42.12 166.943 42.12C 166.591 42.12 166.247 42.192 165.911 42.336C 165.591 42.48 165.303 42.688 165.047 42.96C 164.807 43.232 164.607 43.568 164.447 43.968C 164.303 44.368 164.231 44.824 164.231 45.336L 164.231 52.704L 161.495 52.704L 161.495 40.296ZM 190.897 45.408C 190.865 44.976 190.769 44.56 190.609 44.16C 190.466 43.76 190.257 43.416 189.986 43.128C 189.73 42.824 189.409 42.584 189.026 42.408C 188.657 42.216 188.241 42.12 187.777 42.12C 187.297 42.12 186.858 42.208 186.458 42.384C 186.074 42.544 185.738 42.776 185.449 43.08C 185.177 43.368 184.954 43.712 184.777 44.112C 184.618 44.512 184.53 44.944 184.514 45.408L 190.897 45.408ZM 184.514 47.208C 184.514 47.688 184.578 48.152 184.706 48.6C 184.85 49.048 185.058 49.44 185.329 49.776C 185.601 50.112 185.946 50.384 186.361 50.592C 186.778 50.784 187.273 50.88 187.849 50.88C 188.649 50.88 189.289 50.712 189.77 50.376C 190.265 50.024 190.634 49.504 190.874 48.816L 193.466 48.816C 193.321 49.488 193.074 50.088 192.721 50.616C 192.369 51.144 191.945 51.592 191.449 51.96C 190.954 52.312 190.393 52.576 189.77 52.752C 189.161 52.944 188.522 53.04 187.849 53.04C 186.873 53.04 186.01 52.88 185.258 52.56C 184.505 52.24 183.866 51.792 183.338 51.216C 182.825 50.64 182.434 49.952 182.161 49.152C 181.906 48.352 181.778 47.472 181.778 46.512C 181.778 45.632 181.913 44.8 182.186 44.016C 182.474 43.216 182.874 42.52 183.385 41.928C 183.913 41.32 184.545 40.84 185.281 40.488C 186.018 40.136 186.849 39.96 187.777 39.96C 188.753 39.96 189.625 40.168 190.393 40.584C 191.178 40.984 191.825 41.52 192.337 42.192C 192.849 42.864 193.217 43.64 193.442 44.52C 193.682 45.384 193.746 46.28 193.633 47.208L 184.514 47.208ZM 201.025 40.296L 204.025 40.296L 207.265 49.56L 207.313 49.56L 210.457 40.296L 213.313 40.296L 208.489 53.376C 208.265 53.936 208.041 54.472 207.817 54.984C 207.609 55.496 207.345 55.944 207.025 56.328C 206.721 56.728 206.337 57.04 205.873 57.264C 205.409 57.504 204.817 57.624 204.097 57.624C 203.457 57.624 202.825 57.576 202.201 57.48L 202.201 55.176C 202.425 55.208 202.641 55.24 202.849 55.272C 203.057 55.32 203.273 55.344 203.497 55.344C 203.817 55.344 204.081 55.304 204.289 55.224C 204.497 55.144 204.665 55.024 204.793 54.864C 204.937 54.72 205.057 54.544 205.153 54.336C 205.249 54.128 205.337 53.888 205.417 53.616L 205.729 52.656L 201.025 40.296ZM 220.526 53.04C 219.534 53.04 218.646 52.88 217.862 52.56C 217.094 52.224 216.438 51.768 215.894 51.192C 215.366 50.616 214.958 49.928 214.67 49.128C 214.398 48.328 214.262 47.448 214.262 46.488C 214.262 45.544 214.398 44.672 214.67 43.872C 214.958 43.072 215.366 42.384 215.894 41.808C 216.438 41.232 217.094 40.784 217.862 40.464C 218.646 40.128 219.534 39.96 220.526 39.96C 221.518 39.96 222.398 40.128 223.166 40.464C 223.95 40.784 224.606 41.232 225.134 41.808C 225.678 42.384 226.086 43.072 226.358 43.872C 226.646 44.672 226.79 45.544 226.79 46.488C 226.79 47.448 226.646 48.328 226.358 49.128C 226.086 49.928 225.678 50.616 225.134 51.192C 224.606 51.768 223.95 52.224 223.166 52.56C 222.398 52.88 221.518 53.04 220.526 53.04ZM 220.526 50.88C 221.134 50.88 221.662 50.752 222.11 50.496C 222.558 50.24 222.926 49.904 223.214 49.488C 223.502 49.072 223.71 48.608 223.838 48.096C 223.982 47.568 224.054 47.032 224.054 46.488C 224.054 45.96 223.982 45.432 223.838 44.904C 223.71 44.376 223.502 43.912 223.214 43.512C 222.926 43.096 222.558 42.76 222.11 42.504C 221.662 42.248 221.134 42.12 220.526 42.12C 219.918 42.12 219.39 42.248 218.942 42.504C 218.494 42.76 218.126 43.096 217.838 43.512C 217.55 43.912 217.334 44.376 217.19 44.904C 217.062 45.432 216.998 45.96 216.998 46.488C 216.998 47.032 217.062 47.568 217.19 48.096C 217.334 48.608 217.55 49.072 217.838 49.488C 218.126 49.904 218.494 50.24 218.942 50.496C 219.39 50.752 219.918 50.88 220.526 50.88ZM 239.961 52.704L 237.273 52.704L 237.273 50.976L 237.225 50.976C 236.889 51.6 236.385 52.104 235.713 52.488C 235.057 52.856 234.385 53.04 233.697 53.04C 232.065 53.04 230.881 52.64 230.145 51.84C 229.425 51.024 229.065 49.8 229.065 48.168L 229.065 40.296L 231.801 40.296L 231.801 47.904C 231.801 48.992 232.009 49.76 232.425 50.208C 232.841 50.656 233.425 50.88 234.177 50.88C 234.753 50.88 235.233 50.792 235.617 50.616C 236.001 50.44 236.313 50.208 236.553 49.92C 236.793 49.616 236.961 49.256 237.057 48.84C 237.169 48.424 237.225 47.976 237.225 47.496L 237.225 40.296L 239.961 40.296L 239.961 52.704ZM 248.398 40.296L 251.302 40.296L 253.726 49.56L 253.774 49.56L 256.102 40.296L 258.862 40.296L 261.094 49.56L 261.142 49.56L 263.662 40.296L 266.446 40.296L 262.558 52.704L 259.75 52.704L 257.446 43.488L 257.398 43.488L 255.118 52.704L 252.238 52.704L 248.398 40.296ZM 273.894 53.04C 272.902 53.04 272.014 52.88 271.23 52.56C 270.462 52.224 269.806 51.768 269.262 51.192C 268.734 50.616 268.326 49.928 268.038 49.128C 267.766 48.328 267.63 47.448 267.63 46.488C 267.63 45.544 267.766 44.672 268.038 43.872C 268.326 43.072 268.734 42.384 269.262 41.808C 269.806 41.232 270.462 40.784 271.23 40.464C 272.014 40.128 272.902 39.96 273.894 39.96C 274.886 39.96 275.766 40.128 276.534 40.464C 277.318 40.784 277.974 41.232 278.502 41.808C 279.046 42.384 279.454 43.072 279.726 43.872C 280.014 44.672 280.158 45.544 280.158 46.488C 280.158 47.448 280.014 48.328 279.726 49.128C 279.454 49.928 279.046 50.616 278.502 51.192C 277.974 51.768 277.318 52.224 276.534 52.56C 275.766 52.88 274.886 53.04 273.894 53.04ZM 273.894 50.88C 274.502 50.88 275.03 50.752 275.478 50.496C 275.926 50.24 276.294 49.904 276.582 49.488C 276.87 49.072 277.078 48.608 277.206 48.096C 277.35 47.568 277.422 47.032 277.422 46.488C 277.422 45.96 277.35 45.432 277.206 44.904C 277.078 44.376 276.87 43.912 276.582 43.512C 276.294 43.096 275.926 42.76 275.478 42.504C 275.03 42.248 274.502 42.12 273.894 42.12C 273.286 42.12 272.758 42.248 272.31 42.504C 271.862 42.76 271.494 43.096 271.206 43.512C 270.918 43.912 270.702 44.376 270.558 44.904C 270.43 45.432 270.366 45.96 270.366 46.488C 270.366 47.032 270.43 47.568 270.558 48.096C 270.702 48.608 270.918 49.072 271.206 49.488C 271.494 49.904 271.862 50.24 272.31 50.496C 272.758 50.752 273.286 50.88 273.894 50.88ZM 293.328 52.704L 290.64 52.704L 290.64 50.976L 290.592 50.976C 290.256 51.6 289.752 52.104 289.08 52.488C 288.424 52.856 287.752 53.04 287.064 53.04C 285.432 53.04 284.248 52.64 283.512 51.84C 282.792 51.024 282.432 49.8 282.432 48.168L 282.432 40.296L 285.168 40.296L 285.168 47.904C 285.168 48.992 285.376 49.76 285.792 50.208C 286.208 50.656 286.792 50.88 287.544 50.88C 288.12 50.88 288.6 50.792 288.984 50.616C 289.368 50.44 289.68 50.208 289.92 49.92C 290.16 49.616 290.328 49.256 290.424 48.84C 290.536 48.424 290.592 47.976 290.592 47.496L 290.592 40.296L 293.328 40.296L 293.328 52.704ZM 296.285 35.568L 299.021 35.568L 299.021 52.704L 296.285 52.704L 296.285 35.568ZM 313.69 52.704L 311.099 52.704L 311.099 51.024L 311.051 51.024C 310.682 51.744 310.146 52.264 309.443 52.584C 308.739 52.888 307.994 53.04 307.211 53.04C 306.235 53.04 305.378 52.872 304.643 52.536C 303.923 52.184 303.323 51.712 302.842 51.12C 302.363 50.528 302.002 49.832 301.763 49.032C 301.522 48.216 301.403 47.344 301.403 46.416C 301.403 45.296 301.554 44.328 301.859 43.512C 302.163 42.696 302.563 42.024 303.059 41.496C 303.571 40.968 304.146 40.584 304.786 40.344C 305.442 40.088 306.107 39.96 306.779 39.96C 307.163 39.96 307.555 40 307.954 40.08C 308.355 40.144 308.739 40.256 309.107 40.416C 309.474 40.576 309.81 40.784 310.115 41.04C 310.434 41.28 310.698 41.568 310.906 41.904L 310.954 41.904L 310.954 35.568L 313.69 35.568L 313.69 52.704ZM 304.139 46.632C 304.139 47.16 304.203 47.68 304.331 48.192C 304.475 48.704 304.683 49.16 304.954 49.56C 305.242 49.96 305.602 50.28 306.035 50.52C 306.467 50.76 306.978 50.88 307.57 50.88C 308.179 50.88 308.698 50.752 309.13 50.496C 309.579 50.24 309.938 49.904 310.211 49.488C 310.499 49.072 310.707 48.608 310.835 48.096C 310.978 47.568 311.051 47.032 311.051 46.488C 311.051 45.112 310.738 44.04 310.115 43.272C 309.506 42.504 308.674 42.12 307.618 42.12C 306.978 42.12 306.434 42.256 305.986 42.528C 305.555 42.784 305.195 43.128 304.906 43.56C 304.634 43.976 304.435 44.456 304.307 45C 304.194 45.528 304.139 46.072 304.139 46.632ZM 1.512 64.872L 4.248 64.872L 4.248 82.008L 1.512 82.008L 1.512 64.872ZM 7.30106 64.872L 10.0371 64.872L 10.0371 67.464L 7.30106 67.464L 7.30106 64.872ZM 7.30106 69.6L 10.0371 69.6L 10.0371 82.008L 7.30106 82.008L 7.30106 69.6ZM 13.0901 64.872L 15.8261 64.872L 15.8261 74.616L 20.7701 69.6L 24.1301 69.6L 19.3781 74.16L 24.5861 82.008L 21.2501 82.008L 17.4581 75.984L 15.8261 77.568L 15.8261 82.008L 13.0901 82.008L 13.0901 64.872ZM 34.4287 74.712C 34.3967 74.28 34.3007 73.864 34.1407 73.464C 33.9968 73.064 33.7887 72.72 33.5168 72.432C 33.2608 72.128 32.9407 71.888 32.5568 71.712C 32.1887 71.52 31.7727 71.424 31.3087 71.424C 30.8287 71.424 30.3888 71.512 29.9888 71.688C 29.6048 71.848 29.2688 72.08 28.9807 72.384C 28.7087 72.672 28.4848 73.016 28.3087 73.416C 28.1488 73.816 28.0608 74.248 28.0448 74.712L 34.4287 74.712ZM 28.0448 76.512C 28.0448 76.992 28.1088 77.456 28.2368 77.904C 28.3808 78.352 28.5888 78.744 28.8607 79.08C 29.1327 79.416 29.4768 79.688 29.8927 79.896C 30.3088 80.088 30.8047 80.184 31.3807 80.184C 32.1807 80.184 32.8207 80.016 33.3008 79.68C 33.7967 79.328 34.1648 78.808 34.4048 78.12L 36.9968 78.12C 36.8527 78.792 36.6048 79.392 36.2527 79.92C 35.9007 80.448 35.4767 80.896 34.9807 81.264C 34.4848 81.616 33.9247 81.88 33.3008 82.056C 32.6927 82.248 32.0528 82.344 31.3807 82.344C 30.4047 82.344 29.5408 82.184 28.7888 81.864C 28.0367 81.544 27.3968 81.096 26.8688 80.52C 26.3567 79.944 25.9648 79.256 25.6927 78.456C 25.4368 77.656 25.3088 76.776 25.3088 75.816C 25.3088 74.936 25.4447 74.104 25.7168 73.32C 26.0048 72.52 26.4048 71.824 26.9167 71.232C 27.4447 70.624 28.0767 70.144 28.8127 69.792C 29.5488 69.44 30.3807 69.264 31.3087 69.264C 32.2847 69.264 33.1567 69.472 33.9247 69.888C 34.7088 70.288 35.3567 70.824 35.8687 71.496C 36.3807 72.168 36.7487 72.944 36.9728 73.824C 37.2128 74.688 37.2768 75.584 37.1647 76.512L 28.0448 76.512ZM 44.7004 69.6L 46.7404 69.6L 46.7404 68.568C 46.7404 67.784 46.8364 67.152 47.0284 66.672C 47.2204 66.176 47.4764 65.8 47.7964 65.544C 48.1164 65.272 48.4764 65.096 48.8764 65.016C 49.2924 64.92 49.7244 64.872 50.1724 64.872C 51.0524 64.872 51.6924 64.928 52.0924 65.04L 52.0924 67.176C 51.9164 67.128 51.7244 67.096 51.5164 67.08C 51.3244 67.048 51.0924 67.032 50.8204 67.032C 50.4524 67.032 50.1324 67.12 49.8604 67.296C 49.6044 67.472 49.4764 67.816 49.4764 68.328L 49.4764 69.6L 51.8044 69.6L 51.8044 71.64L 49.4764 71.64L 49.4764 82.008L 46.7404 82.008L 46.7404 71.64L 44.7004 71.64L 44.7004 69.6ZM 59.1827 82.344C 58.1907 82.344 57.3027 82.184 56.5187 81.864C 55.7507 81.528 55.0947 81.072 54.5507 80.496C 54.0227 79.92 53.6147 79.232 53.3267 78.432C 53.0547 77.632 52.9187 76.752 52.9187 75.792C 52.9187 74.848 53.0547 73.976 53.3267 73.176C 53.6147 72.376 54.0227 71.688 54.5507 71.112C 55.0947 70.536 55.7507 70.088 56.5187 69.768C 57.3027 69.432 58.1907 69.264 59.1827 69.264C 60.1747 69.264 61.0547 69.432 61.8227 69.768C 62.6067 70.088 63.2627 70.536 63.7907 71.112C 64.3347 71.688 64.7427 72.376 65.0147 73.176C 65.3027 73.976 65.4467 74.848 65.4467 75.792C 65.4467 76.752 65.3027 77.632 65.0147 78.432C 64.7427 79.232 64.3347 79.92 63.7907 80.496C 63.2627 81.072 62.6067 81.528 61.8227 81.864C 61.0547 82.184 60.1747 82.344 59.1827 82.344ZM 59.1827 80.184C 59.7907 80.184 60.3187 80.056 60.7667 79.8C 61.2147 79.544 61.5827 79.208 61.8707 78.792C 62.1587 78.376 62.3667 77.912 62.4947 77.4C 62.6387 76.872 62.7107 76.336 62.7107 75.792C 62.7107 75.264 62.6387 74.736 62.4947 74.208C 62.3667 73.68 62.1587 73.216 61.8707 72.816C 61.5827 72.4 61.2147 72.064 60.7667 71.808C 60.3187 71.552 59.7907 71.424 59.1827 71.424C 58.5747 71.424 58.0467 71.552 57.5987 71.808C 57.1507 72.064 56.7827 72.4 56.4947 72.816C 56.2067 73.216 55.9907 73.68 55.8467 74.208C 55.7187 74.736 55.6547 75.264 55.6547 75.792C 55.6547 76.336 55.7187 76.872 55.8467 77.4C 55.9907 77.912 56.2067 78.376 56.4947 78.792C 56.7827 79.208 57.1507 79.544 57.5987 79.8C 58.0467 80.056 58.5747 80.184 59.1827 80.184ZM 67.7212 69.6L 70.2892 69.6L 70.2892 72L 70.3372 72C 70.4172 71.664 70.5692 71.336 70.7932 71.016C 71.0332 70.696 71.3133 70.408 71.6333 70.152C 71.9693 69.88 72.3373 69.664 72.7372 69.504C 73.1373 69.344 73.5452 69.264 73.9612 69.264C 74.2813 69.264 74.4973 69.272 74.6093 69.288C 74.7373 69.304 74.8653 69.32 74.9933 69.336L 74.9933 71.976C 74.8012 71.944 74.6012 71.92 74.3932 71.904C 74.2013 71.872 74.0092 71.856 73.8173 71.856C 73.3533 71.856 72.9132 71.952 72.4973 72.144C 72.0973 72.32 71.7452 72.592 71.4413 72.96C 71.1372 73.312 70.8973 73.752 70.7213 74.28C 70.5452 74.808 70.4572 75.416 70.4572 76.104L 70.4572 82.008L 67.7212 82.008L 67.7212 69.6ZM 93.7344 82.008L 91.0464 82.008L 91.0464 80.28L 90.9984 80.28C 90.6624 80.904 90.1584 81.408 89.4864 81.792C 88.8304 82.16 88.1584 82.344 87.4704 82.344C 85.8384 82.344 84.6544 81.944 83.9184 81.144C 83.1984 80.328 82.8384 79.104 82.8384 77.472L 82.8384 69.6L 85.5744 69.6L 85.5744 77.208C 85.5744 78.296 85.7824 79.064 86.1984 79.512C 86.6144 79.96 87.1984 80.184 87.9504 80.184C 88.5264 80.184 89.0064 80.096 89.3904 79.92C 89.7744 79.744 90.0864 79.512 90.3264 79.224C 90.5664 78.92 90.7344 78.56 90.8304 78.144C 90.9424 77.728 90.9984 77.28 90.9984 76.8L 90.9984 69.6L 93.7344 69.6L 93.7344 82.008ZM 98.6837 78.024C 98.7637 78.824 99.0677 79.384 99.5957 79.704C 100.124 80.024 100.756 80.184 101.492 80.184C 101.748 80.184 102.036 80.168 102.356 80.136C 102.692 80.088 103.004 80.008 103.292 79.896C 103.58 79.784 103.812 79.624 103.988 79.416C 104.18 79.192 104.268 78.904 104.252 78.552C 104.236 78.2 104.108 77.912 103.868 77.688C 103.628 77.464 103.316 77.288 102.932 77.16C 102.564 77.016 102.14 76.896 101.66 76.8C 101.18 76.704 100.692 76.6 100.196 76.488C 99.6837 76.376 99.1877 76.24 98.7077 76.08C 98.2437 75.92 97.8197 75.704 97.4357 75.432C 97.0677 75.16 96.7717 74.816 96.5477 74.4C 96.3237 73.968 96.2117 73.44 96.2117 72.816C 96.2117 72.144 96.3717 71.584 96.6917 71.136C 97.0277 70.672 97.4437 70.304 97.9397 70.032C 98.4517 69.744 99.0117 69.544 99.6197 69.432C 100.244 69.32 100.836 69.264 101.396 69.264C 102.036 69.264 102.644 69.336 103.22 69.48C 103.812 69.608 104.34 69.824 104.804 70.128C 105.284 70.432 105.676 70.832 105.98 71.328C 106.3 71.808 106.5 72.392 106.58 73.08L 103.724 73.08C 103.596 72.424 103.292 71.984 102.812 71.76C 102.348 71.536 101.812 71.424 101.204 71.424C 101.012 71.424 100.78 71.44 100.508 71.472C 100.252 71.504 100.004 71.568 99.7637 71.664C 99.5397 71.744 99.3477 71.872 99.1877 72.048C 99.0277 72.208 98.9477 72.424 98.9477 72.696C 98.9477 73.032 99.0597 73.304 99.2837 73.512C 99.5237 73.72 99.8277 73.896 100.196 74.04C 100.58 74.168 101.012 74.28 101.492 74.376C 101.972 74.472 102.468 74.576 102.98 74.688C 103.476 74.8 103.964 74.936 104.444 75.096C 104.924 75.256 105.348 75.472 105.716 75.744C 106.1 76.016 106.404 76.36 106.628 76.776C 106.868 77.192 106.988 77.704 106.988 78.312C 106.988 79.048 106.82 79.672 106.484 80.184C 106.148 80.696 105.708 81.112 105.164 81.432C 104.636 81.752 104.044 81.984 103.388 82.128C 102.732 82.272 102.084 82.344 101.444 82.344C 100.66 82.344 99.9317 82.256 99.2597 82.08C 98.6037 81.904 98.0277 81.64 97.5317 81.288C 97.0517 80.92 96.6677 80.472 96.3797 79.944C 96.1077 79.4 95.9637 78.76 95.9477 78.024L 98.6837 78.024ZM 114.497 69.6L 116.561 69.6L 116.561 65.88L 119.297 65.88L 119.297 69.6L 121.769 69.6L 121.769 71.64L 119.297 71.64L 119.297 78.264C 119.297 78.552 119.305 78.8 119.321 79.008C 119.353 79.216 119.409 79.392 119.489 79.536C 119.585 79.68 119.721 79.792 119.897 79.872C 120.073 79.936 120.313 79.968 120.617 79.968C 120.809 79.968 121.001 79.968 121.193 79.968C 121.385 79.952 121.577 79.92 121.769 79.872L 121.769 81.984C 121.465 82.016 121.169 82.048 120.881 82.08C 120.593 82.112 120.297 82.128 119.993 82.128C 119.273 82.128 118.689 82.064 118.241 81.936C 117.809 81.792 117.465 81.592 117.209 81.336C 116.969 81.064 116.801 80.728 116.705 80.328C 116.625 79.928 116.577 79.472 116.561 78.96L 116.561 71.64L 114.497 71.64L 114.497 69.6ZM 129.425 82.344C 128.433 82.344 127.545 82.184 126.761 81.864C 125.993 81.528 125.337 81.072 124.793 80.496C 124.265 79.92 123.857 79.232 123.569 78.432C 123.297 77.632 123.161 76.752 123.161 75.792C 123.161 74.848 123.297 73.976 123.569 73.176C 123.857 72.376 124.265 71.688 124.793 71.112C 125.337 70.536 125.993 70.088 126.761 69.768C 127.545 69.432 128.433 69.264 129.425 69.264C 130.417 69.264 131.297 69.432 132.065 69.768C 132.849 70.088 133.505 70.536 134.033 71.112C 134.577 71.688 134.985 72.376 135.257 73.176C 135.545 73.976 135.689 74.848 135.689 75.792C 135.689 76.752 135.545 77.632 135.257 78.432C 134.985 79.232 134.577 79.92 134.033 80.496C 133.505 81.072 132.849 81.528 132.065 81.864C 131.297 82.184 130.417 82.344 129.425 82.344ZM 129.425 80.184C 130.033 80.184 130.561 80.056 131.009 79.8C 131.457 79.544 131.825 79.208 132.113 78.792C 132.401 78.376 132.609 77.912 132.737 77.4C 132.881 76.872 132.953 76.336 132.953 75.792C 132.953 75.264 132.881 74.736 132.737 74.208C 132.609 73.68 132.401 73.216 132.113 72.816C 131.825 72.4 131.457 72.064 131.009 71.808C 130.561 71.552 130.033 71.424 129.425 71.424C 128.817 71.424 128.289 71.552 127.841 71.808C 127.393 72.064 127.025 72.4 126.737 72.816C 126.449 73.216 126.233 73.68 126.089 74.208C 125.961 74.736 125.897 75.264 125.897 75.792C 125.897 76.336 125.961 76.872 126.089 77.4C 126.233 77.912 126.449 78.376 126.737 78.792C 127.025 79.208 127.393 79.544 127.841 79.8C 128.289 80.056 128.817 80.184 129.425 80.184ZM 144.715 64.872L 147.451 64.872L 147.451 71.208L 147.499 71.208C 147.691 70.904 147.923 70.632 148.195 70.392C 148.467 70.152 148.763 69.952 149.083 69.792C 149.419 69.616 149.763 69.488 150.115 69.408C 150.483 69.312 150.843 69.264 151.195 69.264C 152.171 69.264 153.019 69.44 153.739 69.792C 154.475 70.128 155.083 70.6 155.563 71.208C 156.043 71.8 156.403 72.496 156.643 73.296C 156.883 74.096 157.003 74.952 157.003 75.864C 157.003 76.696 156.891 77.504 156.667 78.288C 156.459 79.072 156.131 79.768 155.683 80.376C 155.251 80.968 154.699 81.448 154.027 81.816C 153.355 82.168 152.563 82.344 151.651 82.344C 151.235 82.344 150.811 82.312 150.379 82.248C 149.963 82.2 149.563 82.096 149.179 81.936C 148.795 81.776 148.443 81.568 148.123 81.312C 147.819 81.056 147.563 80.72 147.355 80.304L 147.307 80.304L 147.307 82.008L 144.715 82.008L 144.715 64.872ZM 154.267 75.816C 154.267 75.256 154.195 74.712 154.051 74.184C 153.907 73.656 153.691 73.192 153.403 72.792C 153.115 72.376 152.755 72.048 152.323 71.808C 151.891 71.552 151.395 71.424 150.835 71.424C 149.683 71.424 148.811 71.824 148.219 72.624C 147.643 73.424 147.355 74.488 147.355 75.816C 147.355 76.44 147.427 77.024 147.571 77.568C 147.731 78.096 147.963 78.552 148.267 78.936C 148.571 79.32 148.931 79.624 149.347 79.848C 149.779 80.072 150.275 80.184 150.835 80.184C 151.459 80.184 151.987 80.056 152.419 79.8C 152.851 79.544 153.203 79.216 153.475 78.816C 153.763 78.4 153.963 77.936 154.075 77.424C 154.203 76.896 154.267 76.36 154.267 75.816ZM 167.835 74.712C 167.803 74.28 167.707 73.864 167.547 73.464C 167.403 73.064 167.195 72.72 166.923 72.432C 166.667 72.128 166.347 71.888 165.963 71.712C 165.595 71.52 165.179 71.424 164.715 71.424C 164.235 71.424 163.795 71.512 163.395 71.688C 163.011 71.848 162.675 72.08 162.387 72.384C 162.115 72.672 161.891 73.016 161.715 73.416C 161.555 73.816 161.467 74.248 161.451 74.712L 167.835 74.712ZM 161.451 76.512C 161.451 76.992 161.515 77.456 161.643 77.904C 161.787 78.352 161.995 78.744 162.267 79.08C 162.539 79.416 162.883 79.688 163.299 79.896C 163.715 80.088 164.211 80.184 164.787 80.184C 165.587 80.184 166.227 80.016 166.707 79.68C 167.203 79.328 167.571 78.808 167.811 78.12L 170.403 78.12C 170.259 78.792 170.011 79.392 169.659 79.92C 169.307 80.448 168.883 80.896 168.387 81.264C 167.891 81.616 167.331 81.88 166.707 82.056C 166.099 82.248 165.459 82.344 164.787 82.344C 163.811 82.344 162.947 82.184 162.195 81.864C 161.443 81.544 160.803 81.096 160.275 80.52C 159.763 79.944 159.371 79.256 159.099 78.456C 158.843 77.656 158.715 76.776 158.715 75.816C 158.715 74.936 158.851 74.104 159.123 73.32C 159.411 72.52 159.811 71.824 160.323 71.232C 160.851 70.624 161.483 70.144 162.219 69.792C 162.955 69.44 163.787 69.264 164.715 69.264C 165.691 69.264 166.563 69.472 167.331 69.888C 168.115 70.288 168.763 70.824 169.275 71.496C 169.787 72.168 170.155 72.944 170.379 73.824C 170.619 74.688 170.683 75.584 170.571 76.512L 161.451 76.512ZM 178.083 69.6L 180.147 69.6L 180.147 65.88L 182.883 65.88L 182.883 69.6L 185.355 69.6L 185.355 71.64L 182.883 71.64L 182.883 78.264C 182.883 78.552 182.891 78.8 182.907 79.008C 182.939 79.216 182.995 79.392 183.075 79.536C 183.171 79.68 183.307 79.792 183.483 79.872C 183.659 79.936 183.899 79.968 184.203 79.968C 184.395 79.968 184.587 79.968 184.779 79.968C 184.971 79.952 185.163 79.92 185.355 79.872L 185.355 81.984C 185.051 82.016 184.755 82.048 184.467 82.08C 184.179 82.112 183.883 82.128 183.579 82.128C 182.859 82.128 182.275 82.064 181.827 81.936C 181.395 81.792 181.051 81.592 180.795 81.336C 180.555 81.064 180.387 80.728 180.291 80.328C 180.211 79.928 180.163 79.472 180.147 78.96L 180.147 71.64L 178.083 71.64L 178.083 69.6ZM 187.323 64.872L 190.059 64.872L 190.059 71.232L 190.107 71.232C 190.443 70.672 190.939 70.208 191.595 69.84C 192.267 69.456 193.011 69.264 193.827 69.264C 195.187 69.264 196.259 69.616 197.043 70.32C 197.827 71.024 198.219 72.08 198.219 73.488L 198.219 82.008L 195.483 82.008L 195.483 74.208C 195.451 73.232 195.243 72.528 194.859 72.096C 194.475 71.648 193.875 71.424 193.059 71.424C 192.595 71.424 192.179 71.512 191.811 71.688C 191.443 71.848 191.131 72.08 190.875 72.384C 190.619 72.672 190.419 73.016 190.275 73.416C 190.131 73.816 190.059 74.24 190.059 74.688L 190.059 82.008L 187.323 82.008L 187.323 64.872ZM 209.624 74.712C 209.592 74.28 209.496 73.864 209.336 73.464C 209.192 73.064 208.984 72.72 208.712 72.432C 208.456 72.128 208.136 71.888 207.752 71.712C 207.384 71.52 206.968 71.424 206.504 71.424C 206.024 71.424 205.584 71.512 205.184 71.688C 204.8 71.848 204.464 72.08 204.176 72.384C 203.904 72.672 203.68 73.016 203.504 73.416C 203.344 73.816 203.256 74.248 203.24 74.712L 209.624 74.712ZM 203.24 76.512C 203.24 76.992 203.304 77.456 203.432 77.904C 203.576 78.352 203.784 78.744 204.056 79.08C 204.328 79.416 204.672 79.688 205.088 79.896C 205.504 80.088 206 80.184 206.576 80.184C 207.376 80.184 208.016 80.016 208.496 79.68C 208.992 79.328 209.36 78.808 209.6 78.12L 212.192 78.12C 212.048 78.792 211.8 79.392 211.448 79.92C 211.096 80.448 210.672 80.896 210.176 81.264C 209.68 81.616 209.12 81.88 208.496 82.056C 207.888 82.248 207.248 82.344 206.576 82.344C 205.6 82.344 204.736 82.184 203.984 81.864C 203.232 81.544 202.592 81.096 202.064 80.52C 201.552 79.944 201.16 79.256 200.888 78.456C 200.632 77.656 200.504 76.776 200.504 75.816C 200.504 74.936 200.64 74.104 200.912 73.32C 201.2 72.52 201.6 71.824 202.112 71.232C 202.64 70.624 203.272 70.144 204.008 69.792C 204.744 69.44 205.576 69.264 206.504 69.264C 207.48 69.264 208.352 69.472 209.12 69.888C 209.904 70.288 210.552 70.824 211.064 71.496C 211.576 72.168 211.944 72.944 212.168 73.824C 212.408 74.688 212.472 75.584 212.36 76.512L 203.24 76.512ZM 214.44 69.6L 217.008 69.6L 217.008 72L 217.056 72C 217.136 71.664 217.288 71.336 217.512 71.016C 217.752 70.696 218.032 70.408 218.352 70.152C 218.688 69.88 219.056 69.664 219.456 69.504C 219.856 69.344 220.264 69.264 220.68 69.264C 221 69.264 221.216 69.272 221.328 69.288C 221.456 69.304 221.584 69.32 221.712 69.336L 221.712 71.976C 221.52 71.944 221.32 71.92 221.112 71.904C 220.92 71.872 220.728 71.856 220.536 71.856C 220.072 71.856 219.632 71.952 219.216 72.144C 218.816 72.32 218.464 72.592 218.16 72.96C 217.856 73.312 217.616 73.752 217.44 74.28C 217.264 74.808 217.176 75.416 217.176 76.104L 217.176 82.008L 214.44 82.008L 214.44 69.6ZM 231.187 74.712C 231.155 74.28 231.059 73.864 230.899 73.464C 230.755 73.064 230.547 72.72 230.275 72.432C 230.019 72.128 229.699 71.888 229.315 71.712C 228.947 71.52 228.531 71.424 228.067 71.424C 227.587 71.424 227.147 71.512 226.747 71.688C 226.363 71.848 226.027 72.08 225.739 72.384C 225.467 72.672 225.243 73.016 225.067 73.416C 224.907 73.816 224.819 74.248 224.803 74.712L 231.187 74.712ZM 224.803 76.512C 224.803 76.992 224.867 77.456 224.995 77.904C 225.139 78.352 225.347 78.744 225.619 79.08C 225.891 79.416 226.235 79.688 226.651 79.896C 227.067 80.088 227.563 80.184 228.139 80.184C 228.939 80.184 229.579 80.016 230.059 79.68C 230.555 79.328 230.923 78.808 231.163 78.12L 233.755 78.12C 233.611 78.792 233.363 79.392 233.011 79.92C 232.659 80.448 232.235 80.896 231.739 81.264C 231.243 81.616 230.683 81.88 230.059 82.056C 229.451 82.248 228.811 82.344 228.139 82.344C 227.163 82.344 226.299 82.184 225.547 81.864C 224.795 81.544 224.155 81.096 223.627 80.52C 223.115 79.944 222.723 79.256 222.451 78.456C 222.195 77.656 222.067 76.776 222.067 75.816C 222.067 74.936 222.203 74.104 222.475 73.32C 222.763 72.52 223.163 71.824 223.675 71.232C 224.203 70.624 224.835 70.144 225.571 69.792C 226.307 69.44 227.139 69.264 228.067 69.264C 229.043 69.264 229.915 69.472 230.683 69.888C 231.467 70.288 232.115 70.824 232.627 71.496C 233.139 72.168 233.507 72.944 233.731 73.824C 233.971 74.688 234.035 75.584 233.923 76.512L 224.803 76.512ZM 239.344 79.008L 242.56 79.008L 242.56 82.008L 239.344 82.008L 239.344 79.008ZM 235.528 70.32C 235.528 69.44 235.656 68.64 235.912 67.92C 236.184 67.2 236.568 66.584 237.064 66.072C 237.576 65.56 238.184 65.168 238.888 64.896C 239.608 64.608 240.408 64.464 241.288 64.464C 242.024 64.464 242.704 64.576 243.328 64.8C 243.968 65.008 244.52 65.32 244.984 65.736C 245.464 66.136 245.84 66.64 246.112 67.248C 246.384 67.856 246.52 68.544 246.52 69.312C 246.52 69.872 246.456 70.36 246.328 70.776C 246.216 71.176 246.056 71.528 245.848 71.832C 245.656 72.12 245.432 72.384 245.176 72.624C 244.92 72.848 244.664 73.072 244.408 73.296C 244.104 73.552 243.824 73.8 243.568 74.04C 243.312 74.28 243.088 74.552 242.896 74.856C 242.704 75.144 242.552 75.488 242.44 75.888C 242.344 76.288 242.296 76.776 242.296 77.352L 239.704 77.352C 239.704 76.648 239.736 76.056 239.8 75.576C 239.88 75.08 240 74.648 240.16 74.28C 240.32 73.912 240.512 73.592 240.736 73.32C 240.976 73.032 241.256 72.752 241.576 72.48C 241.832 72.256 242.072 72.048 242.296 71.856C 242.536 71.664 242.744 71.456 242.92 71.232C 243.112 70.992 243.256 70.728 243.352 70.44C 243.464 70.152 243.52 69.808 243.52 69.408C 243.52 68.928 243.432 68.52 243.256 68.184C 243.096 67.832 242.896 67.552 242.656 67.344C 242.416 67.136 242.16 66.984 241.888 66.888C 241.616 66.792 241.376 66.744 241.168 66.744C 240.176 66.744 239.44 67.072 238.96 67.728C 238.496 68.368 238.264 69.232 238.264 70.32L 235.528 70.32Z"/>
</defs>
</svg>
