<svg width="382" height="85" viewBox="0 0 382 85" version="1.1" xmlns="http://www.w3.org/2000/svg" xmlns:xlink="http://www.w3.org/1999/xlink" xmlns:figma="http://www.figma.com/figma/ns">
<title>Message Right-one</title>
<desc>Created using Figma</desc>
<g id="Canvas" transform="translate(-3652 -423)" figma:type="canvas">
<rect x="3652" y="423" width="382" height="85" fill="#E5E5E5"/>
<mask id="mask0_alpha" mask-type="alpha">
<path d="M 3025 -474L 4465 -474L 4465 2472L 3025 2472L 3025 -474Z" fill="#FFFFFF"/>
</mask>
<g id="Home 3" style="mix-blend-mode:normal;" mask="url(#mask0_alpha)" figma:type="frame">
<path d="M 3025 -474L 4465 -474L 4465 2472L 3025 2472L 3025 -474Z" fill="#FFFFFF"/>
<g id="Section 2" style="mix-blend-mode:normal;" figma:type="frame">
<g id="Header" style="mix-blend-mode:normal;" figma:type="rounded-rectangle">
<use xlink:href="#path0_fill" transform="translate(3010 123)" fill="#FFFFFF" style="mix-blend-mode:normal;"/>
</g>
</g>
<g id="Section 1" style="mix-blend-mode:normal;" figma:type="frame">
</g>
<g id="iMessage Thread" style="mix-blend-mode:normal;" figma:type="frame">
<g id="Message Right-one" style="mix-blend-mode:normal;" figma:type="frame">
<g id="Bubble" style="mix-blend-mode:normal;" figma:type="vector-operation">
<use xlink:href="#path1_fill" transform="translate(3652 423)" fill="#007AFF" style="mix-blend-mode:normal;"/>
</g>
<g id="Need my place cleaned. It&#226;&#128;&#153;s a 2 bedroom/2bath." style="mix-blend-mode:normal;" figma:type="text">
<use xlink:href="#path2_fill" transform="translate(3698.75 434)" fill="#FFFFFF" style="mix-blend-mode:normal;"/>
</g>
</g>
</g>
</g>
</g>
<defs>
<path id="path0_fill" d="M 0 0L 1470 0L 1470 600L 0 600L 0 0Z"/>
<path id="path1_fill" fill-rule="evenodd" d="M 42.5 0C 19.0278 0 0 19.0279 0 42.5C 0 65.9721 19.0278 85 42.5 85L 324.994 85C 334.914 85 344.04 81.6011 351.272 75.9044C 359.018 81.6069 368.801 85 379.582 85C 379.615 85 379.685 84.9985 379.782 84.9963C 380.19 84.9872 381.099 84.9669 382 85C 373.996 82.0229 368.187 74.7682 367.494 65.5714L 367.494 43.7143L 367.477 43.7143C 367.488 43.3109 367.494 42.9061 367.494 42.5C 367.494 19.0279 348.466 0 324.994 0L 42.5 0Z"/>
<path id="path2_fill" d="M 1.704 6.264L 4.872 6.264L 12.696 18.888L 12.744 18.888L 12.744 6.264L 15.6 6.264L 15.6 23.4L 12.432 23.4L 4.632 10.8L 4.56 10.8L 4.56 23.4L 1.704 23.4L 1.704 6.264ZM 27.2803 16.104C 27.2483 15.672 27.1523 15.256 26.9923 14.856C 26.8483 14.456 26.6403 14.112 26.3683 13.824C 26.1123 13.52 25.7923 13.28 25.4083 13.104C 25.0403 12.912 24.6243 12.816 24.1603 12.816C 23.6803 12.816 23.2403 12.904 22.8403 13.08C 22.4563 13.24 22.1203 13.472 21.8323 13.776C 21.5603 14.064 21.3363 14.408 21.1603 14.808C 21.0003 15.208 20.9123 15.64 20.8963 16.104L 27.2803 16.104ZM 20.8963 17.904C 20.8963 18.384 20.9603 18.848 21.0883 19.296C 21.2323 19.744 21.4403 20.136 21.7123 20.472C 21.9843 20.808 22.3283 21.08 22.7443 21.288C 23.1603 21.48 23.6563 21.576 24.2323 21.576C 25.0323 21.576 25.6723 21.408 26.1523 21.072C 26.6483 20.72 27.0163 20.2 27.2563 19.512L 29.8483 19.512C 29.7043 20.184 29.4563 20.784 29.1043 21.312C 28.7523 21.84 28.3283 22.288 27.8323 22.656C 27.3363 23.008 26.7763 23.272 26.1523 23.448C 25.5443 23.64 24.9043 23.736 24.2323 23.736C 23.2563 23.736 22.3923 23.576 21.6403 23.256C 20.8883 22.936 20.2483 22.488 19.7203 21.912C 19.2083 21.336 18.8163 20.648 18.5443 19.848C 18.2883 19.048 18.1603 18.168 18.1603 17.208C 18.1603 16.328 18.2963 15.496 18.5683 14.712C 18.8563 13.912 19.2563 13.216 19.7683 12.624C 20.2963 12.016 20.9283 11.536 21.6643 11.184C 22.4003 10.832 23.2323 10.656 24.1603 10.656C 25.1363 10.656 26.0083 10.864 26.7763 11.28C 27.5603 11.68 28.2083 12.216 28.7203 12.888C 29.2323 13.56 29.6003 14.336 29.8243 15.216C 30.0643 16.08 30.1283 16.976 30.0163 17.904L 20.8963 17.904ZM 40.6162 16.104C 40.5842 15.672 40.4882 15.256 40.3282 14.856C 40.1843 14.456 39.9762 14.112 39.7043 13.824C 39.4483 13.52 39.1282 13.28 38.7443 13.104C 38.3762 12.912 37.9602 12.816 37.4962 12.816C 37.0162 12.816 36.5763 12.904 36.1763 13.08C 35.7923 13.24 35.4563 13.472 35.1682 13.776C 34.8962 14.064 34.6723 14.408 34.4962 14.808C 34.3363 15.208 34.2483 15.64 34.2323 16.104L 40.6162 16.104ZM 34.2323 17.904C 34.2323 18.384 34.2963 18.848 34.4243 19.296C 34.5683 19.744 34.7763 20.136 35.0482 20.472C 35.3202 20.808 35.6643 21.08 36.0802 21.288C 36.4963 21.48 36.9922 21.576 37.5682 21.576C 38.3682 21.576 39.0082 21.408 39.4883 21.072C 39.9842 20.72 40.3523 20.2 40.5923 19.512L 43.1843 19.512C 43.0402 20.184 42.7923 20.784 42.4402 21.312C 42.0882 21.84 41.6642 22.288 41.1682 22.656C 40.6723 23.008 40.1122 23.272 39.4883 23.448C 38.8802 23.64 38.2403 23.736 37.5682 23.736C 36.5922 23.736 35.7283 23.576 34.9763 23.256C 34.2242 22.936 33.5843 22.488 33.0563 21.912C 32.5442 21.336 32.1523 20.648 31.8802 19.848C 31.6243 19.048 31.4963 18.168 31.4963 17.208C 31.4963 16.328 31.6322 15.496 31.9043 14.712C 32.1923 13.912 32.5923 13.216 33.1042 12.624C 33.6322 12.016 34.2642 11.536 35.0002 11.184C 35.7363 10.832 36.5682 10.656 37.4962 10.656C 38.4722 10.656 39.3442 10.864 40.1122 11.28C 40.8963 11.68 41.5442 12.216 42.0562 12.888C 42.5682 13.56 42.9362 14.336 43.1603 15.216C 43.4003 16.08 43.4643 16.976 43.3522 17.904L 34.2323 17.904ZM 57.1202 23.4L 54.5282 23.4L 54.5282 21.72L 54.4802 21.72C 54.1122 22.44 53.5762 22.96 52.8722 23.28C 52.1682 23.584 51.4242 23.736 50.6402 23.736C 49.6642 23.736 48.8082 23.568 48.0722 23.232C 47.3522 22.88 46.7522 22.408 46.2722 21.816C 45.7922 21.224 45.4322 20.528 45.1922 19.728C 44.9522 18.912 44.8322 18.04 44.8322 17.112C 44.8322 15.992 44.9842 15.024 45.2882 14.208C 45.5922 13.392 45.9922 12.72 46.4882 12.192C 47.0002 11.664 47.5762 11.28 48.2162 11.04C 48.8722 10.784 49.5362 10.656 50.2082 10.656C 50.5922 10.656 50.9842 10.696 51.3842 10.776C 51.7842 10.84 52.1682 10.952 52.5362 11.112C 52.9042 11.272 53.2402 11.48 53.5442 11.736C 53.8642 11.976 54.1282 12.264 54.3362 12.6L 54.3842 12.6L 54.3842 6.264L 57.1202 6.264L 57.1202 23.4ZM 47.5682 17.328C 47.5682 17.856 47.6322 18.376 47.7602 18.888C 47.9042 19.4 48.1122 19.856 48.3842 20.256C 48.6722 20.656 49.0322 20.976 49.4642 21.216C 49.8962 21.456 50.4082 21.576 51.0002 21.576C 51.6082 21.576 52.1282 21.448 52.5602 21.192C 53.0082 20.936 53.3682 20.6 53.6402 20.184C 53.9282 19.768 54.1362 19.304 54.2642 18.792C 54.4082 18.264 54.4802 17.728 54.4802 17.184C 54.4802 15.808 54.1682 14.736 53.5442 13.968C 52.9362 13.2 52.1042 12.816 51.0482 12.816C 50.4082 12.816 49.8642 12.952 49.4162 13.224C 48.9842 13.48 48.6242 13.824 48.3362 14.256C 48.0642 14.672 47.8642 15.152 47.7362 15.696C 47.6242 16.224 47.5682 16.768 47.5682 17.328ZM 66.7837 10.992L 69.3757 10.992L 69.3757 12.72L 69.4478 12.72C 69.6558 12.416 69.8797 12.136 70.1198 11.88C 70.3598 11.624 70.6237 11.408 70.9117 11.232C 71.2157 11.056 71.5598 10.92 71.9438 10.824C 72.3278 10.712 72.7677 10.656 73.2638 10.656C 74.0158 10.656 74.7117 10.824 75.3517 11.16C 76.0078 11.496 76.4718 12.016 76.7437 12.72C 77.2077 12.08 77.7437 11.576 78.3517 11.208C 78.9598 10.84 79.7197 10.656 80.6318 10.656C 81.9437 10.656 82.9598 10.976 83.6797 11.616C 84.4157 12.256 84.7838 13.328 84.7838 14.832L 84.7838 23.4L 82.0477 23.4L 82.0477 16.152C 82.0477 15.656 82.0318 15.208 81.9998 14.808C 81.9677 14.392 81.8717 14.04 81.7117 13.752C 81.5677 13.448 81.3438 13.216 81.0397 13.056C 80.7358 12.896 80.3198 12.816 79.7917 12.816C 78.8637 12.816 78.1918 13.104 77.7758 13.68C 77.3598 14.256 77.1518 15.072 77.1518 16.128L 77.1518 23.4L 74.4157 23.4L 74.4157 15.432C 74.4157 14.568 74.2557 13.92 73.9358 13.488C 73.6318 13.04 73.0637 12.816 72.2318 12.816C 71.8797 12.816 71.5357 12.888 71.1998 13.032C 70.8798 13.176 70.5918 13.384 70.3358 13.656C 70.0957 13.928 69.8958 14.264 69.7357 14.664C 69.5918 15.064 69.5197 15.52 69.5197 16.032L 69.5197 23.4L 66.7837 23.4L 66.7837 10.992ZM 86.2986 10.992L 89.2986 10.992L 92.5386 20.256L 92.5866 20.256L 95.7306 10.992L 98.5866 10.992L 93.7626 24.072C 93.5386 24.632 93.3146 25.168 93.0906 25.68C 92.8826 26.192 92.6186 26.64 92.2986 27.024C 91.9946 27.424 91.6106 27.736 91.1466 27.96C 90.6826 28.2 90.0906 28.32 89.3706 28.32C 88.7306 28.32 88.0986 28.272 87.4746 28.176L 87.4746 25.872C 87.6986 25.904 87.9146 25.936 88.1226 25.968C 88.3306 26.016 88.5466 26.04 88.7706 26.04C 89.0906 26.04 89.3546 26 89.5626 25.92C 89.7706 25.84 89.9386 25.72 90.0666 25.56C 90.2106 25.416 90.3306 25.24 90.4266 25.032C 90.5226 24.824 90.6106 24.584 90.6906 24.312L 91.0026 23.352L 86.2986 10.992ZM 106.864 10.992L 109.456 10.992L 109.456 12.672L 109.504 12.672C 109.888 11.952 110.424 11.44 111.112 11.136C 111.8 10.816 112.544 10.656 113.344 10.656C 114.32 10.656 115.168 10.832 115.888 11.184C 116.624 11.52 117.232 11.992 117.712 12.6C 118.192 13.192 118.552 13.888 118.792 14.688C 119.032 15.488 119.152 16.344 119.152 17.256C 119.152 18.088 119.04 18.896 118.816 19.68C 118.608 20.464 118.28 21.16 117.832 21.768C 117.4 22.36 116.848 22.84 116.176 23.208C 115.504 23.56 114.712 23.736 113.8 23.736C 113.4 23.736 113 23.696 112.6 23.616C 112.2 23.552 111.816 23.44 111.448 23.28C 111.08 23.12 110.736 22.92 110.416 22.68C 110.112 22.424 109.856 22.128 109.648 21.792L 109.6 21.792L 109.6 27.984L 106.864 27.984L 106.864 10.992ZM 116.416 17.208C 116.416 16.648 116.344 16.104 116.2 15.576C 116.056 15.048 115.84 14.584 115.552 14.184C 115.264 13.768 114.904 13.44 114.472 13.2C 114.04 12.944 113.544 12.816 112.984 12.816C 111.832 12.816 110.96 13.216 110.368 14.016C 109.792 14.816 109.504 15.88 109.504 17.208C 109.504 17.832 109.576 18.416 109.72 18.96C 109.88 19.488 110.112 19.944 110.416 20.328C 110.72 20.712 111.08 21.016 111.496 21.24C 111.928 21.464 112.424 21.576 112.984 21.576C 113.608 21.576 114.136 21.448 114.568 21.192C 115 20.936 115.352 20.608 115.624 20.208C 115.912 19.792 116.112 19.328 116.224 18.816C 116.352 18.288 116.416 17.752 116.416 17.208ZM 121.535 6.264L 124.271 6.264L 124.271 23.4L 121.535 23.4L 121.535 6.264ZM 137.645 20.64C 137.645 20.976 137.684 21.216 137.764 21.36C 137.86 21.504 138.036 21.576 138.292 21.576C 138.372 21.576 138.468 21.576 138.581 21.576C 138.693 21.576 138.82 21.56 138.964 21.528L 138.964 23.424C 138.869 23.456 138.74 23.488 138.581 23.52C 138.437 23.568 138.285 23.608 138.125 23.64C 137.965 23.672 137.804 23.696 137.645 23.712C 137.485 23.728 137.349 23.736 137.237 23.736C 136.677 23.736 136.213 23.624 135.845 23.4C 135.476 23.176 135.237 22.784 135.125 22.224C 134.58 22.752 133.908 23.136 133.108 23.376C 132.325 23.616 131.565 23.736 130.829 23.736C 130.268 23.736 129.732 23.656 129.221 23.496C 128.709 23.352 128.252 23.136 127.853 22.848C 127.468 22.544 127.157 22.168 126.917 21.72C 126.692 21.256 126.581 20.72 126.581 20.112C 126.581 19.344 126.717 18.72 126.988 18.24C 127.277 17.76 127.645 17.384 128.092 17.112C 128.556 16.84 129.069 16.648 129.628 16.536C 130.204 16.408 130.781 16.312 131.357 16.248C 131.852 16.152 132.325 16.088 132.772 16.056C 133.221 16.008 133.612 15.936 133.948 15.84C 134.3 15.744 134.573 15.6 134.764 15.408C 134.972 15.2 135.077 14.896 135.077 14.496C 135.077 14.144 134.989 13.856 134.812 13.632C 134.653 13.408 134.445 13.24 134.189 13.128C 133.948 13 133.677 12.92 133.372 12.888C 133.068 12.84 132.78 12.816 132.509 12.816C 131.74 12.816 131.108 12.976 130.613 13.296C 130.116 13.616 129.837 14.112 129.773 14.784L 127.036 14.784C 127.084 13.984 127.277 13.32 127.613 12.792C 127.949 12.264 128.373 11.84 128.885 11.52C 129.413 11.2 130.005 10.976 130.661 10.848C 131.316 10.72 131.989 10.656 132.677 10.656C 133.284 10.656 133.885 10.72 134.477 10.848C 135.069 10.976 135.596 11.184 136.06 11.472C 136.54 11.76 136.924 12.136 137.212 12.6C 137.5 13.048 137.645 13.6 137.645 14.256L 137.645 20.64ZM 134.909 17.184C 134.493 17.456 133.981 17.624 133.372 17.688C 132.764 17.736 132.157 17.816 131.548 17.928C 131.26 17.976 130.98 18.048 130.708 18.144C 130.436 18.224 130.196 18.344 129.988 18.504C 129.78 18.648 129.612 18.848 129.484 19.104C 129.372 19.344 129.316 19.64 129.316 19.992C 129.316 20.296 129.405 20.552 129.581 20.76C 129.756 20.968 129.964 21.136 130.204 21.264C 130.461 21.376 130.732 21.456 131.02 21.504C 131.324 21.552 131.596 21.576 131.836 21.576C 132.14 21.576 132.468 21.536 132.82 21.456C 133.173 21.376 133.5 21.24 133.805 21.048C 134.124 20.856 134.388 20.616 134.596 20.328C 134.804 20.024 134.909 19.656 134.909 19.224L 134.909 17.184ZM 148.964 15.144C 148.852 14.376 148.54 13.8 148.028 13.416C 147.532 13.016 146.9 12.816 146.132 12.816C 145.78 12.816 145.404 12.88 145.004 13.008C 144.604 13.12 144.236 13.344 143.9 13.68C 143.564 14 143.284 14.456 143.06 15.048C 142.836 15.624 142.724 16.384 142.724 17.328C 142.724 17.84 142.78 18.352 142.892 18.864C 143.02 19.376 143.212 19.832 143.468 20.232C 143.74 20.632 144.084 20.96 144.5 21.216C 144.916 21.456 145.42 21.576 146.012 21.576C 146.812 21.576 147.468 21.328 147.98 20.832C 148.508 20.336 148.836 19.64 148.964 18.744L 151.7 18.744C 151.444 20.36 150.828 21.6 149.852 22.464C 148.892 23.312 147.612 23.736 146.012 23.736C 145.036 23.736 144.172 23.576 143.42 23.256C 142.684 22.92 142.06 22.472 141.548 21.912C 141.036 21.336 140.644 20.656 140.372 19.872C 140.116 19.088 139.988 18.24 139.988 17.328C 139.988 16.4 140.116 15.528 140.372 14.712C 140.628 13.896 141.012 13.192 141.524 12.6C 142.036 11.992 142.668 11.52 143.42 11.184C 144.188 10.832 145.084 10.656 146.108 10.656C 146.828 10.656 147.508 10.752 148.148 10.944C 148.804 11.12 149.38 11.392 149.876 11.76C 150.388 12.128 150.804 12.592 151.124 13.152C 151.444 13.712 151.636 14.376 151.7 15.144L 148.964 15.144ZM 162.444 16.104C 162.412 15.672 162.316 15.256 162.156 14.856C 162.012 14.456 161.804 14.112 161.532 13.824C 161.276 13.52 160.956 13.28 160.572 13.104C 160.204 12.912 159.788 12.816 159.324 12.816C 158.844 12.816 158.404 12.904 158.004 13.08C 157.62 13.24 157.284 13.472 156.996 13.776C 156.724 14.064 156.5 14.408 156.324 14.808C 156.164 15.208 156.076 15.64 156.06 16.104L 162.444 16.104ZM 156.06 17.904C 156.06 18.384 156.124 18.848 156.252 19.296C 156.396 19.744 156.604 20.136 156.876 20.472C 157.148 20.808 157.492 21.08 157.908 21.288C 158.324 21.48 158.82 21.576 159.396 21.576C 160.196 21.576 160.836 21.408 161.316 21.072C 161.812 20.72 162.18 20.2 162.42 19.512L 165.012 19.512C 164.868 20.184 164.62 20.784 164.268 21.312C 163.916 21.84 163.492 22.288 162.996 22.656C 162.5 23.008 161.94 23.272 161.316 23.448C 160.708 23.64 160.068 23.736 159.396 23.736C 158.42 23.736 157.556 23.576 156.804 23.256C 156.052 22.936 155.412 22.488 154.884 21.912C 154.372 21.336 153.98 20.648 153.708 19.848C 153.452 19.048 153.324 18.168 153.324 17.208C 153.324 16.328 153.46 15.496 153.732 14.712C 154.02 13.912 154.42 13.216 154.932 12.624C 155.46 12.016 156.092 11.536 156.828 11.184C 157.564 10.832 158.396 10.656 159.324 10.656C 160.3 10.656 161.172 10.864 161.94 11.28C 162.724 11.68 163.372 12.216 163.884 12.888C 164.396 13.56 164.764 14.336 164.988 15.216C 165.228 16.08 165.292 16.976 165.18 17.904L 156.06 17.904ZM 182.316 15.144C 182.204 14.376 181.892 13.8 181.38 13.416C 180.884 13.016 180.252 12.816 179.484 12.816C 179.132 12.816 178.756 12.88 178.356 13.008C 177.956 13.12 177.588 13.344 177.252 13.68C 176.916 14 176.636 14.456 176.412 15.048C 176.188 15.624 176.076 16.384 176.076 17.328C 176.076 17.84 176.132 18.352 176.244 18.864C 176.372 19.376 176.564 19.832 176.82 20.232C 177.092 20.632 177.436 20.96 177.852 21.216C 178.268 21.456 178.772 21.576 179.364 21.576C 180.164 21.576 180.82 21.328 181.332 20.832C 181.86 20.336 182.188 19.64 182.316 18.744L 185.052 18.744C 184.796 20.36 184.18 21.6 183.204 22.464C 182.244 23.312 180.964 23.736 179.364 23.736C 178.388 23.736 177.524 23.576 176.772 23.256C 176.036 22.92 175.412 22.472 174.9 21.912C 174.388 21.336 173.996 20.656 173.724 19.872C 173.468 19.088 173.34 18.24 173.34 17.328C 173.34 16.4 173.468 15.528 173.724 14.712C 173.98 13.896 174.364 13.192 174.876 12.6C 175.388 11.992 176.02 11.52 176.772 11.184C 177.54 10.832 178.436 10.656 179.46 10.656C 180.18 10.656 180.86 10.752 181.5 10.944C 182.156 11.12 182.732 11.392 183.228 11.76C 183.74 12.128 184.156 12.592 184.476 13.152C 184.796 13.712 184.988 14.376 185.052 15.144L 182.316 15.144ZM 187.348 6.264L 190.084 6.264L 190.084 23.4L 187.348 23.4L 187.348 6.264ZM 201.585 16.104C 201.553 15.672 201.457 15.256 201.297 14.856C 201.153 14.456 200.945 14.112 200.673 13.824C 200.417 13.52 200.097 13.28 199.713 13.104C 199.345 12.912 198.929 12.816 198.465 12.816C 197.985 12.816 197.545 12.904 197.145 13.08C 196.761 13.24 196.425 13.472 196.137 13.776C 195.865 14.064 195.641 14.408 195.465 14.808C 195.305 15.208 195.217 15.64 195.201 16.104L 201.585 16.104ZM 195.201 17.904C 195.201 18.384 195.265 18.848 195.393 19.296C 195.537 19.744 195.745 20.136 196.017 20.472C 196.289 20.808 196.633 21.08 197.049 21.288C 197.465 21.48 197.961 21.576 198.537 21.576C 199.337 21.576 199.977 21.408 200.457 21.072C 200.953 20.72 201.321 20.2 201.561 19.512L 204.153 19.512C 204.009 20.184 203.761 20.784 203.409 21.312C 203.057 21.84 202.633 22.288 202.137 22.656C 201.641 23.008 201.081 23.272 200.457 23.448C 199.849 23.64 199.209 23.736 198.537 23.736C 197.561 23.736 196.697 23.576 195.945 23.256C 195.193 22.936 194.553 22.488 194.025 21.912C 193.513 21.336 193.121 20.648 192.849 19.848C 192.593 19.048 192.465 18.168 192.465 17.208C 192.465 16.328 192.601 15.496 192.873 14.712C 193.161 13.912 193.561 13.216 194.073 12.624C 194.601 12.016 195.233 11.536 195.969 11.184C 196.705 10.832 197.537 10.656 198.465 10.656C 199.441 10.656 200.313 10.864 201.081 11.28C 201.865 11.68 202.513 12.216 203.025 12.888C 203.537 13.56 203.905 14.336 204.129 15.216C 204.369 16.08 204.433 16.976 204.321 17.904L 195.201 17.904ZM 216.793 20.64C 216.793 20.976 216.833 21.216 216.913 21.36C 217.009 21.504 217.185 21.576 217.441 21.576C 217.521 21.576 217.617 21.576 217.729 21.576C 217.841 21.576 217.969 21.56 218.113 21.528L 218.113 23.424C 218.017 23.456 217.889 23.488 217.729 23.52C 217.585 23.568 217.433 23.608 217.273 23.64C 217.113 23.672 216.953 23.696 216.793 23.712C 216.633 23.728 216.497 23.736 216.385 23.736C 215.825 23.736 215.361 23.624 214.993 23.4C 214.625 23.176 214.385 22.784 214.273 22.224C 213.729 22.752 213.057 23.136 212.257 23.376C 211.473 23.616 210.713 23.736 209.977 23.736C 209.417 23.736 208.881 23.656 208.369 23.496C 207.857 23.352 207.401 23.136 207.001 22.848C 206.617 22.544 206.305 22.168 206.065 21.72C 205.841 21.256 205.729 20.72 205.729 20.112C 205.729 19.344 205.865 18.72 206.137 18.24C 206.425 17.76 206.793 17.384 207.241 17.112C 207.705 16.84 208.217 16.648 208.777 16.536C 209.353 16.408 209.929 16.312 210.505 16.248C 211.001 16.152 211.473 16.088 211.921 16.056C 212.369 16.008 212.761 15.936 213.097 15.84C 213.449 15.744 213.721 15.6 213.913 15.408C 214.121 15.2 214.225 14.896 214.225 14.496C 214.225 14.144 214.137 13.856 213.961 13.632C 213.801 13.408 213.593 13.24 213.337 13.128C 213.097 13 212.825 12.92 212.521 12.888C 212.217 12.84 211.929 12.816 211.657 12.816C 210.889 12.816 210.257 12.976 209.761 13.296C 209.265 13.616 208.985 14.112 208.921 14.784L 206.185 14.784C 206.233 13.984 206.425 13.32 206.761 12.792C 207.097 12.264 207.521 11.84 208.033 11.52C 208.561 11.2 209.153 10.976 209.809 10.848C 210.465 10.72 211.137 10.656 211.825 10.656C 212.433 10.656 213.033 10.72 213.625 10.848C 214.217 10.976 214.745 11.184 215.209 11.472C 215.689 11.76 216.073 12.136 216.361 12.6C 216.649 13.048 216.793 13.6 216.793 14.256L 216.793 20.64ZM 214.057 17.184C 213.641 17.456 213.129 17.624 212.521 17.688C 211.913 17.736 211.305 17.816 210.697 17.928C 210.409 17.976 210.129 18.048 209.857 18.144C 209.585 18.224 209.345 18.344 209.137 18.504C 208.929 18.648 208.761 18.848 208.633 19.104C 208.521 19.344 208.465 19.64 208.465 19.992C 208.465 20.296 208.553 20.552 208.729 20.76C 208.905 20.968 209.113 21.136 209.353 21.264C 209.609 21.376 209.881 21.456 210.169 21.504C 210.473 21.552 210.745 21.576 210.985 21.576C 211.289 21.576 211.617 21.536 211.969 21.456C 212.321 21.376 212.649 21.24 212.953 21.048C 213.273 20.856 213.537 20.616 213.745 20.328C 213.953 20.024 214.057 19.656 214.057 19.224L 214.057 17.184ZM 219.737 10.992L 222.329 10.992L 222.329 12.816L 222.377 12.864C 222.793 12.176 223.337 11.64 224.009 11.256C 224.681 10.856 225.425 10.656 226.241 10.656C 227.601 10.656 228.673 11.008 229.457 11.712C 230.241 12.416 230.633 13.472 230.633 14.88L 230.633 23.4L 227.897 23.4L 227.897 15.6C 227.865 14.624 227.657 13.92 227.273 13.488C 226.889 13.04 226.289 12.816 225.473 12.816C 225.009 12.816 224.593 12.904 224.225 13.08C 223.857 13.24 223.545 13.472 223.289 13.776C 223.033 14.064 222.833 14.408 222.689 14.808C 222.545 15.208 222.473 15.632 222.473 16.08L 222.473 23.4L 219.737 23.4L 219.737 10.992ZM 242.038 16.104C 242.006 15.672 241.91 15.256 241.75 14.856C 241.606 14.456 241.398 14.112 241.126 13.824C 240.87 13.52 240.55 13.28 240.166 13.104C 239.798 12.912 239.382 12.816 238.918 12.816C 238.438 12.816 237.998 12.904 237.598 13.08C 237.214 13.24 236.878 13.472 236.59 13.776C 236.318 14.064 236.094 14.408 235.918 14.808C 235.758 15.208 235.67 15.64 235.654 16.104L 242.038 16.104ZM 235.654 17.904C 235.654 18.384 235.718 18.848 235.846 19.296C 235.99 19.744 236.198 20.136 236.47 20.472C 236.742 20.808 237.086 21.08 237.502 21.288C 237.918 21.48 238.414 21.576 238.99 21.576C 239.79 21.576 240.43 21.408 240.91 21.072C 241.406 20.72 241.774 20.2 242.014 19.512L 244.606 19.512C 244.462 20.184 244.214 20.784 243.862 21.312C 243.51 21.84 243.086 22.288 242.59 22.656C 242.094 23.008 241.534 23.272 240.91 23.448C 240.302 23.64 239.662 23.736 238.99 23.736C 238.014 23.736 237.15 23.576 236.398 23.256C 235.646 22.936 235.006 22.488 234.478 21.912C 233.966 21.336 233.574 20.648 233.302 19.848C 233.046 19.048 232.918 18.168 232.918 17.208C 232.918 16.328 233.054 15.496 233.326 14.712C 233.614 13.912 234.014 13.216 234.526 12.624C 235.054 12.016 235.686 11.536 236.422 11.184C 237.158 10.832 237.99 10.656 238.918 10.656C 239.894 10.656 240.766 10.864 241.534 11.28C 242.318 11.68 242.966 12.216 243.478 12.888C 243.99 13.56 244.358 14.336 244.582 15.216C 244.822 16.08 244.886 16.976 244.774 17.904L 235.654 17.904ZM 258.542 23.4L 255.95 23.4L 255.95 21.72L 255.902 21.72C 255.534 22.44 254.998 22.96 254.294 23.28C 253.59 23.584 252.846 23.736 252.062 23.736C 251.086 23.736 250.23 23.568 249.494 23.232C 248.774 22.88 248.174 22.408 247.694 21.816C 247.214 21.224 246.854 20.528 246.614 19.728C 246.374 18.912 246.254 18.04 246.254 17.112C 246.254 15.992 246.406 15.024 246.71 14.208C 247.014 13.392 247.414 12.72 247.91 12.192C 248.422 11.664 248.998 11.28 249.638 11.04C 250.294 10.784 250.958 10.656 251.63 10.656C 252.014 10.656 252.406 10.696 252.806 10.776C 253.206 10.84 253.59 10.952 253.958 11.112C 254.326 11.272 254.662 11.48 254.966 11.736C 255.286 11.976 255.55 12.264 255.758 12.6L 255.806 12.6L 255.806 6.264L 258.542 6.264L 258.542 23.4ZM 248.99 17.328C 248.99 17.856 249.054 18.376 249.182 18.888C 249.326 19.4 249.534 19.856 249.806 20.256C 250.094 20.656 250.454 20.976 250.886 21.216C 251.318 21.456 251.83 21.576 252.422 21.576C 253.03 21.576 253.55 21.448 253.982 21.192C 254.43 20.936 254.79 20.6 255.062 20.184C 255.35 19.768 255.558 19.304 255.686 18.792C 255.83 18.264 255.902 17.728 255.902 17.184C 255.902 15.808 255.59 14.736 254.966 13.968C 254.358 13.2 253.526 12.816 252.47 12.816C 251.83 12.816 251.286 12.952 250.838 13.224C 250.406 13.48 250.046 13.824 249.758 14.256C 249.486 14.672 249.286 15.152 249.158 15.696C 249.046 16.224 248.99 16.768 248.99 17.328ZM 261.742 20.16L 265.078 20.16L 265.078 23.4L 261.742 23.4L 261.742 20.16ZM 1.824 35.568L 4.824 35.568L 4.824 52.704L 1.824 52.704L 1.824 35.568ZM 6.87169 40.296L 8.93569 40.296L 8.93569 36.576L 11.6717 36.576L 11.6717 40.296L 14.1437 40.296L 14.1437 42.336L 11.6717 42.336L 11.6717 48.96C 11.6717 49.248 11.6797 49.496 11.6957 49.704C 11.7277 49.912 11.7837 50.088 11.8637 50.232C 11.9597 50.376 12.0957 50.488 12.2717 50.568C 12.4477 50.632 12.6877 50.664 12.9917 50.664C 13.1837 50.664 13.3757 50.664 13.5677 50.664C 13.7597 50.648 13.9517 50.616 14.1437 50.568L 14.1437 52.68C 13.8397 52.712 13.5437 52.744 13.2557 52.776C 12.9677 52.808 12.6717 52.824 12.3677 52.824C 11.6477 52.824 11.0637 52.76 10.6157 52.632C 10.1837 52.488 9.83969 52.288 9.58369 52.032C 9.34369 51.76 9.17569 51.424 9.07969 51.024C 8.99969 50.624 8.95169 50.168 8.93569 49.656L 8.93569 42.336L 6.87169 42.336L 6.87169 40.296ZM 16.5199 40.944C 17.0959 40.864 17.4799 40.624 17.6719 40.224C 17.8799 39.808 17.9839 39.336 17.9839 38.808L 16.5199 38.808L 16.5199 35.568L 19.5199 35.568L 19.5199 38.808C 19.5199 39.736 19.2479 40.528 18.7039 41.184C 18.1759 41.824 17.4479 42.208 16.5199 42.336L 16.5199 40.944ZM 23.9649 48.72C 24.0449 49.52 24.3489 50.08 24.8769 50.4C 25.4049 50.72 26.0369 50.88 26.7729 50.88C 27.0289 50.88 27.3169 50.864 27.6369 50.832C 27.9729 50.784 28.2849 50.704 28.5729 50.592C 28.8609 50.48 29.0929 50.32 29.2689 50.112C 29.4609 49.888 29.5489 49.6 29.5329 49.248C 29.5169 48.896 29.3889 48.608 29.1489 48.384C 28.9089 48.16 28.5969 47.984 28.2129 47.856C 27.8449 47.712 27.4209 47.592 26.9409 47.496C 26.4609 47.4 25.9729 47.296 25.4769 47.184C 24.9649 47.072 24.4689 46.936 23.9889 46.776C 23.5249 46.616 23.1009 46.4 22.7169 46.128C 22.3489 45.856 22.0529 45.512 21.8289 45.096C 21.6049 44.664 21.4929 44.136 21.4929 43.512C 21.4929 42.84 21.6529 42.28 21.9729 41.832C 22.3089 41.368 22.7249 41 23.2209 40.728C 23.7329 40.44 24.2929 40.24 24.9009 40.128C 25.5249 40.016 26.1169 39.96 26.6769 39.96C 27.3169 39.96 27.9249 40.032 28.5009 40.176C 29.0929 40.304 29.6209 40.52 30.0849 40.824C 30.5649 41.128 30.9569 41.528 31.2609 42.024C 31.5809 42.504 31.7809 43.088 31.8609 43.776L 29.0049 43.776C 28.8769 43.12 28.5729 42.68 28.0929 42.456C 27.6289 42.232 27.0929 42.12 26.4849 42.12C 26.2929 42.12 26.0609 42.136 25.7889 42.168C 25.5329 42.2 25.2849 42.264 25.0449 42.36C 24.8209 42.44 24.6289 42.568 24.4689 42.744C 24.3089 42.904 24.2289 43.12 24.2289 43.392C 24.2289 43.728 24.3409 44 24.5649 44.208C 24.8049 44.416 25.1089 44.592 25.4769 44.736C 25.8609 44.864 26.2929 44.976 26.7729 45.072C 27.2529 45.168 27.7489 45.272 28.2609 45.384C 28.7569 45.496 29.2449 45.632 29.7249 45.792C 30.2049 45.952 30.6289 46.168 30.9969 46.44C 31.3809 46.712 31.6849 47.056 31.9089 47.472C 32.1489 47.888 32.2689 48.4 32.2689 49.008C 32.2689 49.744 32.1009 50.368 31.7649 50.88C 31.4289 51.392 30.9889 51.808 30.4449 52.128C 29.9169 52.448 29.3249 52.68 28.6689 52.824C 28.0129 52.968 27.3649 53.04 26.7249 53.04C 25.9409 53.04 25.2129 52.952 24.5409 52.776C 23.8849 52.6 23.3089 52.336 22.8129 51.984C 22.3329 51.616 21.9489 51.168 21.6609 50.64C 21.3889 50.096 21.2449 49.456 21.2289 48.72L 23.9649 48.72ZM 50.5273 49.944C 50.5273 50.28 50.5673 50.52 50.6473 50.664C 50.7433 50.808 50.9193 50.88 51.1753 50.88C 51.2553 50.88 51.3513 50.88 51.4633 50.88C 51.5753 50.88 51.7033 50.864 51.8473 50.832L 51.8473 52.728C 51.7513 52.76 51.6233 52.792 51.4633 52.824C 51.3193 52.872 51.1673 52.912 51.0073 52.944C 50.8473 52.976 50.6873 53 50.5273 53.016C 50.3673 53.032 50.2313 53.04 50.1193 53.04C 49.5593 53.04 49.0953 52.928 48.7273 52.704C 48.3593 52.48 48.1193 52.088 48.0073 51.528C 47.4633 52.056 46.7913 52.44 45.9913 52.68C 45.2073 52.92 44.4473 53.04 43.7113 53.04C 43.1513 53.04 42.6153 52.96 42.1033 52.8C 41.5913 52.656 41.1353 52.44 40.7353 52.152C 40.3513 51.848 40.0393 51.472 39.7993 51.024C 39.5753 50.56 39.4633 50.024 39.4633 49.416C 39.4633 48.648 39.5993 48.024 39.8713 47.544C 40.1593 47.064 40.5273 46.688 40.9753 46.416C 41.4393 46.144 41.9513 45.952 42.5113 45.84C 43.0873 45.712 43.6633 45.616 44.2393 45.552C 44.7353 45.456 45.2073 45.392 45.6553 45.36C 46.1033 45.312 46.4953 45.24 46.8313 45.144C 47.1833 45.048 47.4553 44.904 47.6473 44.712C 47.8553 44.504 47.9593 44.2 47.9593 43.8C 47.9593 43.448 47.8713 43.16 47.6953 42.936C 47.5353 42.712 47.3273 42.544 47.0713 42.432C 46.8313 42.304 46.5593 42.224 46.2553 42.192C 45.9513 42.144 45.6633 42.12 45.3913 42.12C 44.6233 42.12 43.9913 42.28 43.4953 42.6C 42.9993 42.92 42.7193 43.416 42.6553 44.088L 39.9193 44.088C 39.9673 43.288 40.1593 42.624 40.4953 42.096C 40.8313 41.568 41.2553 41.144 41.7673 40.824C 42.2953 40.504 42.8873 40.28 43.5433 40.152C 44.1993 40.024 44.8713 39.96 45.5593 39.96C 46.1673 39.96 46.7673 40.024 47.3593 40.152C 47.9513 40.28 48.4793 40.488 48.9433 40.776C 49.4233 41.064 49.8073 41.44 50.0953 41.904C 50.3833 42.352 50.5273 42.904 50.5273 43.56L 50.5273 49.944ZM 47.7913 46.488C 47.3753 46.76 46.8633 46.928 46.2553 46.992C 45.6473 47.04 45.0393 47.12 44.4313 47.232C 44.1433 47.28 43.8633 47.352 43.5913 47.448C 43.3193 47.528 43.0793 47.648 42.8713 47.808C 42.6633 47.952 42.4953 48.152 42.3673 48.408C 42.2553 48.648 42.1993 48.944 42.1993 49.296C 42.1993 49.6 42.2873 49.856 42.4633 50.064C 42.6393 50.272 42.8473 50.44 43.0873 50.568C 43.3433 50.68 43.6153 50.76 43.9033 50.808C 44.2073 50.856 44.4793 50.88 44.7193 50.88C 45.0233 50.88 45.3513 50.84 45.7033 50.76C 46.0553 50.68 46.3833 50.544 46.6873 50.352C 47.0073 50.16 47.2713 49.92 47.4793 49.632C 47.6873 49.328 47.7913 48.96 47.7913 48.528L 47.7913 46.488ZM 71.1189 52.704L 59.6469 52.704C 59.6629 51.312 59.9989 50.096 60.6549 49.056C 61.3109 48.016 62.2069 47.112 63.3429 46.344C 63.8869 45.944 64.4549 45.56 65.0469 45.192C 65.6389 44.808 66.1829 44.4 66.6789 43.968C 67.1749 43.536 67.5829 43.072 67.9029 42.576C 68.2229 42.064 68.3909 41.48 68.4069 40.824C 68.4069 40.52 68.3669 40.2 68.2869 39.864C 68.2229 39.512 68.0869 39.192 67.8789 38.904C 67.6709 38.6 67.3829 38.352 67.0149 38.16C 66.6469 37.952 66.1669 37.848 65.5749 37.848C 65.0309 37.848 64.5749 37.96 64.2069 38.184C 63.8549 38.392 63.5669 38.688 63.3429 39.072C 63.1349 39.44 62.9749 39.88 62.8629 40.392C 62.7669 40.904 62.7109 41.456 62.6949 42.048L 59.9589 42.048C 59.9589 41.12 60.0789 40.264 60.3189 39.48C 60.5749 38.68 60.9509 37.992 61.4469 37.416C 61.9429 36.84 62.5429 36.392 63.2469 36.072C 63.9669 35.736 64.7989 35.568 65.7429 35.568C 66.7669 35.568 67.6229 35.736 68.3109 36.072C 68.9989 36.408 69.5509 36.832 69.9669 37.344C 70.3989 37.856 70.7029 38.416 70.8789 39.024C 71.0549 39.616 71.1429 40.184 71.1429 40.728C 71.1429 41.4 71.0389 42.008 70.8309 42.552C 70.6229 43.096 70.3429 43.6 69.9909 44.064C 69.6389 44.512 69.2389 44.928 68.7909 45.312C 68.3429 45.696 67.8789 46.056 67.3989 46.392C 66.9189 46.728 66.4389 47.048 65.9589 47.352C 65.4789 47.656 65.0309 47.96 64.6149 48.264C 64.2149 48.568 63.8629 48.888 63.5589 49.224C 63.2549 49.544 63.0469 49.888 62.9349 50.256L 71.1189 50.256L 71.1189 52.704ZM 80.2386 35.568L 82.9746 35.568L 82.9746 41.904L 83.0226 41.904C 83.2146 41.6 83.4466 41.328 83.7186 41.088C 83.9906 40.848 84.2866 40.648 84.6066 40.488C 84.9426 40.312 85.2866 40.184 85.6386 40.104C 86.0066 40.008 86.3666 39.96 86.7186 39.96C 87.6946 39.96 88.5426 40.136 89.2626 40.488C 89.9986 40.824 90.6066 41.296 91.0866 41.904C 91.5666 42.496 91.9266 43.192 92.1666 43.992C 92.4066 44.792 92.5266 45.648 92.5266 46.56C 92.5266 47.392 92.4146 48.2 92.1906 48.984C 91.9826 49.768 91.6546 50.464 91.2066 51.072C 90.7746 51.664 90.2226 52.144 89.5506 52.512C 88.8786 52.864 88.0866 53.04 87.1746 53.04C 86.7586 53.04 86.3346 53.008 85.9026 52.944C 85.4866 52.896 85.0866 52.792 84.7026 52.632C 84.3186 52.472 83.9666 52.264 83.6466 52.008C 83.3426 51.752 83.0866 51.416 82.8786 51L 82.8306 51L 82.8306 52.704L 80.2386 52.704L 80.2386 35.568ZM 89.7906 46.512C 89.7906 45.952 89.7186 45.408 89.5746 44.88C 89.4306 44.352 89.2146 43.888 88.9266 43.488C 88.6386 43.072 88.2786 42.744 87.8466 42.504C 87.4146 42.248 86.9186 42.12 86.3586 42.12C 85.2066 42.12 84.3346 42.52 83.7426 43.32C 83.1666 44.12 82.8786 45.184 82.8786 46.512C 82.8786 47.136 82.9506 47.72 83.0946 48.264C 83.2546 48.792 83.4866 49.248 83.7906 49.632C 84.0946 50.016 84.4546 50.32 84.8706 50.544C 85.3026 50.768 85.7986 50.88 86.3586 50.88C 86.9826 50.88 87.5106 50.752 87.9426 50.496C 88.3746 50.24 88.7266 49.912 88.9986 49.512C 89.2866 49.096 89.4866 48.632 89.5986 48.12C 89.7266 47.592 89.7906 47.056 89.7906 46.512ZM 103.358 45.408C 103.326 44.976 103.23 44.56 103.07 44.16C 102.926 43.76 102.718 43.416 102.446 43.128C 102.19 42.824 101.87 42.584 101.486 42.408C 101.118 42.216 100.702 42.12 100.238 42.12C 99.7584 42.12 99.3184 42.208 98.9184 42.384C 98.5344 42.544 98.1984 42.776 97.9104 43.08C 97.6384 43.368 97.4144 43.712 97.2384 44.112C 97.0784 44.512 96.9904 44.944 96.9744 45.408L 103.358 45.408ZM 96.9744 47.208C 96.9744 47.688 97.0384 48.152 97.1664 48.6C 97.3104 49.048 97.5184 49.44 97.7904 49.776C 98.0624 50.112 98.4064 50.384 98.8224 50.592C 99.2384 50.784 99.7344 50.88 100.31 50.88C 101.11 50.88 101.75 50.712 102.23 50.376C 102.726 50.024 103.094 49.504 103.334 48.816L 105.926 48.816C 105.782 49.488 105.534 50.088 105.182 50.616C 104.83 51.144 104.406 51.592 103.91 51.96C 103.414 52.312 102.854 52.576 102.23 52.752C 101.622 52.944 100.982 53.04 100.31 53.04C 99.3344 53.04 98.4704 52.88 97.7184 52.56C 96.9664 52.24 96.3264 51.792 95.7984 51.216C 95.2864 50.64 94.8944 49.952 94.6224 49.152C 94.3664 48.352 94.2384 47.472 94.2384 46.512C 94.2384 45.632 94.3744 44.8 94.6464 44.016C 94.9344 43.216 95.3344 42.52 95.8464 41.928C 96.3744 41.32 97.0064 40.84 97.7424 40.488C 98.4784 40.136 99.3104 39.96 100.238 39.96C 101.214 39.96 102.086 40.168 102.854 40.584C 103.638 40.984 104.286 41.52 104.798 42.192C 105.31 42.864 105.678 43.64 105.902 44.52C 106.142 45.384 106.206 46.28 106.094 47.208L 96.9744 47.208ZM 119.862 52.704L 117.27 52.704L 117.27 51.024L 117.222 51.024C 116.854 51.744 116.318 52.264 115.614 52.584C 114.91 52.888 114.166 53.04 113.382 53.04C 112.406 53.04 111.55 52.872 110.814 52.536C 110.094 52.184 109.494 51.712 109.014 51.12C 108.534 50.528 108.174 49.832 107.934 49.032C 107.694 48.216 107.574 47.344 107.574 46.416C 107.574 45.296 107.726 44.328 108.03 43.512C 108.334 42.696 108.734 42.024 109.23 41.496C 109.742 40.968 110.318 40.584 110.958 40.344C 111.614 40.088 112.278 39.96 112.95 39.96C 113.334 39.96 113.726 40 114.126 40.08C 114.526 40.144 114.91 40.256 115.278 40.416C 115.646 40.576 115.982 40.784 116.286 41.04C 116.606 41.28 116.87 41.568 117.078 41.904L 117.126 41.904L 117.126 35.568L 119.862 35.568L 119.862 52.704ZM 110.31 46.632C 110.31 47.16 110.374 47.68 110.502 48.192C 110.646 48.704 110.854 49.16 111.126 49.56C 111.414 49.96 111.774 50.28 112.206 50.52C 112.638 50.76 113.15 50.88 113.742 50.88C 114.35 50.88 114.87 50.752 115.302 50.496C 115.75 50.24 116.11 49.904 116.382 49.488C 116.67 49.072 116.878 48.608 117.006 48.096C 117.15 47.568 117.222 47.032 117.222 46.488C 117.222 45.112 116.91 44.04 116.286 43.272C 115.678 42.504 114.846 42.12 113.79 42.12C 113.15 42.12 112.606 42.256 112.158 42.528C 111.726 42.784 111.366 43.128 111.078 43.56C 110.806 43.976 110.606 44.456 110.478 45C 110.366 45.528 110.31 46.072 110.31 46.632ZM 122.846 40.296L 125.414 40.296L 125.414 42.696L 125.462 42.696C 125.542 42.36 125.694 42.032 125.918 41.712C 126.158 41.392 126.438 41.104 126.758 40.848C 127.094 40.576 127.462 40.36 127.862 40.2C 128.262 40.04 128.67 39.96 129.086 39.96C 129.406 39.96 129.622 39.968 129.734 39.984C 129.862 40 129.99 40.016 130.118 40.032L 130.118 42.672C 129.926 42.64 129.726 42.616 129.518 42.6C 129.326 42.568 129.134 42.552 128.942 42.552C 128.478 42.552 128.038 42.648 127.622 42.84C 127.222 43.016 126.87 43.288 126.566 43.656C 126.262 44.008 126.022 44.448 125.846 44.976C 125.67 45.504 125.582 46.112 125.582 46.8L 125.582 52.704L 122.846 52.704L 122.846 40.296ZM 136.761 53.04C 135.769 53.04 134.881 52.88 134.097 52.56C 133.329 52.224 132.673 51.768 132.129 51.192C 131.601 50.616 131.193 49.928 130.905 49.128C 130.633 48.328 130.497 47.448 130.497 46.488C 130.497 45.544 130.633 44.672 130.905 43.872C 131.193 43.072 131.601 42.384 132.129 41.808C 132.673 41.232 133.329 40.784 134.097 40.464C 134.881 40.128 135.769 39.96 136.761 39.96C 137.753 39.96 138.633 40.128 139.401 40.464C 140.185 40.784 140.841 41.232 141.369 41.808C 141.913 42.384 142.321 43.072 142.593 43.872C 142.881 44.672 143.025 45.544 143.025 46.488C 143.025 47.448 142.881 48.328 142.593 49.128C 142.321 49.928 141.913 50.616 141.369 51.192C 140.841 51.768 140.185 52.224 139.401 52.56C 138.633 52.88 137.753 53.04 136.761 53.04ZM 136.761 50.88C 137.369 50.88 137.897 50.752 138.345 50.496C 138.793 50.24 139.161 49.904 139.449 49.488C 139.737 49.072 139.945 48.608 140.073 48.096C 140.217 47.568 140.289 47.032 140.289 46.488C 140.289 45.96 140.217 45.432 140.073 44.904C 139.945 44.376 139.737 43.912 139.449 43.512C 139.161 43.096 138.793 42.76 138.345 42.504C 137.897 42.248 137.369 42.12 136.761 42.12C 136.153 42.12 135.625 42.248 135.177 42.504C 134.729 42.76 134.361 43.096 134.073 43.512C 133.785 43.912 133.569 44.376 133.425 44.904C 133.297 45.432 133.233 45.96 133.233 46.488C 133.233 47.032 133.297 47.568 133.425 48.096C 133.569 48.608 133.785 49.072 134.073 49.488C 134.361 49.904 134.729 50.24 135.177 50.496C 135.625 50.752 136.153 50.88 136.761 50.88ZM 150.776 53.04C 149.784 53.04 148.896 52.88 148.112 52.56C 147.344 52.224 146.688 51.768 146.144 51.192C 145.616 50.616 145.208 49.928 144.92 49.128C 144.648 48.328 144.512 47.448 144.512 46.488C 144.512 45.544 144.648 44.672 144.92 43.872C 145.208 43.072 145.616 42.384 146.144 41.808C 146.688 41.232 147.344 40.784 148.112 40.464C 148.896 40.128 149.784 39.96 150.776 39.96C 151.768 39.96 152.648 40.128 153.416 40.464C 154.2 40.784 154.856 41.232 155.384 41.808C 155.928 42.384 156.336 43.072 156.608 43.872C 156.896 44.672 157.04 45.544 157.04 46.488C 157.04 47.448 156.896 48.328 156.608 49.128C 156.336 49.928 155.928 50.616 155.384 51.192C 154.856 51.768 154.2 52.224 153.416 52.56C 152.648 52.88 151.768 53.04 150.776 53.04ZM 150.776 50.88C 151.384 50.88 151.912 50.752 152.36 50.496C 152.808 50.24 153.176 49.904 153.464 49.488C 153.752 49.072 153.96 48.608 154.088 48.096C 154.232 47.568 154.304 47.032 154.304 46.488C 154.304 45.96 154.232 45.432 154.088 44.904C 153.96 44.376 153.752 43.912 153.464 43.512C 153.176 43.096 152.808 42.76 152.36 42.504C 151.912 42.248 151.384 42.12 150.776 42.12C 150.168 42.12 149.64 42.248 149.192 42.504C 148.744 42.76 148.376 43.096 148.088 43.512C 147.8 43.912 147.584 44.376 147.44 44.904C 147.312 45.432 147.248 45.96 147.248 46.488C 147.248 47.032 147.312 47.568 147.44 48.096C 147.584 48.608 147.8 49.072 148.088 49.488C 148.376 49.904 148.744 50.24 149.192 50.496C 149.64 50.752 150.168 50.88 150.776 50.88ZM 159.315 40.296L 161.907 40.296L 161.907 42.024L 161.979 42.024C 162.187 41.72 162.411 41.44 162.651 41.184C 162.891 40.928 163.155 40.712 163.443 40.536C 163.747 40.36 164.091 40.224 164.475 40.128C 164.859 40.016 165.299 39.96 165.795 39.96C 166.547 39.96 167.243 40.128 167.883 40.464C 168.539 40.8 169.003 41.32 169.275 42.024C 169.739 41.384 170.275 40.88 170.883 40.512C 171.491 40.144 172.251 39.96 173.163 39.96C 174.475 39.96 175.491 40.28 176.211 40.92C 176.947 41.56 177.315 42.632 177.315 44.136L 177.315 52.704L 174.579 52.704L 174.579 45.456C 174.579 44.96 174.563 44.512 174.531 44.112C 174.499 43.696 174.403 43.344 174.243 43.056C 174.099 42.752 173.875 42.52 173.571 42.36C 173.267 42.2 172.851 42.12 172.323 42.12C 171.395 42.12 170.723 42.408 170.307 42.984C 169.891 43.56 169.683 44.376 169.683 45.432L 169.683 52.704L 166.947 52.704L 166.947 44.736C 166.947 43.872 166.787 43.224 166.467 42.792C 166.163 42.344 165.595 42.12 164.763 42.12C 164.411 42.12 164.067 42.192 163.731 42.336C 163.411 42.48 163.123 42.688 162.867 42.96C 162.627 43.232 162.427 43.568 162.267 43.968C 162.123 44.368 162.051 44.824 162.051 45.336L 162.051 52.704L 159.315 52.704L 159.315 40.296ZM 185.118 35.16L 187.734 35.16L 180.846 53.112L 178.23 53.112L 185.118 35.16ZM 199.603 52.704L 188.131 52.704C 188.147 51.312 188.483 50.096 189.139 49.056C 189.795 48.016 190.691 47.112 191.827 46.344C 192.371 45.944 192.939 45.56 193.531 45.192C 194.123 44.808 194.667 44.4 195.163 43.968C 195.659 43.536 196.067 43.072 196.387 42.576C 196.707 42.064 196.875 41.48 196.891 40.824C 196.891 40.52 196.851 40.2 196.771 39.864C 196.707 39.512 196.571 39.192 196.363 38.904C 196.155 38.6 195.867 38.352 195.499 38.16C 195.131 37.952 194.651 37.848 194.059 37.848C 193.515 37.848 193.059 37.96 192.691 38.184C 192.339 38.392 192.051 38.688 191.827 39.072C 191.619 39.44 191.459 39.88 191.347 40.392C 191.251 40.904 191.195 41.456 191.179 42.048L 188.443 42.048C 188.443 41.12 188.563 40.264 188.803 39.48C 189.059 38.68 189.435 37.992 189.931 37.416C 190.427 36.84 191.027 36.392 191.731 36.072C 192.451 35.736 193.283 35.568 194.227 35.568C 195.251 35.568 196.107 35.736 196.795 36.072C 197.483 36.408 198.035 36.832 198.451 37.344C 198.883 37.856 199.187 38.416 199.363 39.024C 199.539 39.616 199.627 40.184 199.627 40.728C 199.627 41.4 199.523 42.008 199.315 42.552C 199.107 43.096 198.827 43.6 198.475 44.064C 198.123 44.512 197.723 44.928 197.275 45.312C 196.827 45.696 196.363 46.056 195.883 46.392C 195.403 46.728 194.923 47.048 194.443 47.352C 193.963 47.656 193.515 47.96 193.099 48.264C 192.699 48.568 192.347 48.888 192.043 49.224C 191.739 49.544 191.531 49.888 191.419 50.256L 199.603 50.256L 199.603 52.704ZM 202.043 35.568L 204.779 35.568L 204.779 41.904L 204.827 41.904C 205.019 41.6 205.251 41.328 205.523 41.088C 205.795 40.848 206.091 40.648 206.411 40.488C 206.747 40.312 207.091 40.184 207.443 40.104C 207.811 40.008 208.171 39.96 208.523 39.96C 209.499 39.96 210.347 40.136 211.067 40.488C 211.803 40.824 212.411 41.296 212.891 41.904C 213.371 42.496 213.731 43.192 213.971 43.992C 214.211 44.792 214.331 45.648 214.331 46.56C 214.331 47.392 214.219 48.2 213.995 48.984C 213.787 49.768 213.459 50.464 213.011 51.072C 212.579 51.664 212.027 52.144 211.355 52.512C 210.683 52.864 209.891 53.04 208.979 53.04C 208.563 53.04 208.139 53.008 207.707 52.944C 207.291 52.896 206.891 52.792 206.507 52.632C 206.123 52.472 205.771 52.264 205.451 52.008C 205.147 51.752 204.891 51.416 204.683 51L 204.635 51L 204.635 52.704L 202.043 52.704L 202.043 35.568ZM 211.595 46.512C 211.595 45.952 211.523 45.408 211.379 44.88C 211.235 44.352 211.019 43.888 210.731 43.488C 210.443 43.072 210.083 42.744 209.651 42.504C 209.219 42.248 208.723 42.12 208.163 42.12C 207.011 42.12 206.139 42.52 205.547 43.32C 204.971 44.12 204.683 45.184 204.683 46.512C 204.683 47.136 204.755 47.72 204.899 48.264C 205.059 48.792 205.291 49.248 205.595 49.632C 205.899 50.016 206.259 50.32 206.675 50.544C 207.107 50.768 207.603 50.88 208.163 50.88C 208.787 50.88 209.315 50.752 209.747 50.496C 210.179 50.24 210.531 49.912 210.803 49.512C 211.091 49.096 211.291 48.632 211.403 48.12C 211.531 47.592 211.595 47.056 211.595 46.512ZM 227.035 49.944C 227.035 50.28 227.075 50.52 227.155 50.664C 227.251 50.808 227.427 50.88 227.683 50.88C 227.763 50.88 227.859 50.88 227.971 50.88C 228.083 50.88 228.211 50.864 228.355 50.832L 228.355 52.728C 228.259 52.76 228.131 52.792 227.971 52.824C 227.827 52.872 227.675 52.912 227.515 52.944C 227.355 52.976 227.195 53 227.035 53.016C 226.875 53.032 226.739 53.04 226.627 53.04C 226.067 53.04 225.603 52.928 225.235 52.704C 224.867 52.48 224.627 52.088 224.515 51.528C 223.971 52.056 223.299 52.44 222.499 52.68C 221.715 52.92 220.955 53.04 220.219 53.04C 219.659 53.04 219.123 52.96 218.611 52.8C 218.099 52.656 217.643 52.44 217.243 52.152C 216.859 51.848 216.547 51.472 216.307 51.024C 216.083 50.56 215.971 50.024 215.971 49.416C 215.971 48.648 216.107 48.024 216.379 47.544C 216.667 47.064 217.035 46.688 217.483 46.416C 217.947 46.144 218.459 45.952 219.019 45.84C 219.595 45.712 220.171 45.616 220.747 45.552C 221.243 45.456 221.715 45.392 222.163 45.36C 222.611 45.312 223.003 45.24 223.339 45.144C 223.691 45.048 223.963 44.904 224.155 44.712C 224.363 44.504 224.467 44.2 224.467 43.8C 224.467 43.448 224.379 43.16 224.203 42.936C 224.043 42.712 223.835 42.544 223.579 42.432C 223.339 42.304 223.067 42.224 222.763 42.192C 222.459 42.144 222.171 42.12 221.899 42.12C 221.131 42.12 220.499 42.28 220.003 42.6C 219.507 42.92 219.227 43.416 219.163 44.088L 216.427 44.088C 216.475 43.288 216.667 42.624 217.003 42.096C 217.339 41.568 217.763 41.144 218.275 40.824C 218.803 40.504 219.395 40.28 220.051 40.152C 220.707 40.024 221.379 39.96 222.067 39.96C 222.675 39.96 223.275 40.024 223.867 40.152C 224.459 40.28 224.987 40.488 225.451 40.776C 225.931 41.064 226.315 41.44 226.603 41.904C 226.891 42.352 227.035 42.904 227.035 43.56L 227.035 49.944ZM 224.299 46.488C 223.883 46.76 223.371 46.928 222.763 46.992C 222.155 47.04 221.547 47.12 220.939 47.232C 220.651 47.28 220.371 47.352 220.099 47.448C 219.827 47.528 219.587 47.648 219.379 47.808C 219.171 47.952 219.003 48.152 218.875 48.408C 218.763 48.648 218.707 48.944 218.707 49.296C 218.707 49.6 218.795 49.856 218.971 50.064C 219.147 50.272 219.355 50.44 219.595 50.568C 219.851 50.68 220.123 50.76 220.411 50.808C 220.715 50.856 220.987 50.88 221.227 50.88C 221.531 50.88 221.859 50.84 222.211 50.76C 222.563 50.68 222.891 50.544 223.195 50.352C 223.515 50.16 223.779 49.92 223.987 49.632C 224.195 49.328 224.299 48.96 224.299 48.528L 224.299 46.488ZM 228.731 40.296L 230.795 40.296L 230.795 36.576L 233.531 36.576L 233.531 40.296L 236.003 40.296L 236.003 42.336L 233.531 42.336L 233.531 48.96C 233.531 49.248 233.539 49.496 233.555 49.704C 233.587 49.912 233.643 50.088 233.723 50.232C 233.819 50.376 233.955 50.488 234.131 50.568C 234.307 50.632 234.547 50.664 234.851 50.664C 235.043 50.664 235.235 50.664 235.427 50.664C 235.619 50.648 235.811 50.616 236.003 50.568L 236.003 52.68C 235.699 52.712 235.403 52.744 235.115 52.776C 234.827 52.808 234.531 52.824 234.227 52.824C 233.507 52.824 232.923 52.76 232.475 52.632C 232.043 52.488 231.699 52.288 231.443 52.032C 231.203 51.76 231.035 51.424 230.939 51.024C 230.859 50.624 230.811 50.168 230.795 49.656L 230.795 42.336L 228.731 42.336L 228.731 40.296ZM 237.971 35.568L 240.707 35.568L 240.707 41.928L 240.755 41.928C 241.091 41.368 241.587 40.904 242.243 40.536C 242.915 40.152 243.659 39.96 244.475 39.96C 245.835 39.96 246.907 40.312 247.691 41.016C 248.475 41.72 248.867 42.776 248.867 44.184L 248.867 52.704L 246.131 52.704L 246.131 44.904C 246.099 43.928 245.891 43.224 245.507 42.792C 245.123 42.344 244.523 42.12 243.707 42.12C 243.243 42.12 242.827 42.208 242.459 42.384C 242.091 42.544 241.779 42.776 241.523 43.08C 241.267 43.368 241.067 43.712 240.923 44.112C 240.779 44.512 240.707 44.936 240.707 45.384L 240.707 52.704L 237.971 52.704L 237.971 35.568ZM 251.968 49.464L 255.305 49.464L 255.305 52.704L 251.968 52.704L 251.968 49.464Z"/>
</defs>
</svg>
